<svg width="70" height="70" viewBox="0 0 70 70" fill="none" xmlns="http://www.w3.org/2000/svg">
<g filter="url(#filter0_d_1319_8094)">
<rect x="15" y="9" width="40" height="40" rx="10" fill="#22A1E7"/>
</g>
<path d="M43.4289 24.6221C43.4369 24.6215 43.4529 24.62 43.4609 24.6191C43.459 24.712 43.4532 24.8049 43.4574 24.8978C43.4497 24.8972 43.4347 24.8956 43.427 24.8947C43.4427 24.9947 43.3981 25.0892 43.361 25.1796C43.2495 25.4065 43.0643 25.5864 42.899 25.7766C40.825 28.0993 38.7578 30.4279 36.6862 32.7524C36.444 33.0117 36.237 33.3198 35.9079 33.4864C35.65 33.6315 35.3277 33.6522 35.0473 33.5577C34.7885 33.4759 34.5767 33.2982 34.3982 33.1049C33.7071 32.291 32.9798 31.5063 32.2734 30.705C30.8034 29.0565 29.3385 27.4032 27.8679 25.7553C27.6549 25.5074 27.387 25.279 27.3226 24.9469C27.2951 24.72 27.2947 24.4783 27.4017 24.2687C27.5331 23.9628 27.8317 23.7391 28.1547 23.6406C28.436 23.5958 28.741 23.5998 28.9948 23.7394C29.2059 23.8369 29.344 24.024 29.4942 24.1888C31.4624 26.3769 33.3931 28.5969 35.3748 30.7742L35.4017 30.7742C37.2254 28.7753 39.0074 26.7405 40.8081 24.7222C41.0532 24.453 41.28 24.1662 41.5594 23.9286C41.7439 23.7721 41.9785 23.6634 42.2277 23.6616C42.6994 23.6261 43.1575 23.9172 43.3558 24.3227C43.3905 24.4197 43.4395 24.5169 43.4289 24.6221Z" fill="white"/>
<defs>
<filter id="filter0_d_1319_8094" x="0" y="0" width="70" height="70" filterUnits="userSpaceOnUse" color-interpolation-filters="sRGB">
<feFlood flood-opacity="0" result="BackgroundImageFix"/>
<feColorMatrix in="SourceAlpha" type="matrix" values="0 0 0 0 0 0 0 0 0 0 0 0 0 0 0 0 0 0 127 0" result="hardAlpha"/>
<feOffset dy="6"/>
<feGaussianBlur stdDeviation="7.5"/>
<feComposite in2="hardAlpha" operator="out"/>
<feColorMatrix type="matrix" values="0 0 0 0 0.133333 0 0 0 0 0.631373 0 0 0 0 0.905882 0 0 0 0.25 0"/>
<feBlend mode="normal" in2="BackgroundImageFix" result="effect1_dropShadow_1319_8094"/>
<feBlend mode="normal" in="SourceGraphic" in2="effect1_dropShadow_1319_8094" result="shape"/>
</filter>
</defs>
</svg>
