<svg width="18" height="15" viewBox="0 0 18 15" fill="none" xmlns="http://www.w3.org/2000/svg">
<path d="M10.1593 14.9346C10.3411 15.004 10.5392 15.0185 10.7292 14.9765C10.9192 14.9345 11.0928 14.8378 11.2286 14.6983C13.3387 12.5862 15.4478 10.4723 17.5559 8.3566C17.6742 8.25012 17.7783 8.12885 17.8657 7.99575C17.9425 7.85658 17.9883 7.7024 18 7.5438V7.45657C17.989 7.28644 17.9375 7.12144 17.8497 6.97544C17.7537 6.84111 17.6435 6.71753 17.5211 6.60684L11.4705 0.546552C11.3463 0.412298 11.2126 0.287314 11.0703 0.172602C10.9271 0.074688 10.7607 0.0161705 10.5879 0.00290012C10.415 -0.0103712 10.2417 0.0220699 10.0853 0.0969782C9.87771 0.22387 9.69136 0.382718 9.53306 0.56769C9.31821 0.743737 9.14065 0.961076 9.01084 1.20692C8.94075 1.38537 8.92431 1.58047 8.96353 1.76818C9.00275 1.95589 9.09592 2.12799 9.23155 2.26326C10.5057 3.54072 11.7821 4.8162 13.0606 6.08969C9.11729 6.08969 5.17389 6.08969 1.2304 6.08969C1.01781 6.07048 0.803597 6.09802 0.602723 6.17037C0.43008 6.24938 0.282495 6.37454 0.17617 6.5321C0.0698451 6.68967 0.0088911 6.87355 0 7.06356L0 7.98652C0.00962313 8.16111 0.0657966 8.32992 0.162664 8.47534C0.259532 8.62076 0.393547 8.73748 0.550738 8.81332C0.802035 8.90488 1.07079 8.93806 1.33674 8.91038C5.23033 8.91038 9.12402 8.91038 13.0178 8.91038C11.8173 10.1186 10.6158 11.3256 9.41335 12.5314C9.26062 12.6622 9.13306 12.8199 9.03698 12.9967C8.96228 13.1564 8.93117 13.3331 8.94683 13.5088C8.96248 13.6845 9.02434 13.8529 9.1261 13.9968C9.25336 14.1492 9.38976 14.2936 9.53455 14.4294C9.70525 14.6397 9.91807 14.8119 10.1593 14.9346Z" fill="#22A1E7"/>
</svg>
