<svg width="20" height="22" viewBox="0 0 20 22" fill="none" xmlns="http://www.w3.org/2000/svg">
<path d="M1.0547 8.41715L18.8785 8.4904" stroke="#22A1E7" stroke-width="1.5" stroke-linecap="round" stroke-linejoin="round"/>
<path d="M14.3873 12.378L14.3965 12.3781" stroke="#22A1E7" stroke-width="2.5" stroke-linecap="round" stroke-linejoin="round"/>
<path d="M9.94979 12.3595L9.95905 12.3595" stroke="#22A1E7" stroke-width="2.5" stroke-linecap="round" stroke-linejoin="round"/>
<path d="M5.5035 12.3409L5.51276 12.3409" stroke="#22A1E7" stroke-width="2.5" stroke-linecap="round" stroke-linejoin="round"/>
<path d="M14.3717 16.2638L14.3809 16.2638" stroke="#22A1E7" stroke-width="2.5" stroke-linecap="round" stroke-linejoin="round"/>
<path d="M9.93416 16.2462L9.94342 16.2462" stroke="#22A1E7" stroke-width="2.5" stroke-linecap="round" stroke-linejoin="round"/>
<path d="M5.48787 16.2276L5.49714 16.2277" stroke="#22A1E7" stroke-width="2.5" stroke-linecap="round" stroke-linejoin="round"/>
<path d="M14.0355 1.06636L14.0219 4.35711" stroke="#22A1E7" stroke-width="1.5" stroke-linecap="round" stroke-linejoin="round"/>
<path d="M5.95734 1.03315L5.94381 4.32391" stroke="#22A1E7" stroke-width="1.5" stroke-linecap="round" stroke-linejoin="round"/>
<path fill-rule="evenodd" clip-rule="evenodd" d="M14.2235 2.64621L5.75627 2.61141C2.81961 2.59934 0.978628 4.22772 0.966269 7.23478L0.929074 16.2844C0.916521 19.3387 2.7439 21.02 5.68056 21.0321L14.1385 21.0668C17.0845 21.0789 18.9162 19.441 18.9286 16.434L18.9661 7.30876C18.9877 4.30173 17.1694 2.65831 14.2235 2.64621Z" stroke="#22A1E7" stroke-width="1.5" stroke-linecap="round" stroke-linejoin="round"/>
</svg>
