<svg width="61" height="61" viewBox="0 0 61 61" fill="none" xmlns="http://www.w3.org/2000/svg">
<path d="M53.4379 7.14457C52.2583 5.97796 50.8523 5.06525 49.3065 4.46268C47.7607 3.86011 46.1079 3.58043 44.4499 3.64088C41.2616 3.75784 38.2385 5.08906 35.9996 7.36203C33.7606 9.635 32.4751 12.6778 32.4063 15.8676C32.3613 18.5719 33.2178 21.2143 34.8405 23.3782C35.0693 23.7194 40.626 31.4454 42.3302 33.8092C42.6056 34.1822 42.9644 34.4857 43.378 34.6954C43.7915 34.9051 44.2484 35.0153 44.712 35.0172C45.1757 35.019 45.6334 34.9125 46.0486 34.7061C46.4638 34.4996 46.825 34.199 47.1034 33.8283C47.1034 33.8283 54.452 23.788 54.6751 23.504C56.2958 21.3468 57.1769 18.724 57.1875 16.0258C57.1933 14.3692 56.8641 12.7284 56.2197 11.2022C55.5754 9.67604 54.6292 8.29584 53.4379 7.14457ZM44.7969 20.9687C43.8543 20.9687 42.9329 20.6892 42.1492 20.1655C41.3655 19.6419 40.7547 18.8976 40.394 18.0268C40.0333 17.156 39.9389 16.1978 40.1228 15.2733C40.3067 14.3489 40.7606 13.4998 41.4271 12.8333C42.0936 12.1668 42.9427 11.7129 43.8672 11.529C44.7916 11.3451 45.7498 11.4395 46.6206 11.8002C47.4914 12.1609 48.2357 12.7717 48.7594 13.5554C49.283 14.3391 49.5625 15.2605 49.5625 16.2031C49.561 17.4665 49.0584 18.6778 48.165 19.5712C47.2716 20.4646 46.0603 20.9672 44.7969 20.9687ZM13.3438 52.4218C13.3438 53.3644 13.0643 54.2858 12.5406 55.0695C12.0169 55.8532 11.2727 56.464 10.4019 56.8247C9.53105 57.1854 8.57284 57.2798 7.6484 57.0959C6.72396 56.912 5.87481 56.4581 5.20832 55.7916C4.54184 55.1251 4.08796 54.276 3.90407 53.3516C3.72019 52.4271 3.81456 51.4689 4.17526 50.5981C4.53596 49.7273 5.14678 48.983 5.93049 48.4594C6.71419 47.9357 7.63558 47.6562 8.57813 47.6562C9.84159 47.6577 11.0529 48.1603 11.9463 49.0537C12.8397 49.9471 13.3422 51.1584 13.3438 52.4218ZM34.3125 47.6562C34.311 49.1724 33.708 50.6261 32.6358 51.6983C31.5637 52.7704 30.11 53.3734 28.5938 53.3749H17.0609C17.2495 52.0882 17.101 50.7746 16.6301 49.5624H28.5938C29.0993 49.5624 29.5842 49.3616 29.9417 49.0041C30.2992 48.6466 30.5 48.1618 30.5 47.6562C30.5 47.1506 30.2992 46.6658 29.9417 46.3083C29.5842 45.9508 29.0993 45.7499 28.5938 45.7499H20.9688C19.4525 45.7484 17.9988 45.1454 16.9267 44.0733C15.8545 43.0011 15.2515 41.5474 15.25 40.0312V38.1249C15.2515 36.6087 15.8545 35.155 16.9267 34.0828C17.9988 33.0107 19.4525 32.4077 20.9688 32.4062H36.6229C37.8391 34.0608 38.6893 35.3552 39.4041 36.2187H20.9688C20.4633 36.2192 19.9788 36.4202 19.6214 36.7776C19.264 37.135 19.063 37.6195 19.0625 38.1249V40.0312C19.063 40.5366 19.264 41.0212 19.6214 41.3786C19.9788 41.7359 20.4633 41.9369 20.9688 41.9374H28.5938C30.11 41.939 31.5637 42.542 32.6358 43.6141C33.708 44.6862 34.311 46.14 34.3125 47.6562Z" fill="#22A1E7"/>
</svg>
