<svg width="53" height="53" viewBox="0 0 53 53" fill="none" xmlns="http://www.w3.org/2000/svg">
<g clip-path="url(#clip0_2617_34379)">
<path d="M18.5708 44.7221C19.5266 45.5613 20.5132 46.4271 21.5282 47.3248L21.5492 47.3433L24.9256 50.2597C25.3779 50.6506 25.9394 50.8459 26.5008 50.8459C27.0622 50.8459 27.6238 50.6504 28.0762 50.2597L31.4519 47.3433L31.4728 47.325C38.1566 41.414 43.1678 36.8887 46.7933 32.4753C51.0278 27.3206 53.0002 22.66 53.0002 17.808C53.0002 9.02956 46.1239 2.15332 37.3458 2.15332C33.4005 2.15332 29.5022 3.63893 26.5008 6.21417C23.4986 3.63877 19.6003 2.15332 15.6548 2.15332C6.8764 2.15316 0 9.02956 0 17.8078C0 28.4189 7.38788 34.9047 18.5708 44.7221ZM16.8615 21.6805H23.287V15.2547H29.7128V21.6805H36.1385V28.1062H29.7128V34.5317H23.287V28.1062H16.8615V21.6805Z" fill="#22A1E7"/>
</g>
<defs>
<clipPath id="clip0_2617_34379">
<rect width="53" height="53" fill="white"/>
</clipPath>
</defs>
</svg>
