<svg width="53" height="53" viewBox="0 0 53 53" fill="none" xmlns="http://www.w3.org/2000/svg">
<g clip-path="url(#clip0_2617_34427)">
<path fill-rule="evenodd" clip-rule="evenodd" d="M44.3177 19.137C44.0245 19.137 40.3961 17.4851 39.8228 17.2364C39.5085 17.1001 39.3638 16.7336 39.5011 16.4193L44.5897 4.72566C45.1161 3.51576 46.5157 2.95957 47.7204 3.45055C47.5558 3.64185 44.622 10.4972 44.2562 11.3385C43.9295 12.09 45.0708 12.58 45.3953 11.8341C45.7624 10.9903 48.7768 4.17785 48.8054 3.92413C49.9715 4.48374 50.4967 5.87469 49.9759 7.0703L44.8872 18.7634C44.8389 18.8744 44.7593 18.9689 44.6581 19.0353C44.5569 19.1017 44.4384 19.1372 44.3174 19.1373L44.3177 19.137Z" fill="#22A1E7"/>
<path fill-rule="evenodd" clip-rule="evenodd" d="M43.0228 21.6626H38.4842C38.059 21.6626 37.7538 21.2352 37.9006 20.83L39.4854 16.4553C39.5922 16.1603 45.1044 18.3406 44.87 18.7984L43.5759 21.3241C43.5237 21.4259 43.4444 21.5114 43.3468 21.571C43.2492 21.6307 43.1369 21.6623 43.0225 21.6622L43.0228 21.6626ZM49.2996 5.21345C48.8611 5.21345 46.3711 3.99454 46.3156 3.97032C45.5569 3.63897 46.187 2.70919 46.5581 1.85673C47.3615 0.0111432 50.0452 1.24526 50.4558 2.2887C50.7884 3.13433 50.2825 3.89051 49.8698 4.83923C49.8217 4.95043 49.7421 5.04513 49.6408 5.11167C49.5396 5.17822 49.4211 5.2137 49.2999 5.21376L49.2996 5.21345Z" fill="#22A1E7"/>
<path fill-rule="evenodd" clip-rule="evenodd" d="M38.485 21.6626C38.1422 21.6626 38.2067 21.0443 37.8639 21.0415L22.6567 20.9232C22.8619 20.2388 22.9048 19.6068 22.9824 18.9019C22.5138 14.7213 19.8844 11.6214 15.4271 11.6214C15.2184 11.6214 15.0113 11.6301 14.806 11.6465V0.622073C14.806 0.279228 15.0843 0.000976562 15.4271 0.000976562H38.485C38.8278 0.000976562 39.1061 0.279228 39.1061 0.622073V21.0415C39.1061 21.3844 38.8278 21.6626 38.485 21.6626ZM35.9795 4.5179H17.9317C17.114 4.5179 17.114 3.27571 17.9317 3.27571H35.9795C36.7972 3.27571 36.7972 4.5179 35.9795 4.5179ZM35.9795 8.21125H17.9317C17.114 8.21125 17.114 6.96905 17.9317 6.96905H35.9795C36.7972 6.96905 36.7972 8.21125 35.9795 8.21125ZM35.9795 11.9049H17.9317C17.114 11.9049 17.114 10.6627 17.9317 10.6627H35.9795C36.7972 10.6627 36.7972 11.9049 35.9795 11.9049ZM35.9795 15.5979H23.4085C22.5908 15.5979 22.5908 14.3558 23.4085 14.3558H35.9795C36.7972 14.3558 36.7972 15.5979 35.9795 15.5979ZM43.1178 52.9982H9.88103C8.19631 52.9982 6.82617 51.6277 6.82617 49.943V31.2983H46.172V49.943C46.1726 51.628 44.8022 52.9982 43.1174 52.9982H43.1178ZM37.2894 46.99H15.7097C15.3669 46.99 15.0886 46.7114 15.0886 46.3689V35.65C15.0886 35.3072 15.3669 35.0289 15.7097 35.0289H37.2894C37.6322 35.0289 37.9105 35.3075 37.9105 35.65V46.3689C37.9105 46.7114 37.6325 46.99 37.2894 46.99ZM16.3308 45.7475H36.668V36.2711H16.3308V45.7475Z" fill="#22A1E7"/>
<path fill-rule="evenodd" clip-rule="evenodd" d="M20.8555 21.6631C17.113 21.6631 9.74778 22.0339 9.42822 21.2861C9.16488 20.67 9.01302 20.0445 8.95898 19.4259C9.33568 19.6157 10.0034 19.5275 10.5757 19.5275C11.3937 19.5275 11.3931 18.2853 10.5757 18.2853C10.0034 18.2853 9.33599 18.1971 8.9593 18.3868C9.23413 15.3059 11.9014 12.6572 15.4274 12.6572C18.9478 12.6572 21.6073 15.2963 21.893 18.3654C21.8057 18.3151 21.6989 18.2853 21.5725 18.2853C20.7207 18.2853 19.6577 18.09 19.6577 18.9064C19.6577 19.7228 20.721 19.5275 21.5725 19.5275C21.6992 19.5275 21.8067 19.4977 21.8939 19.4471C21.8461 19.9759 21.6399 21.6631 20.8555 21.6631ZM15.4109 19.3359L13.4964 19.2679C12.6775 19.239 12.7253 17.9906 13.5405 18.0269L14.7895 18.0713C14.7895 17.23 14.5961 16.1733 15.4106 16.1733C16.2836 16.1733 16.0317 17.4844 16.0317 18.7148C16.0317 19.0573 15.7532 19.3356 15.4112 19.3356L15.4109 19.3359ZM15.4277 15.1929C14.6113 15.1929 14.8066 14.1298 14.8066 13.2777C14.8066 12.46 16.0488 12.46 16.0488 13.2777C16.0488 14.1302 16.2441 15.1929 15.4277 15.1929Z" fill="#22A1E7"/>
<path fill-rule="evenodd" clip-rule="evenodd" d="M48.07 30.2634H4.9374C4.53773 30.2634 4.24022 29.8849 4.3337 29.4964L6.4035 20.8963C6.47089 20.6175 6.72026 20.4209 7.00721 20.4209H45.9916C46.2785 20.4209 46.5282 20.6175 46.5953 20.8963L48.6905 29.6417C48.6911 29.9845 48.4132 30.2634 48.07 30.2634Z" fill="#22A1E7"/>
<path fill-rule="evenodd" clip-rule="evenodd" d="M0.867459 29.1009C-0.142754 29.1009 -0.652674 27.8721 0.0625181 27.1569L6.46509 20.7543C7.52188 19.6975 9.13176 21.3074 8.07528 22.3642L1.67271 28.7671C1.56708 28.8729 1.44161 28.9569 1.30348 29.0141C1.16535 29.0713 1.01728 29.1007 0.867769 29.1006L0.867459 29.1009ZM52.1417 29.1028C51.8393 29.1028 51.5501 28.9832 51.3365 28.7693L44.9339 22.3664C43.8774 21.3099 45.4883 19.7003 46.5444 20.7565L52.947 27.1591C53.6619 27.874 53.1526 29.1031 52.1417 29.1031V29.1028Z" fill="#22A1E7"/>
</g>
<defs>
<clipPath id="clip0_2617_34427">
<rect width="53" height="53" fill="white"/>
</clipPath>
</defs>
</svg>
