<svg width="51" height="51" viewBox="0 0 51 51" fill="none" xmlns="http://www.w3.org/2000/svg">
<g clip-path="url(#clip0_2617_34355)">
<path d="M50.2798 23.9699L24.9458 1.45102C24.018 0.627096 22.244 -0.0242522 21.0044 0.00172752L2.69795 0.395134C2.09351 0.415059 1.51926 0.664083 1.09162 1.09172C0.663985 1.51936 0.414962 2.09361 0.395037 2.69805L-0.000225602 21.0045C-0.0262053 22.2441 0.625143 24.0181 1.44907 24.9441L23.9679 50.278C24.7918 51.2059 26.1836 51.2448 27.0613 50.3671L50.3688 27.0577C50.5762 26.8548 50.7394 26.6111 50.848 26.3421C50.9567 26.073 51.0084 25.7843 51.0001 25.4943C50.9917 25.2042 50.9234 24.9191 50.7994 24.6567C50.6754 24.3944 50.4985 24.1605 50.2798 23.9699ZM12.4032 12.4033C11.7629 13.0087 10.9118 13.3405 10.0307 13.3283C9.14962 13.316 8.30804 12.9607 7.68484 12.3377C7.06163 11.7147 6.70593 10.8733 6.69334 9.99222C6.68074 9.11113 7.01225 8.25987 7.61739 7.61935C7.93136 7.3053 8.30413 7.05618 8.71439 6.88622C9.12465 6.71625 9.56438 6.62877 10.0085 6.62877C10.4525 6.62877 10.8923 6.71625 11.3025 6.88622C11.7128 7.05618 12.0855 7.3053 12.3995 7.61935C12.7145 7.93286 12.9646 8.30546 13.1353 8.7158C13.306 9.12613 13.3941 9.56613 13.3944 10.0106C13.3948 10.455 13.3074 10.8951 13.1373 11.3057C12.9672 11.7163 12.7177 12.0893 12.4032 12.4033ZM36.787 27.3602H28.3306V36.2582H24.3669V27.3602H15.9123V23.5597H24.3687V14.7415H28.3325V23.5597H36.7889V27.3602H36.787Z" fill="#22A1E7"/>
</g>
<defs>
<clipPath id="clip0_2617_34355">
<rect width="51" height="51" fill="white"/>
</clipPath>
</defs>
</svg>
