<svg width="17" height="17" viewBox="0 0 17 17" fill="none" xmlns="http://www.w3.org/2000/svg">
<path d="M12.0416 3.54199C12.0416 3.12171 12.1662 2.71086 12.3997 2.36141C12.6332 2.01195 12.9651 1.73959 13.3534 1.57875C13.7417 1.41791 14.1689 1.37583 14.5812 1.45782C14.9934 1.53982 15.372 1.7422 15.6692 2.03939C15.9664 2.33658 16.1688 2.71522 16.2508 3.12743C16.3327 3.53964 16.2907 3.9669 16.1298 4.3552C15.969 4.74349 15.6966 5.07537 15.3472 5.30887C14.9977 5.54236 14.5869 5.66699 14.1666 5.66699C13.603 5.66699 13.0625 5.44311 12.664 5.0446C12.2655 4.64608 12.0416 4.10558 12.0416 3.54199ZM1.41659 4.25033H9.91659C10.1044 4.25033 10.2846 4.1757 10.4175 4.04286C10.5503 3.91002 10.6249 3.72985 10.6249 3.54199C10.6249 3.35413 10.5503 3.17396 10.4175 3.04113C10.2846 2.90829 10.1044 2.83366 9.91659 2.83366H1.41659C1.22872 2.83366 1.04856 2.90829 0.915718 3.04113C0.78288 3.17396 0.708252 3.35413 0.708252 3.54199C0.708252 3.72985 0.78288 3.91002 0.915718 4.04286C1.04856 4.1757 1.22872 4.25033 1.41659 4.25033ZM5.66659 6.37533C5.22817 6.37656 4.80086 6.51337 4.44325 6.76699C4.08564 7.02062 3.81522 7.37864 3.66909 7.79199H1.41659C1.22872 7.79199 1.04856 7.86662 0.915718 7.99946C0.78288 8.1323 0.708252 8.31246 0.708252 8.50033C0.708252 8.68819 0.78288 8.86835 0.915718 9.00119C1.04856 9.13403 1.22872 9.20866 1.41659 9.20866H3.66909C3.79903 9.5762 4.02758 9.90091 4.32971 10.1473C4.63184 10.3936 4.99592 10.5521 5.38209 10.6054C5.76827 10.6587 6.16166 10.6047 6.51921 10.4494C6.87677 10.294 7.18471 10.0434 7.40933 9.72475C7.63395 9.40613 7.7666 9.03187 7.79276 8.64291C7.81892 8.25396 7.73758 7.8653 7.55765 7.51948C7.37771 7.17366 7.10611 6.884 6.77258 6.68219C6.43904 6.48039 6.05642 6.37423 5.66659 6.37533ZM15.5833 7.79199H9.91659C9.72872 7.79199 9.54856 7.86662 9.41572 7.99946C9.28288 8.1323 9.20825 8.31246 9.20825 8.50033C9.20825 8.68819 9.28288 8.86835 9.41572 9.00119C9.54856 9.13403 9.72872 9.20866 9.91659 9.20866H15.5833C15.7711 9.20866 15.9513 9.13403 16.0841 9.00119C16.217 8.86835 16.2916 8.68819 16.2916 8.50033C16.2916 8.31246 16.217 8.1323 16.0841 7.99946C15.9513 7.86662 15.7711 7.79199 15.5833 7.79199ZM7.08325 12.7503H1.41659C1.22872 12.7503 1.04856 12.825 0.915718 12.9578C0.78288 13.0906 0.708252 13.2708 0.708252 13.4587C0.708252 13.6465 0.78288 13.8267 0.915718 13.9595C1.04856 14.0924 1.22872 14.167 1.41659 14.167H7.08325C7.27111 14.167 7.45128 14.0924 7.58412 13.9595C7.71696 13.8267 7.79159 13.6465 7.79159 13.4587C7.79159 13.2708 7.71696 13.0906 7.58412 12.9578C7.45128 12.825 7.27111 12.7503 7.08325 12.7503ZM15.5833 12.7503H13.3308C13.1637 12.2777 12.8349 11.8794 12.4025 11.6258C11.9701 11.3721 11.462 11.2795 10.9679 11.3643C10.4739 11.449 10.0257 11.7057 9.70259 12.089C9.37949 12.4722 9.20228 12.9574 9.20228 13.4587C9.20228 13.9599 9.37949 14.4451 9.70259 14.8283C10.0257 15.2116 10.4739 15.4683 10.9679 15.5531C11.462 15.6378 11.9701 15.5452 12.4025 15.2916C12.8349 15.0379 13.1637 14.6396 13.3308 14.167H15.5833C15.7711 14.167 15.9513 14.0924 16.0841 13.9595C16.217 13.8267 16.2916 13.6465 16.2916 13.4587C16.2916 13.2708 16.217 13.0906 16.0841 12.9578C15.9513 12.825 15.7711 12.7503 15.5833 12.7503Z" fill="#464646"/>
</svg>
