<svg width="518" height="409" viewBox="0 0 518 409" fill="none" xmlns="http://www.w3.org/2000/svg">
<path fill-rule="evenodd" clip-rule="evenodd" d="M263.012 86.2957C305.695 60.2564 350.42 56.0628 387.311 69.5011C424.203 82.9393 466.125 109.366 498.608 163.802C531.09 218.239 517.747 288.464 485.802 332.22C453.857 375.977 407.493 403.001 352.868 403.001C298.243 403.001 285.27 375.313 234.872 375.313C184.473 375.313 176.565 419.958 109.136 406.456C41.7064 392.954 45.6286 328.413 68.4077 300.553C91.1868 272.693 123.324 264.848 155.854 244.781C188.383 224.714 196.111 215.788 205.549 203.815C214.987 191.843 220.329 112.335 263.012 86.2957Z" fill="#F0E7E0"/>
<path fill-rule="evenodd" clip-rule="evenodd" d="M502.139 303.974L501.81 304.703C497.27 314.638 491.872 323.907 485.803 332.221C453.858 375.977 407.493 403.002 352.868 403.002C327.194 403.002 310.722 396.885 295.24 390.402L293.268 389.573L288.361 387.5L286.397 386.677C271.977 380.674 257.048 375.313 234.872 375.313C214.713 375.313 201.352 382.456 188.26 390.164L186.298 391.324L184.335 392.487C165.991 403.344 146.897 414.018 109.136 406.456C73.5713 399.335 57.8559 378.015 54.2874 355.367C73.4566 342.112 101.433 333.544 138.218 329.66C152.856 328.114 164.254 327.096 173.406 326.382L176.545 326.142C178.577 325.99 180.492 325.853 182.301 325.729L184.939 325.551L187.429 325.39L190.908 325.175L199.812 324.649L201.541 324.543L203.199 324.435C215.673 323.602 222.84 322.49 244.404 316.674L247.299 315.888C247.796 315.753 248.3 315.615 248.812 315.475L251.97 314.605L255.317 313.676L258.861 312.687L262.612 311.634C316.537 296.464 422.009 286.436 502.139 303.974Z" fill="#F9EFE8"/>
<path d="M228.67 87.5742L126.846 166.531C132.043 169.274 138.178 169.61 143.643 167.452L269.094 117.908L228.67 87.5742Z" fill="#F6BB74"/>
<path d="M228.67 87.5742L145.507 152.061L233.924 91.516L228.67 87.5742Z" fill="#FFF4E8"/>
<path d="M209.549 109.196C219.322 113.737 225.236 117.719 227.291 121.14C230.373 126.273 230.044 130.525 227.291 136.975C224.538 143.425 214.217 143.308 207.713 140.539C201.209 137.769 184.719 132.932 182.148 123.332C179.577 113.731 182.616 107.087 188.723 104.24C192.794 102.341 199.736 103.994 209.549 109.196Z" fill="#FDCE97"/>
<path d="M202.154 105.729L202.073 105.697C196.12 103.352 191.67 102.866 188.724 104.24C182.617 107.087 179.578 113.731 182.149 123.332C183.409 128.036 188.011 131.596 193.142 134.33L193.773 134.661C193.984 134.77 194.195 134.877 194.408 134.984L195.046 135.298L195.685 135.605L196.326 135.904L196.966 136.195L197.604 136.479L198.24 136.755L198.872 137.025L199.81 137.415L200.732 137.79L201.636 138.15L203.089 138.718L205.487 139.643L206.441 140.017L206.887 140.196L207.516 140.455L207.714 140.539C207.847 140.595 207.981 140.651 208.117 140.705L208.529 140.864C208.875 140.994 209.231 141.117 209.594 141.232L210.032 141.365C210.106 141.387 210.18 141.409 210.254 141.43L210.702 141.552C210.777 141.571 210.852 141.591 210.928 141.61L211.384 141.72C211.766 141.808 212.152 141.888 212.542 141.959L213.012 142.039L213.484 142.11C219.161 142.908 225.269 141.714 227.292 136.975C228.494 134.158 229.234 131.76 229.429 129.525C207.684 140.55 193.474 123.506 196.599 114.063C197.795 110.451 199.646 107.673 202.154 105.729Z" fill="#FFDAAF"/>
<path d="M193.17 130.242C187.62 130.242 183.121 124.541 183.121 117.509C183.121 110.477 187.62 104.776 193.17 104.776C198.72 104.776 203.22 110.477 203.22 117.509C203.22 124.541 198.72 130.242 193.17 130.242Z" fill="white"/>
<path d="M193.223 128.232C188.598 128.232 184.849 123.431 184.849 117.509C184.849 111.588 188.598 106.787 193.223 106.787C197.848 106.787 201.598 111.588 201.598 117.509C201.598 123.431 197.848 128.232 193.223 128.232Z" fill="#DD9B4A"/>
<path fill-rule="evenodd" clip-rule="evenodd" d="M249.223 127.206L239.746 121.964C237.981 120.987 235.761 121.536 234.654 123.223C233.664 124.731 234.084 126.755 235.592 127.745C235.675 127.799 235.76 127.85 235.848 127.896L244.986 132.769C246.752 133.71 248.94 133.234 250.154 131.643C251.157 130.329 250.905 128.45 249.591 127.446C249.474 127.357 249.351 127.277 249.223 127.206Z" fill="#FFF4E8"/>
<path fill-rule="evenodd" clip-rule="evenodd" d="M205.006 145.972L195.529 140.73C193.763 139.753 191.543 140.302 190.436 141.989C189.447 143.497 189.867 145.521 191.375 146.511C191.457 146.565 191.543 146.616 191.63 146.662L200.769 151.535C202.535 152.476 204.722 151.999 205.936 150.409C206.94 149.094 206.688 147.215 205.373 146.212C205.257 146.123 205.134 146.042 205.006 145.972Z" fill="#FFF4E8"/>
<path fill-rule="evenodd" clip-rule="evenodd" d="M171.507 157.363L162.031 152.121C160.265 151.145 158.045 151.693 156.938 153.38C155.949 154.888 156.369 156.913 157.877 157.902C157.959 157.957 158.045 158.007 158.132 158.054L167.271 162.926C169.037 163.868 171.224 163.391 172.438 161.801C173.442 160.486 173.19 158.607 171.875 157.603C171.759 157.514 171.636 157.434 171.507 157.363Z" fill="#FFF4E8"/>
<path d="M357.208 100.396L378.85 28.6191L390.143 53.4606V119.574L357.208 100.396Z" fill="#F6BB74"/>
<path d="M392.717 112.109L442.907 94.8015C450.977 92.0187 459.635 91.3975 468.02 92.9997L363.211 140.294C362.397 140.661 361.591 141.045 360.793 141.444L343.275 150.207L335.219 149.006L357.208 128.598L392.717 112.109Z" fill="#F6BB74"/>
<path d="M452.358 92.5625C449.367 92.9628 446.41 93.6405 443.524 94.5928L442.907 94.801L392.717 112.108L357.208 128.598L336.63 147.695L355.416 135.757L380.744 122.516L452.358 92.5625Z" fill="#FFF4E8"/>
<path d="M203.975 29.3314C285.399 64.7861 338.95 87.7287 364.627 98.1592C403.219 113.836 413.6 120.539 413.6 128.444C413.6 136.349 400.063 137.801 380.955 138.949C361.847 140.097 339.339 138.749 302.332 131.314C265.324 123.878 239.707 111.764 191.063 89.7172C142.419 67.67 125.956 52.8625 133.076 37.226C140.196 21.5896 164.906 21.7002 174.413 21.7002C180.678 21.7002 190.221 24.1173 203.043 28.9514C203.357 29.0698 203.667 29.1961 203.975 29.3301L203.975 29.3314Z" fill="#FFF4E8"/>
<path d="M174.414 21.7002C180.682 21.7002 190.234 24.1205 203.068 28.961L203.068 28.962C203.379 29.0795 203.687 29.2047 203.993 29.3375C217.041 35.0172 226.567 39.1593 232.568 41.7652" stroke="#EAEAEA" stroke-width="1.078"/>
<path d="M328.836 88.883L324.917 87.1787V92.4424L328.836 94.0397V88.883Z" fill="#DD9B4A"/>
<path fill-rule="evenodd" clip-rule="evenodd" d="M172.775 21.868L173.202 21.7012L171.913 21.7063L170.872 21.7164L169.773 21.7344L169.011 21.752L168.226 21.7747L167.42 21.8033L166.595 21.8385L165.751 21.8808L164.891 21.9311L164.015 21.9899C163.868 22.0005 163.72 22.0114 163.572 22.0228L162.675 22.0957C162.374 22.1217 162.072 22.1494 161.767 22.1789L160.848 22.273C150.227 23.4207 137.792 26.8689 133.076 37.2265C125.956 52.863 142.419 67.6705 191.063 89.7176L207.639 97.2346L212.784 99.5589L216.532 101.245L218.981 102.342L222.583 103.948L224.94 104.992L227.263 106.016L229.554 107.02L231.815 108.004L234.047 108.967C234.416 109.126 234.785 109.285 235.152 109.442L237.344 110.377L239.511 111.292C239.87 111.443 240.228 111.593 240.585 111.743L242.718 112.63C263.234 121.115 280.867 127.002 302.332 131.314L303.438 131.536L305.624 131.967C305.985 132.038 306.345 132.108 306.704 132.178L308.839 132.588L310.941 132.984L313.01 133.366L315.047 133.734C315.721 133.855 316.39 133.973 317.053 134.089L319.027 134.431C319.354 134.486 319.679 134.542 320.003 134.596L321.932 134.918C322.251 134.971 322.569 135.022 322.885 135.074L324.77 135.376L326.625 135.666C326.932 135.713 327.238 135.76 327.542 135.806L329.355 136.076C329.655 136.121 329.954 136.164 330.252 136.207L332.023 136.46C332.316 136.501 332.608 136.541 332.899 136.581L334.631 136.816L336.337 137.038C337.748 137.219 339.132 137.388 340.491 137.545L342.11 137.728C343.182 137.846 344.238 137.957 345.278 138.061L346.828 138.211L348.356 138.351L349.862 138.481C350.111 138.501 350.36 138.522 350.607 138.542L352.082 138.656C352.327 138.674 352.57 138.692 352.812 138.71L354.258 138.809C354.497 138.825 354.735 138.841 354.973 138.856L356.389 138.941C356.858 138.968 357.324 138.993 357.787 139.017L359.166 139.084L360.529 139.142L361.874 139.191C362.319 139.206 362.762 139.219 363.203 139.231L364.516 139.263C366.038 139.295 367.53 139.31 368.994 139.31L370.242 139.306C370.448 139.305 370.655 139.303 370.861 139.301L372.09 139.286C372.701 139.276 373.308 139.264 373.91 139.249L375.11 139.216L376.298 139.175L377.477 139.129L378.645 139.075C378.839 139.066 379.033 139.056 379.226 139.046L380.381 138.983L382.095 138.88L384.333 138.738L385.973 138.628L387.579 138.512L389.151 138.392L390.178 138.307L391.189 138.22L392.182 138.129L393.158 138.034L394.117 137.935L395.057 137.832C395.212 137.814 395.367 137.797 395.52 137.779L396.433 137.668L397.326 137.552C397.473 137.533 397.62 137.513 397.766 137.493L398.629 137.369C407.88 135.994 413.6 133.582 413.6 128.445C413.6 125.924 412.544 123.525 409.854 120.919L409.486 120.57C408.666 119.811 407.709 119.034 406.598 118.231L406.075 117.858C405.63 117.545 405.162 117.229 404.67 116.908L404.069 116.521C403.762 116.326 403.447 116.129 403.123 115.931C412.986 135.867 340.589 128.569 307.265 113.621C306.142 113.117 305.01 112.611 303.871 112.104L300.432 110.575C299.279 110.063 298.119 109.551 296.953 109.037L293.437 107.491L289.891 105.941C289.298 105.682 288.704 105.423 288.108 105.164L284.526 103.61C283.927 103.351 283.328 103.092 282.727 102.833L279.119 101.279L273.478 98.8655L268.352 96.6882L264.086 94.8877L260.683 93.4588L257.293 92.0421L253.08 90.2909L247.243 87.8821L242.313 85.8635L238.265 84.2184L233.495 82.2937L229.601 80.735L225.79 79.221L222.806 78.0442L218.449 76.3406L215.629 75.2483L212.207 73.9351L209.557 72.9281L206.99 71.962L205.121 71.2651L203.903 70.8142C202.035 70.125 200.124 69.4344 198.186 68.7406L190.84 66.1218L188.496 65.2821L186.455 64.5454L184.424 63.8042L183.077 63.3076L181.738 62.8086C181.515 62.7253 181.293 62.6419 181.071 62.5583L179.746 62.0559C179.526 61.9719 179.307 61.8879 179.088 61.8037L177.78 61.2975C177.563 61.2129 177.346 61.1282 177.131 61.0434L175.843 60.5331L174.571 60.02L173.315 59.5039C157.524 52.9479 146.104 45.6555 151.944 36.6035C155.693 30.7936 162.637 25.8817 172.775 21.868Z" fill="#FADDBC"/>
<path d="M311.953 96.2888L256.836 69.9585L455.037 3.4795C464.582 0.277786 474.726 -0.732431 484.716 0.523873L487.488 0.872442L311.953 96.2888Z" fill="#F6BB74"/>
<path fill-rule="evenodd" clip-rule="evenodd" d="M429.273 32.5156L324.024 69.4705L409.492 42.4019L321.078 75.2813L324.024 50.0849L269.094 75.8126L311.953 96.2877L429.273 32.5156Z" fill="#F4A950"/>
<path fill-rule="evenodd" clip-rule="evenodd" d="M428.102 37.408L418.625 32.1661C416.86 31.1894 414.64 31.7383 413.533 33.4252C412.543 34.9331 412.963 36.9576 414.471 37.9472C414.554 38.0015 414.639 38.052 414.726 38.0986L423.865 42.9711C425.631 43.9125 427.819 43.436 429.033 41.8456C430.036 40.531 429.784 38.6517 428.47 37.6482C428.353 37.5592 428.23 37.479 428.102 37.408Z" fill="#FFF4E8"/>
<path fill-rule="evenodd" clip-rule="evenodd" d="M394.604 54.1619L385.128 48.92C383.362 47.9433 381.142 48.4922 380.035 50.1791C379.045 51.687 379.465 53.7115 380.973 54.7011C381.056 54.7554 381.141 54.8059 381.229 54.8525L390.368 59.725C392.133 60.6664 394.321 60.1899 395.535 58.5995C396.538 57.2849 396.286 55.4057 394.972 54.4021C394.855 54.3131 394.732 54.2329 394.604 54.1619Z" fill="#FFF4E8"/>
<path fill-rule="evenodd" clip-rule="evenodd" d="M365.796 69.575L356.319 64.3331C354.553 63.3564 352.333 63.9053 351.226 65.5922C350.237 67.1 350.657 69.1246 352.165 70.1141C352.247 70.1685 352.333 70.219 352.42 70.2656L361.559 75.1381C363.325 76.0795 365.512 75.603 366.726 74.0126C367.73 72.698 367.478 70.8187 366.163 69.8152C366.047 69.7262 365.924 69.646 365.796 69.575Z" fill="#FFF4E8"/>
<path d="M471.177 0.199219C465.941 0.604583 460.756 1.62544 455.731 3.25093L455.047 3.47634L256.836 69.9589L272.528 77.4548L471.177 0.199219Z" fill="#FFF4E8"/>
<path d="M325.584 50.2673C335.357 54.8083 341.271 58.7898 343.326 62.2118C346.408 67.3448 346.079 71.5968 343.326 78.0467C340.573 84.4967 330.252 84.3794 323.748 81.61C317.244 78.8405 300.754 74.0034 298.183 64.4029C295.612 54.8024 298.651 48.1582 304.758 45.311C308.829 43.4128 315.772 45.0649 325.584 50.2673Z" fill="#FDCE97"/>
<path d="M318.188 46.7999L318.108 46.768C312.154 44.4229 307.704 43.9373 304.758 45.311C298.651 48.1582 295.612 54.8024 298.183 64.4029C299.443 69.1071 304.045 72.6677 309.176 75.4017L309.807 75.7324C310.018 75.8412 310.23 75.9487 310.442 76.0549L311.08 76.3694L311.72 76.6761L312.36 76.975L313 77.2663L313.639 77.5501L314.274 77.8266L314.906 78.0958L315.844 78.4864L316.767 78.8614L317.67 79.2214L319.124 79.789L321.522 80.7144L322.475 81.0885L322.922 81.2675L323.55 81.5263L323.748 81.61C323.881 81.6665 324.015 81.7219 324.151 81.7762L324.563 81.9356C324.91 82.0655 325.265 82.1881 325.628 82.3028L326.067 82.4367C326.14 82.4584 326.214 82.4798 326.288 82.5008L326.736 82.6231C326.811 82.6428 326.887 82.6622 326.962 82.6812L327.418 82.7913C327.8 82.8797 328.187 82.9594 328.577 83.0298L329.046 83.11L329.518 83.1811C335.196 83.9794 341.303 82.7855 343.326 78.0467C344.528 75.2295 345.269 72.8316 345.464 70.5965C323.719 81.6214 309.508 64.5771 312.634 55.1342C313.829 51.5221 315.681 48.744 318.188 46.7999Z" fill="#FFDAAF"/>
<path d="M309.206 71.3149C303.655 71.3149 299.156 65.6143 299.156 58.5823C299.156 51.5502 303.655 45.8496 309.206 45.8496C314.756 45.8496 319.255 51.5502 319.255 58.5823C319.255 65.6143 314.756 71.3149 309.206 71.3149Z" fill="white"/>
<path d="M309.259 69.3028C304.634 69.3028 300.884 64.5023 300.884 58.5806C300.884 52.6589 304.634 47.8584 309.259 47.8584C313.884 47.8584 317.633 52.6589 317.633 58.5806C317.633 64.5023 313.884 69.3028 309.259 69.3028Z" fill="#DD9B4A"/>
<path d="M141.206 29.8914L154.827 28.1772V23.3223C151.488 24.3373 149.055 25.2127 147.53 25.9484C146.004 26.6841 143.896 27.9985 141.206 29.8914Z" fill="#DD9B4A"/>
<path d="M158.219 23.0918V27.7775H163.743V23.3217L158.219 23.0918Z" fill="#DD9B4A"/>
<path d="M167.052 23.8467V27.3668L173.817 27.1241C172.338 26.0935 171.21 25.3904 170.435 25.0148C169.659 24.6391 168.532 24.2498 167.052 23.8467Z" fill="#DD9B4A"/>
<path d="M196.184 31.2512L192.266 29.5469V34.8105L196.184 36.4078V31.2512Z" fill="#DD9B4A"/>
<path d="M202.884 33.9319L198.966 32.2275V37.4912L202.884 39.0885V33.9319Z" fill="#DD9B4A"/>
<path d="M210.253 37.2825L206.335 35.5781V40.8418L210.253 42.4391V37.2825Z" fill="#DD9B4A"/>
<path d="M216.953 39.9631L213.034 38.2588V43.5224L216.953 45.1197V39.9631Z" fill="#DD9B4A"/>
<path d="M224.323 43.3127L220.404 41.6084V46.872L224.323 48.4693V43.3127Z" fill="#DD9B4A"/>
<path d="M231.022 45.9944L227.103 44.29V49.5537L231.022 51.151V45.9944Z" fill="#DD9B4A"/>
<path d="M237.722 49.344L233.803 47.6396V52.9033L237.722 54.5006V49.344Z" fill="#DD9B4A"/>
<path d="M244.421 52.0256L240.502 50.3213V55.5849L244.421 57.1822V52.0256Z" fill="#DD9B4A"/>
<path d="M251.791 55.3772L247.872 53.6729V58.9365L251.791 60.5338V55.3772Z" fill="#DD9B4A"/>
<path d="M259.16 58.0578L255.242 56.3535V61.6172L259.16 63.2145V58.0578Z" fill="#DD9B4A"/>
<path d="M266.53 61.4075L262.612 59.7031V64.9668L266.53 66.5641V61.4075Z" fill="#DD9B4A"/>
<path d="M335.535 91.5637L331.617 89.8594V95.123L335.535 96.7203V91.5637Z" fill="#DD9B4A"/>
<path d="M342.235 94.9143L338.316 93.21V98.4736L342.235 100.071V94.9143Z" fill="#DD9B4A"/>
<path d="M348.934 97.594L345.016 95.8896V101.153L348.934 102.751V97.594Z" fill="#DD9B4A"/>
<path d="M355.635 100.276L351.716 98.5713V103.835L355.635 105.432V100.276Z" fill="#DD9B4A"/>
<path d="M362.334 102.956L358.415 101.252V106.516L362.334 108.113V102.956Z" fill="#DD9B4A"/>
<path d="M269.094 62.6689V67.3166L272.546 66.2528V64.4036L269.094 62.6689Z" fill="#DD9B4A"/>
<path fill-rule="evenodd" clip-rule="evenodd" d="M240.789 325.283L242.34 381.068C244.55 382.401 247.028 382.401 249.776 381.068L258.134 327.82L240.789 325.283Z" fill="#21998C"/>
<path fill-rule="evenodd" clip-rule="evenodd" d="M240.789 325.283L250.859 326.756L246.134 379.36L250.044 379.36L249.776 381.068C247.105 382.364 244.688 382.4 242.524 381.176L242.34 381.068L240.789 325.283Z" fill="#148276"/>
<path fill-rule="evenodd" clip-rule="evenodd" d="M332.533 333.575L341.833 388.601C344.207 389.614 346.662 389.269 349.197 387.566L350.063 333.673L332.533 333.575Z" fill="#21998C"/>
<path fill-rule="evenodd" clip-rule="evenodd" d="M332.533 333.575L342.71 333.632L345.353 386.382L349.225 385.838L349.197 387.566C346.732 389.222 344.344 389.594 342.031 388.682L341.833 388.601L332.533 333.575Z" fill="#148276"/>
<path fill-rule="evenodd" clip-rule="evenodd" d="M380.423 304.31L394.73 352.332C396.953 352.976 399.099 352.401 401.167 350.607L396.028 302.486L380.423 304.31Z" fill="#21998C"/>
<path fill-rule="evenodd" clip-rule="evenodd" d="M380.423 304.31L389.482 303.251L397.618 349.971L401.002 349.064L401.167 350.607C399.156 352.351 397.072 352.943 394.915 352.383L394.73 352.332L380.423 304.31Z" fill="#148276"/>
<path fill-rule="evenodd" clip-rule="evenodd" d="M301.561 294.062L306.442 343.932C308.501 344.989 310.717 344.834 313.09 343.468L317.227 295.25L301.561 294.062Z" fill="#21998C"/>
<path fill-rule="evenodd" clip-rule="evenodd" d="M301.561 294.062L310.656 294.752L309.727 342.166L313.223 341.921L313.09 343.468C310.783 344.796 308.624 344.98 306.614 344.018L306.442 343.932L301.561 294.062Z" fill="#148276"/>
<path fill-rule="evenodd" clip-rule="evenodd" d="M278.561 255.46L300.997 202.876C323.062 189.506 348.323 184.341 376.781 187.379C419.468 191.936 422.801 203.995 422.801 223.139C422.801 242.283 423.166 290.115 407.412 306.652C400.543 313.862 390.258 319.595 381.45 324.908C370.055 331.78 360.194 337.409 353.645 338.997C342.034 341.813 266.492 336.181 250.994 333.146C235.495 330.111 225.422 329.483 215.649 302.685C205.877 275.886 199.378 238.986 215.649 237.17C226.497 235.958 247.468 242.055 278.561 255.46Z" fill="#33B9AB"/>
<path fill-rule="evenodd" clip-rule="evenodd" d="M422.8 222.685V227.477L422.793 230.239L422.784 231.697L422.765 233.972L422.733 236.345L422.705 237.977C422.7 238.253 422.695 238.529 422.689 238.808L422.65 240.494C422.636 241.062 422.62 241.636 422.604 242.214L422.548 243.965C422.539 244.259 422.528 244.554 422.517 244.851L422.448 246.642C422.436 246.943 422.423 247.245 422.41 247.547L422.324 249.373C421.28 270.496 417.956 295.583 407.412 306.651C403.207 311.065 397.721 314.926 392.077 318.476L390.947 319.181C390.758 319.298 390.569 319.415 390.38 319.531L389.247 320.226L388.115 320.913L386.423 321.93L382.535 324.254L379.162 326.282L377.363 327.354L375.596 328.399L373.861 329.413L373.006 329.907L372.16 330.393L370.908 331.106C370.77 331.184 370.632 331.261 370.495 331.339L369.676 331.797L368.867 332.245L368.067 332.684L367.278 333.111C367.147 333.182 367.017 333.251 366.887 333.321L366.113 333.732L365.35 334.132L364.597 334.52L363.855 334.895C363.732 334.957 363.61 335.018 363.488 335.079L362.763 335.436L362.05 335.78L361.348 336.111C361 336.273 360.656 336.43 360.317 336.582L359.646 336.878C357.427 337.843 355.415 338.567 353.645 338.996C349.581 339.982 337.686 339.932 323.274 339.322L320.78 339.212C319.102 339.135 317.395 339.051 315.668 338.961L313.061 338.821L310.429 338.672L307.778 338.515L305.113 338.35C304.223 338.294 303.332 338.236 302.44 338.178L299.766 337.999L297.096 337.814C296.652 337.782 296.208 337.751 295.764 337.719L293.112 337.525L290.478 337.327C290.041 337.293 289.605 337.26 289.171 337.226L286.577 337.021L284.018 336.813L281.498 336.601L279.024 336.387L276.603 336.172C275.805 336.099 275.016 336.027 274.239 335.954L271.939 335.736C270.805 335.627 269.698 335.517 268.621 335.408L266.506 335.19C266.161 335.153 265.819 335.117 265.48 335.081L263.495 334.864C258.322 334.288 254.147 333.731 251.477 333.237L246.937 332.363L246.069 332.193L245.213 332.021L244.368 331.846L243.535 331.666C232.079 329.14 223.76 324.926 215.649 302.684C211.47 291.222 207.889 277.913 206.432 266.291C209.309 274.831 212.675 281.587 216.529 286.561C223.513 295.572 230.998 303.038 238.984 308.958L239.556 309.379L328.732 317.699C334.699 318.254 340.485 315.463 343.763 310.445C347.242 305.123 349.734 300.817 351.241 297.529L351.709 296.495C352.479 294.775 353.2 293.064 353.877 291.378L354.278 290.37C354.411 290.034 354.541 289.7 354.67 289.367L355.051 288.372C355.113 288.207 355.176 288.042 355.238 287.878L355.604 286.895C355.665 286.732 355.725 286.569 355.784 286.407L356.137 285.438C356.195 285.277 356.253 285.117 356.31 284.957L356.65 284.003L357.143 282.592L357.462 281.667L357.773 280.754L358.373 278.969L359.356 275.99L360.51 272.471L360.872 271.386L361.116 270.658L361.479 269.564L361.821 268.518L362.543 266.255L363.357 263.673L363.692 262.629L363.936 261.883L364.177 261.166L364.337 260.703L364.578 260.03L364.74 259.594L364.903 259.168L365.07 258.751C365.097 258.682 365.126 258.614 365.154 258.545L365.325 258.141C365.354 258.074 365.382 258.007 365.412 257.941L365.589 257.547L365.771 257.159C365.802 257.095 365.833 257.031 365.865 256.967L366.056 256.587L366.254 256.212C366.354 256.026 366.458 255.841 366.564 255.657L366.782 255.29C366.818 255.23 366.856 255.169 366.894 255.108L367.124 254.745C367.282 254.503 367.445 254.262 367.617 254.021L367.879 253.66L368.154 253.297C368.808 252.451 369.565 251.592 370.46 250.684L370.852 250.292C371.053 250.094 371.26 249.893 371.474 249.69C373.116 248.131 375.465 247.014 378.295 246.001L378.983 245.76C379.216 245.68 379.451 245.6 379.69 245.521L380.413 245.285L381.152 245.049L381.907 244.814L385.894 243.597L386.729 243.339L387.574 243.074L388.429 242.8L389.294 242.516L390.168 242.222C396.75 239.976 404.006 236.757 410.613 230.599C418.208 223.519 420.821 214.308 419.743 205.079C422.075 209.597 422.679 214.875 422.783 220.9L422.794 221.787L422.8 222.685Z" fill="#86D5CD"/>
<path fill-rule="evenodd" clip-rule="evenodd" d="M376.781 187.379L377.381 187.444L378.565 187.577C378.761 187.599 378.956 187.622 379.15 187.644L380.303 187.783L381.436 187.926C381.623 187.95 381.81 187.974 381.995 187.998L383.098 188.147C383.28 188.172 383.461 188.197 383.642 188.223L384.715 188.377C384.892 188.403 385.068 188.429 385.244 188.456L386.287 188.616L387.311 188.781L388.316 188.949L389.302 189.122L390.269 189.298L391.218 189.478L392.148 189.662C392.455 189.724 392.759 189.787 393.059 189.851L393.953 190.043C394.1 190.075 394.247 190.108 394.393 190.14L395.26 190.338L396.109 190.54L396.94 190.746C397.078 190.781 397.214 190.816 397.35 190.851L398.155 191.063L398.944 191.279C399.854 191.533 400.73 191.795 401.573 192.065L402.287 192.298C403.111 192.573 403.902 192.856 404.662 193.147L405.305 193.398C408.06 194.495 410.386 195.702 412.349 197.019L412.795 197.325C413.455 197.787 414.073 198.262 414.65 198.75C415.655 207.7 412.236 215.83 404.395 223.139C397.789 229.297 390.532 232.516 383.95 234.762L383.077 235.056L382.212 235.339L381.356 235.613L380.511 235.879L379.263 236.264L376.073 237.235L374.935 237.589L374.195 237.824L373.472 238.061C373.234 238.14 372.998 238.219 372.766 238.299L372.077 238.54C369.247 239.553 366.898 240.671 365.256 242.229C365.114 242.365 364.974 242.499 364.837 242.632L364.436 243.028C363.455 244.009 362.637 244.93 361.936 245.837L361.661 246.199L361.399 246.561C361.228 246.802 361.064 247.042 360.907 247.284L360.676 247.648C360.638 247.708 360.601 247.769 360.564 247.83L360.347 248.196C360.24 248.38 360.137 248.565 360.036 248.752L359.838 249.127L359.647 249.507C359.616 249.57 359.584 249.634 359.554 249.698L359.371 250.086L359.194 250.48C359.165 250.547 359.136 250.613 359.107 250.68L358.936 251.085L358.768 251.498L358.604 251.919L358.441 252.35L358.28 252.791L358.12 253.242L357.96 253.705L357.718 254.422L357.392 255.424L355.924 260.058L355.603 261.057L355.262 262.103L354.898 263.198L354.536 264.28L353.933 266.117L352.385 270.906L351.97 272.178L351.541 273.476L351.097 274.798L350.792 275.692L350.479 276.596L350.159 277.509L349.831 278.431L349.493 279.361L349.147 280.298L348.792 281.242L348.428 282.193C348.366 282.352 348.304 282.511 348.241 282.671L347.862 283.63C347.669 284.111 347.473 284.594 347.272 285.079L346.865 286.051L346.448 287.027L346.018 288.006C344.364 291.729 341.645 297.06 337.859 303.999C335.736 307.889 331.519 310.16 327.104 309.792L242.032 302.685C216.392 285.125 205.02 265.293 207.914 243.186C209.492 239.753 211.997 237.577 215.65 237.17C222.158 236.443 232.311 238.347 246.108 242.882L247.5 243.344C247.968 243.501 248.44 243.661 248.916 243.824L250.357 244.322L251.821 244.837C252.067 244.924 252.315 245.012 252.563 245.101L254.064 245.642C254.316 245.733 254.569 245.826 254.824 245.919L256.361 246.486C256.878 246.679 257.399 246.874 257.923 247.072L259.51 247.674C260.042 247.878 260.579 248.085 261.12 248.294L262.755 248.932C263.029 249.04 263.305 249.148 263.581 249.257L265.253 249.921L266.948 250.603L268.668 251.302C268.957 251.42 269.246 251.539 269.537 251.658L271.293 252.383L273.074 253.126C273.373 253.252 273.673 253.378 273.973 253.504L275.79 254.274L277.632 255.06C277.941 255.193 278.251 255.326 278.562 255.46L300.998 202.876C323.062 189.506 348.324 184.341 376.781 187.379Z" fill="#21998C"/>
<path fill-rule="evenodd" clip-rule="evenodd" d="M268.496 208.304L282.699 183.643C284.968 179.705 288.109 176.339 291.881 173.804C295.666 171.26 299.915 169.488 304.386 168.589L317.652 165.921H326.175L343.095 167.214C348.283 167.611 353.305 169.22 357.757 171.913C362.147 174.568 365.538 178.6 367.402 183.38L384.141 226.323C385.987 231.057 385.759 236.348 383.514 240.906C381.297 245.407 377.084 248.596 372.15 249.507L369.605 249.976L357.168 219.135L363.124 256.802C329.189 263.023 308.48 262.422 300.997 254.998L293.429 213.879L280.461 234.654L268.496 208.304Z" fill="#F4A950"/>
<path fill-rule="evenodd" clip-rule="evenodd" d="M350.853 203.188L357.202 219.352L363.124 256.804L361.103 257.169C328.366 262.998 308.33 262.274 300.997 254.999L297.498 235.983L302.852 236.682C313.95 238.13 325.233 236.556 335.51 232.126L335.847 231.981C345.497 227.822 351.558 218.117 351.063 207.621L350.853 203.188Z" fill="#EFA348"/>
<path fill-rule="evenodd" clip-rule="evenodd" d="M302.789 137.051C297.064 133.015 295.488 128.236 298.061 122.713C301.921 114.43 317.715 115.553 324.478 122.252C329.139 121.567 332.164 122.86 333.553 126.131C334.942 129.403 334.156 135.854 331.195 145.485L324.32 150.129L302.789 137.051Z" fill="#222323"/>
<path fill-rule="evenodd" clip-rule="evenodd" d="M327.425 145.116C326.867 145.125 326.407 144.681 326.397 144.123L326.329 140.256C324.716 138.952 323.931 137.235 323.974 135.104C324.014 133.137 323.105 131.271 321.531 130.091L321.212 129.851C310.593 133.589 303.86 133.988 301.012 131.047L302.019 152.523C302.141 155.13 303.146 157.618 304.869 159.579C306.558 161.5 309.005 162.581 311.562 162.536L312.244 162.525L312.446 170.189C312.568 174.779 316.387 178.401 320.977 178.28C321.138 178.275 321.3 178.266 321.46 178.253C326.321 177.84 329.94 173.585 329.567 168.721L328.183 150.666C332.016 148.807 333.909 146.53 333.862 143.836C333.815 141.142 331.984 140.279 328.369 141.249L328.418 144.088C328.428 144.646 327.983 145.106 327.425 145.116Z" fill="#FFBCAD"/>
<path d="M303.606 146.762C305.875 146.722 307.683 144.85 307.644 142.581C307.604 140.312 305.732 138.505 303.462 138.544C301.193 138.584 299.385 140.456 299.425 142.725C299.464 144.994 301.336 146.801 303.606 146.762Z" stroke="#222323" stroke-width="1.43"/>
<path d="M308.482 142.804C308.932 144.374 308.276 145.724 306.514 146.855C303.872 148.552 305.541 150.282 309.118 149.39" stroke="#EB957D"/>
<path d="M313.624 146.587C315.894 146.547 317.701 144.676 317.662 142.407C317.622 140.137 315.75 138.33 313.481 138.37C311.211 138.409 309.403 140.281 309.443 142.55C309.482 144.819 311.354 146.626 313.624 146.587Z" stroke="#222323" stroke-width="1.43"/>
<path d="M307.609 142.581L309.347 142.551" stroke="#222323" stroke-width="1.43"/>
<path d="M317.781 142.404L326.903 139.179" stroke="#222323" stroke-width="1.43"/>
<path d="M299.945 137.198C301.969 136.065 304.492 136.021 307.513 137.066" stroke="#222323" stroke-width="3.146"/>
<path d="M310.681 137.055C313.207 136.106 315.655 136.369 318.027 137.846" stroke="#222323" stroke-width="3.146"/>
<path d="M303.839 144.17C304.342 144.161 304.739 143.543 304.726 142.788C304.713 142.034 304.294 141.429 303.791 141.438C303.288 141.447 302.891 142.066 302.904 142.82C302.917 143.574 303.336 144.179 303.839 144.17Z" fill="#222323"/>
<path d="M312.947 144.01C313.45 144.001 313.847 143.382 313.834 142.628C313.821 141.874 313.402 141.269 312.899 141.278C312.396 141.287 311.999 141.905 312.012 142.66C312.025 143.414 312.444 144.019 312.947 144.01Z" fill="#222323"/>
<path fill-rule="evenodd" clip-rule="evenodd" d="M305.486 152.459L313.181 151.977C312.625 154.167 311.46 155.362 309.684 155.562C307.909 155.761 306.509 154.727 305.486 152.459Z" fill="white"/>
<path opacity="0.4" fill-rule="evenodd" clip-rule="evenodd" d="M322.903 156.453L312.55 171.656C312.466 171.26 312.411 170.853 312.388 170.437L312.376 170.123L312.244 162.523C316.387 161.771 319.94 159.747 322.903 156.453Z" fill="#CC5D37"/>
<path d="M329.267 142.404C330.684 142.021 331.68 142.237 332.253 143.052C332.826 143.867 332.61 144.955 331.603 146.314" stroke="#EB957D"/>
<path d="M329.265 142.183L329.265 144.184" stroke="#EB957D"/>
<path fill-rule="evenodd" clip-rule="evenodd" d="M323.984 243.349C321.682 244.254 319.212 244.555 316.574 244.254C312.616 243.801 309.549 242.229 305.15 242.229C300.751 242.229 298.003 243.81 297.187 247.213C296.643 249.482 300.114 251.474 307.601 253.19L316.574 255.947L325.26 253.826L323.984 243.349Z" fill="#FFBCAD"/>
<path d="M350.854 203.188L358.69 223.139" stroke="#D18E3E"/>
<path fill-rule="evenodd" clip-rule="evenodd" d="M368.861 229.106L321.996 241.911C321.364 246.483 322.323 251 324.874 255.462L370.737 249.778L368.861 229.106Z" fill="#F4A950"/>
<path fill-rule="evenodd" clip-rule="evenodd" d="M283.938 238.733L270.984 191.937H200.127L213.195 238.733H283.938Z" fill="#A5ADC5"/>
<path fill-rule="evenodd" clip-rule="evenodd" d="M282.694 238.733L269.74 191.937H198.883L211.951 238.733H282.694Z" fill="#DCE5FF"/>
<path d="M242.064 221.091C244.239 220.589 245.501 218.012 244.883 215.335C244.265 212.658 242.001 210.895 239.826 211.397C237.651 211.9 236.389 214.477 237.007 217.154C237.625 219.83 239.889 221.593 242.064 221.091Z" fill="white"/>
<path fill-rule="evenodd" clip-rule="evenodd" d="M213.257 242.23L242.032 258.198H317.733V254.778L283.938 238.733H215.746L213.257 242.23Z" fill="#A5ADC5"/>
<path fill-rule="evenodd" clip-rule="evenodd" d="M282.694 240.479L283.938 242.281L317.723 258.195L242.032 258.196L213.257 242.228L213.556 241.808L224.232 240.479H282.694Z" fill="#B4BACE"/>
<path fill-rule="evenodd" clip-rule="evenodd" d="M213.257 238.733V242.23H283.938V238.733H213.257Z" fill="#A5ADC5"/>
<path d="M270.496 192.247H198.855L211.951 238.733H224.353" stroke="#A5ADC5"/>
<path d="M291.153 199.899L294.366 219.086" stroke="#D18E3E"/>
<path fill-rule="evenodd" clip-rule="evenodd" d="M231.921 279.805C282.534 306.992 318.908 314.781 341.043 303.171L263.388 263.574L231.921 279.805Z" fill="black"/>
<path fill-rule="evenodd" clip-rule="evenodd" d="M193.58 330.134L175.481 319.464L161.032 338.856L156.614 344.473L178.773 351.673L180.224 347.266L193.58 330.134Z" fill="#FFBCAD"/>
<path fill-rule="evenodd" clip-rule="evenodd" d="M161.442 338.156C148.975 346.055 139.831 350.181 134.013 350.534C128.194 350.888 124.841 353.204 123.953 357.482C130.66 362.225 137.67 364.978 144.982 365.74C155.95 366.883 162.343 364.036 165.044 363.792L165.145 366.838L176.441 367.496L180.37 347.026C176.479 349.763 172.784 349.183 169.286 345.288C165.788 341.393 163.173 339.015 161.442 338.156Z" fill="black"/>
<path fill-rule="evenodd" clip-rule="evenodd" d="M273.127 315.406L282.467 320.586L292.587 306.653L280.386 302.686L273.127 315.406Z" fill="#FFBCAD"/>
<path fill-rule="evenodd" clip-rule="evenodd" d="M282.467 320.586C282.798 317.4 283.764 314.577 285.365 312.12C286.966 309.662 289.373 307.84 292.587 306.653C298.415 309.692 304.914 312.014 312.086 313.62C322.843 316.029 329.06 318.514 329.06 324.882C329.06 331.25 317.053 336.388 308.195 333.808C299.337 331.228 294.724 326.743 291.349 324.882C289.098 323.641 286.138 322.209 282.467 320.586Z" fill="black"/>
<path fill-rule="evenodd" clip-rule="evenodd" d="M252.298 253.827H198.146C193.042 253.827 188.015 255.068 183.497 257.442C179.325 259.635 176.861 264.104 177.233 268.803L177.34 270.149C177.782 275.733 181.304 280.603 186.469 282.771L273.466 319.296C280.448 313.912 283.938 307.111 283.938 298.891L234.225 270.897L252.298 253.827Z" fill="black"/>
<path d="M211.655 293.346L273.465 319.296C280.447 313.913 283.938 307.111 283.938 298.891L234.225 270.897" stroke="#545454"/>
<path fill-rule="evenodd" clip-rule="evenodd" d="M310.378 259.643L249.534 241.421C243.379 239.577 236.872 239.235 230.557 240.422C224.416 241.577 219.01 245.18 215.581 250.404L164.334 328.472C168.27 337.442 176.171 342.549 188.037 343.791L239.926 276.202L304.785 301.305C314.054 304.892 324.075 306.097 333.931 304.809L334.549 304.729C343.709 303.532 351.918 298.472 357.104 290.827C362.357 283.081 364.604 273.684 363.422 264.4L362.455 256.811C349.122 259.279 339.119 260.694 332.447 261.057C325.774 261.42 318.418 260.948 310.378 259.643Z" fill="#24245D"/>
<path d="M305.15 258.198L345.371 268.951" stroke="black"/>
<path d="M321.807 242.229L361.996 230.905C365.071 230.59 367.984 230.996 370.737 232.122" stroke="#D18E3E"/>
<path opacity="0.1" d="M179.427 342.702L238.096 266.988C272.948 279.84 299.49 287.912 317.723 291.204C345.073 296.141 349.81 272.776 345.371 261.058" stroke="white"/>
<path fill-rule="evenodd" clip-rule="evenodd" d="M411.243 214.494C404.151 224.462 396.082 230.881 387.038 233.753C373.472 238.061 362.608 239.222 358.69 251.398C354.772 263.574 345.178 291.188 338.891 302.685C332.604 314.182 311.367 307.523 293.33 306.652L305.15 310.395L323.834 314.809L350.408 298.696L363.124 308.382L383.593 271.449L408.635 246.953L418.449 223.139L411.243 214.494Z" fill="#33B9AB"/>
<path fill-rule="evenodd" clip-rule="evenodd" d="M422.801 222.685V227.477L422.793 230.239L422.785 231.697L422.765 233.972L422.734 236.345L422.706 237.977C422.7 238.253 422.695 238.529 422.689 238.808L422.65 240.494C422.636 241.062 422.621 241.636 422.604 242.214L422.549 243.965C422.539 244.259 422.529 244.554 422.518 244.851L422.449 246.642C422.436 246.943 422.423 247.245 422.41 247.547L422.325 249.373C421.28 270.496 417.957 295.583 407.413 306.651C403.207 311.065 397.721 314.926 392.078 318.476L390.947 319.181C390.758 319.298 390.57 319.415 390.381 319.531L389.248 320.226L388.116 320.913L386.423 321.93L382.536 324.254L379.162 326.282L377.364 327.354L375.596 328.399L373.861 329.413L373.007 329.907L372.16 330.393L370.908 331.106C370.77 331.184 370.632 331.261 370.495 331.339L369.676 331.797L368.867 332.245L368.068 332.684L367.279 333.111C367.148 333.182 367.017 333.251 366.888 333.321L366.114 333.732L365.35 334.132L364.597 334.52L363.855 334.895C363.733 334.957 363.611 335.018 363.489 335.079L362.764 335.436L362.05 335.78L361.348 336.111C361 336.273 360.657 336.43 360.318 336.582L359.646 336.878C357.427 337.843 355.415 338.567 353.645 338.996C349.582 339.982 337.686 339.932 323.275 339.322L320.78 339.212C319.103 339.135 317.396 339.051 315.668 338.961L313.062 338.821L310.43 338.672L307.778 338.515L305.113 338.35C304.223 338.294 303.332 338.236 302.441 338.178L299.766 337.999L297.096 337.814C296.652 337.782 296.208 337.751 295.765 337.719L293.112 337.525L290.479 337.327C290.042 337.293 289.606 337.26 289.171 337.226L286.578 337.021L284.018 336.813L281.499 336.601L279.025 336.387L276.603 336.172C275.805 336.099 275.017 336.027 274.239 335.954L271.939 335.736C270.806 335.627 269.699 335.517 268.621 335.408L266.507 335.19C266.161 335.153 265.819 335.117 265.481 335.081L263.495 334.864C258.322 334.288 254.147 333.731 251.477 333.237L246.938 332.363L246.07 332.193L245.214 332.021L244.369 331.846L243.535 331.666C236.358 330.084 263.422 331.297 324.725 335.305C331.937 335.777 338.585 331.405 341.01 324.597C346.059 310.418 349.469 301.396 351.241 297.529L351.709 296.495C352.479 294.775 353.2 293.064 353.878 291.378L354.279 290.37C354.411 290.034 354.541 289.7 354.67 289.367L355.051 288.372C355.114 288.207 355.176 288.042 355.238 287.878L355.605 286.895C355.665 286.732 355.725 286.569 355.785 286.407L356.137 285.438C356.196 285.277 356.253 285.117 356.311 284.957L356.65 284.003L357.144 282.592L357.463 281.667L357.774 280.754L358.373 278.969L359.356 275.99L360.511 272.471L360.872 271.386L361.116 270.658L361.48 269.564L361.821 268.518L362.543 266.255L363.358 263.673L363.692 262.629L363.937 261.883L364.178 261.166L364.338 260.703L364.579 260.03L364.74 259.594L364.904 259.168L365.07 258.751C365.098 258.682 365.126 258.614 365.154 258.545L365.325 258.141C365.354 258.074 365.383 258.007 365.412 257.941L365.589 257.547L365.772 257.159C365.803 257.095 365.834 257.031 365.865 256.967L366.056 256.587L366.254 256.212C366.355 256.026 366.458 255.841 366.565 255.657L366.782 255.29C366.819 255.23 366.856 255.169 366.894 255.108L367.125 254.745C367.282 254.503 367.446 254.262 367.617 254.021L367.88 253.66L368.154 253.297C368.809 252.451 369.565 251.592 370.46 250.684L370.853 250.292C371.053 250.094 371.26 249.893 371.474 249.69C373.116 248.131 375.465 247.014 378.296 246.001L378.984 245.76C379.216 245.68 379.452 245.6 379.69 245.521L380.413 245.285L381.153 245.049L381.908 244.814L385.895 243.597L386.729 243.339L387.574 243.074L388.43 242.8L389.295 242.516L390.168 242.222C396.75 239.976 404.007 236.757 410.613 230.599C418.209 223.519 420.821 214.308 419.744 205.079C422.076 209.597 422.679 214.875 422.783 220.9L422.795 221.787L422.801 222.685Z" fill="#86D5CD"/>
<path fill-rule="evenodd" clip-rule="evenodd" d="M116.215 333.374L113.193 357.502C112.266 364.898 105.978 370.448 98.5236 370.448H92.7201C85.24 370.448 78.9384 364.861 78.0427 357.435L75.1862 333.751L116.215 333.374Z" fill="#DCB17E"/>
<path d="M115.04 344.901C103.074 348.288 90.3167 348.288 76.7691 344.901" stroke="white" stroke-width="1.98132"/>
<path d="M95.4668 336.012C83.2208 336.012 73.2934 334.999 73.2934 333.751C73.2934 332.502 83.2208 331.489 95.4668 331.489C107.713 331.489 117.64 332.502 117.64 333.751C117.64 334.999 107.713 336.012 95.4668 336.012Z" fill="#69471D" stroke="#24245D" stroke-width="1.98132"/>
<path fill-rule="evenodd" clip-rule="evenodd" d="M100.678 195.163C97.5612 196.367 96.2786 198.57 96.8303 201.772C97.6578 206.575 100.689 207.62 103.587 207.62C105.52 207.62 104.55 203.468 100.678 195.163Z" fill="#21998C"/>
<path fill-rule="evenodd" clip-rule="evenodd" d="M113.377 220.732C121.036 221.17 130.711 217.022 131.721 209.035C132.732 201.048 128.66 191.586 119.465 193.483C110.269 195.38 105.732 192.833 100.234 195.371C102.035 198.731 102.49 202.6 101.598 206.978C100.261 213.544 105.719 220.294 113.377 220.732Z" fill="#86D5CD"/>
<path fill-rule="evenodd" clip-rule="evenodd" d="M116.939 262.513C114.239 259.966 114.524 252.47 122.902 250.233C128.487 248.742 134.857 250.789 142.013 256.373C138.295 256.514 134.915 257.289 131.872 258.697C127.307 260.809 119.638 265.06 116.939 262.513Z" fill="#21998C"/>
<path fill-rule="evenodd" clip-rule="evenodd" d="M133.489 251.295C142.442 250.601 148.841 250.601 152.684 251.295C158.449 252.335 168.571 264.694 161.412 264.694C156.64 264.694 147.332 260.228 133.489 251.295Z" fill="#86D5CD"/>
<path fill-rule="evenodd" clip-rule="evenodd" d="M84.8749 232.524C95.1144 224.936 97.6758 218.534 92.5591 213.32C84.8841 205.499 68.3139 193.91 50.2632 198.097C54.9809 202.747 57.8327 207.066 58.8185 211.054C60.2971 217.035 71.4397 220.441 76.5883 223.981C80.0207 226.341 82.7829 229.189 84.8749 232.524Z" fill="#86D5CD"/>
<path d="M50.2634 198.098C70.2744 201.493 81.8116 212.969 84.8751 232.525C87.9385 252.081 90.5033 286.547 92.5696 335.921" stroke="#24245D" stroke-width="1.35"/>
<path d="M111.735 194.093C115.291 194.778 116.73 198.078 116.052 203.993C115.036 212.865 91.9876 292.281 98.4678 335.921" stroke="#24245D" stroke-width="1.35"/>
<path fill-rule="evenodd" clip-rule="evenodd" d="M104.553 247.297C108.578 235.12 114.137 229.032 121.231 229.032C131.872 229.032 144.14 229.944 151.424 235.442C158.708 240.94 178.794 247.297 171.154 247.297C163.514 247.297 148.366 243.036 140.73 243.036C135.639 243.036 123.58 244.456 104.553 247.297Z" fill="#86D5CD"/>
<path d="M142.013 230.613C125.028 232.572 112.541 238.133 104.553 247.297C96.5637 256.461 92.5693 286.003 92.5693 335.921" stroke="#24245D" stroke-width="1.35"/>
<path fill-rule="evenodd" clip-rule="evenodd" d="M71.4163 249.762C67.3668 241.287 58.8383 237.05 45.8307 237.05C26.3193 237.05 11.557 233.943 -0.000297546 242.358L9.80909 241.699C18.1537 241.138 26.5354 241.591 34.7711 243.047C37.3314 243.5 39.929 243.865 42.5638 244.143C51.8983 245.128 46.9274 246.995 37.9318 246.061C31.9346 245.439 37.5395 248.929 54.7463 256.532L71.4163 249.762Z" fill="#86D5CD"/>
<path fill-rule="evenodd" clip-rule="evenodd" d="M53.8873 245.85C51.6333 247.269 51.0181 252.063 51.1883 254.944L52.922 255.723L54.7463 256.533L71.4163 249.763C70.5808 248.014 69.5546 246.446 68.3377 245.058C62.6237 245.422 57.945 243.295 53.8873 245.85Z" fill="#21998C"/>
<path fill-rule="evenodd" clip-rule="evenodd" d="M-5.91278e-05 242.36L9.74614 241.705C15.8498 241.294 21.9733 241.424 28.0454 242.089L11.8358 237.396C7.54531 238.222 3.61577 239.727 -5.91278e-05 242.36Z" fill="#21998C"/>
<path d="M11.2599 237.371C19.0456 239.159 25.049 240.729 29.2703 242.083" stroke="#24245D" stroke-width="1.35"/>
<path d="M41.8509 237.371C73.8903 258.104 90.7965 290.954 92.5696 335.921" stroke="#24245D" stroke-width="1.35"/>
<path fill-rule="evenodd" clip-rule="evenodd" d="M83.3603 265.006C87.2201 264.505 91.4695 262.426 89.3402 252.849C87.2109 243.271 78.6164 244.808 70.0326 246.052C61.4489 247.296 59.636 243.498 54.9496 247.296C50.2633 251.094 52.6355 269.782 62.026 268.395C68.2862 267.471 72.9171 264.238 75.9184 258.697C78.3064 263.237 80.787 265.34 83.3603 265.006Z" fill="#21998C"/>
<path fill-rule="evenodd" clip-rule="evenodd" d="M72.8396 245.649L71.0352 245.906L70.0322 246.052C67.8473 246.369 66.101 246.359 64.6344 246.23L64.0225 246.169L63.4421 246.096L62.6244 245.975L60.9145 245.699L60.4644 245.638C58.6159 245.413 57.0794 245.57 54.9492 247.296C50.2629 251.094 52.6351 269.782 62.0255 268.395C68.2858 267.471 72.9166 264.238 75.918 258.697L76.159 258.223L76.4098 257.74L76.9087 256.805C80.2225 250.717 83.2966 247.493 86.1309 247.134C83.4139 244.964 79.4634 244.894 75.1684 245.358L74.2431 245.465L73.3092 245.585C73.1529 245.606 72.9964 245.627 72.8396 245.649Z" fill="#86D5CD"/>
<path d="M83.3064 247.997C80.533 250.924 78.0701 254.491 75.9178 258.697" stroke="#24245D" stroke-width="1.35"/>
<path d="M134.433 252.334C120.347 256.669 111.125 266.677 106.769 282.358C102.412 298.039 99.6453 315.893 98.4684 335.92" stroke="#24245D" stroke-width="1.35"/>
<path d="M79.6128 252.334C83.4895 255.633 85.8224 261.918 86.6114 271.189C87.4003 280.461 89.3864 302.038 92.5696 335.92" stroke="#24245D" stroke-width="1.35"/>
<path fill-rule="evenodd" clip-rule="evenodd" d="M99.5075 281.627C92.8564 275.804 90.9887 271.112 93.9045 267.551C98.4681 261.977 121.268 265.779 122.261 280.803C122.922 290.819 119.076 289.641 110.72 277.267C108.167 277.77 106.112 278.409 104.553 279.183C103.316 279.797 102.19 280.597 101.174 281.582C100.714 282.028 99.9903 282.047 99.5075 281.627Z" fill="#21998C"/>
<path fill-rule="evenodd" clip-rule="evenodd" d="M121.594 277.317C117.634 265.216 98.0924 262.436 93.9049 267.551C90.9899 271.111 92.8557 275.802 99.5021 281.622C99.9458 282.01 100.596 282.027 101.057 281.682L101.178 281.579C102.193 280.595 103.318 279.796 104.553 279.183C106.112 278.409 108.168 277.77 110.72 277.267L110.992 277.669C114.49 276.67 117.804 276.501 120.932 277.164L121.594 277.317Z" fill="#86D5CD"/>
<path d="M120.897 301.926C108.179 306.485 100.702 316.405 98.4679 331.686" stroke="#24245D" stroke-width="1.35"/>
<path d="M118.457 276.968C114.749 276.839 111.928 276.982 109.994 277.398" stroke="#24245D" stroke-width="1.35"/>
<path fill-rule="evenodd" clip-rule="evenodd" d="M114.225 304.859C118.47 299.042 124.786 296.582 133.175 297.479C145.758 298.824 158.809 310.188 145.992 309.783C133.175 309.377 131.786 304.475 125.641 303.668C121.544 303.13 117.739 303.527 114.225 304.859Z" fill="#86D5CD"/>
<path d="M92.5696 333.375C91.6021 326.517 89.1032 323.089 85.0726 323.089" stroke="#24245D" stroke-width="1.35"/>
<path fill-rule="evenodd" clip-rule="evenodd" d="M86.0908 322.891C83.2996 320.759 80.156 319.869 76.66 320.222C71.4161 320.751 68.0797 327.392 64.2817 327.857C68.2632 329.503 72.0373 330.025 75.604 329.422C78.0527 329.008 81.5483 326.831 86.0908 322.891Z" fill="#21998C"/>
<path fill-rule="evenodd" clip-rule="evenodd" d="M470.996 184.979C471.82 184.979 472.495 185.621 472.547 186.432L472.55 186.534L472.55 199.497L478.83 199.498L499.506 309.539C498.847 310.868 498.171 312.184 497.481 313.487C497.216 313.281 497.017 312.99 496.929 312.646L496.907 312.546L476.251 202.606L472.55 202.606L472.551 348.497C471.526 349.626 470.489 350.74 469.441 351.839L469.441 202.606L466.529 202.606L438.012 363.128C437.868 363.939 437.118 364.491 436.311 364.401L436.21 364.386C435.398 364.242 434.846 363.493 434.936 362.685L434.951 362.584L463.924 199.498L469.441 199.497L469.441 186.534C469.441 185.675 470.137 184.979 470.996 184.979Z" fill="#F8CB96"/>
<path fill-rule="evenodd" clip-rule="evenodd" d="M453.674 257.191L456.752 257.637L438.012 363.126C437.868 363.938 437.118 364.49 436.311 364.4L436.21 364.385C435.398 364.241 434.846 363.491 434.936 362.684L434.951 362.583L453.674 257.191ZM469.441 293.432H472.551L472.551 348.495C471.526 349.624 470.489 350.738 469.441 351.837L469.441 293.432ZM497.45 298.592L499.506 309.537C498.847 310.867 498.171 312.183 497.481 313.485C497.216 313.279 497.017 312.989 496.929 312.645L496.907 312.545L494.41 299.257L497.45 298.592Z" fill="#DCB17E"/>
<path opacity="0.401971" fill-rule="evenodd" clip-rule="evenodd" d="M500.356 184.256L512.941 272.033C510.461 282.68 506.996 292.985 502.716 302.685L414.821 302.684L441.636 184.98L500.356 184.256Z" fill="url(#paint0_linear_2574_9917)"/>
<path fill-rule="evenodd" clip-rule="evenodd" d="M452.532 128.102H489.46C491.317 128.102 492.892 129.468 493.154 131.306L500.781 184.869C491.099 187.943 481.171 189.481 470.996 189.481C460.821 189.481 450.893 187.943 441.212 184.869L448.839 131.306C449.101 129.468 450.675 128.102 452.532 128.102Z" fill="#F4A950"/>
<path fill-rule="evenodd" clip-rule="evenodd" d="M489.46 128.102C491.317 128.102 492.891 129.468 493.153 131.306L500.356 181.892L500.054 181.987C490.602 184.91 480.916 186.372 470.996 186.372C460.969 186.372 451.182 184.879 441.635 181.893L448.838 131.306C449.1 129.468 450.675 128.102 452.532 128.102H489.46Z" fill="#F8CB96"/>
<path opacity="0.267322" fill-rule="evenodd" clip-rule="evenodd" d="M489.459 128.101C491.317 128.101 492.891 129.468 493.153 131.306L500.356 181.892L500.053 181.987C490.825 184.841 481.373 186.302 471.697 186.369C483.928 179.276 486.532 165.122 486.254 152.051L486.231 151.201L486.202 150.353L486.164 149.51C486.151 149.23 486.136 148.95 486.12 148.672C485.492 137.624 477.173 130.767 461.164 128.101L489.459 128.101Z" fill="#F4A950"/>
<path opacity="0.3" d="M456.628 128.102L449.434 186.533M486.12 128.102L493.314 186.533M463.384 128.102L460.607 188.374M478.639 128.102L481.416 188.374M470.996 128.102V189.481" stroke="white"/>
<defs>
<linearGradient id="paint0_linear_2574_9917" x1="6101.17" y1="184.256" x2="6101.17" y2="11189.6" gradientUnits="userSpaceOnUse">
<stop stop-color="#F6BB74"/>
<stop offset="1" stop-color="white" stop-opacity="0"/>
</linearGradient>
</defs>
</svg>
