<svg width="413" height="326" viewBox="0 0 413 326" fill="none" xmlns="http://www.w3.org/2000/svg">
<path fill-rule="evenodd" clip-rule="evenodd" d="M209.676 68.7836C243.697 48.0286 279.346 44.686 308.751 55.3972C338.156 66.1084 371.571 87.1722 397.462 130.562C423.353 173.951 412.717 229.925 387.255 264.802C361.793 299.679 324.837 321.219 281.297 321.219C237.758 321.219 227.418 299.149 187.247 299.149C147.076 299.149 140.773 334.735 87.0271 323.972C33.2813 313.21 36.4076 261.767 54.564 239.561C72.7204 217.355 98.3357 211.102 124.264 195.107C150.192 179.113 156.352 171.997 163.875 162.455C171.398 152.912 175.655 89.5387 209.676 68.7836Z" fill="#F0E7E0"/>
<path fill-rule="evenodd" clip-rule="evenodd" d="M400.276 242.286L400.014 242.868C396.396 250.787 392.093 258.175 387.255 264.801C361.793 299.678 324.837 321.218 281.297 321.218C260.834 321.218 247.704 316.343 235.364 311.176L233.792 310.515L229.881 308.862L228.316 308.207C216.822 303.421 204.922 299.149 187.247 299.149C171.178 299.149 160.529 304.842 150.094 310.986L148.53 311.91L146.965 312.837C132.344 321.491 117.125 329.999 87.0271 323.972C58.6794 318.296 46.1532 301.302 43.3088 283.25C58.588 272.686 80.8867 265.856 110.207 262.76C121.874 261.528 130.959 260.717 138.254 260.147L140.756 259.956C142.376 259.835 143.902 259.726 145.344 259.627L147.447 259.485L149.431 259.357L152.204 259.186L159.302 258.767L160.679 258.682L162.001 258.596C171.944 257.932 177.657 257.046 194.844 252.41L197.152 251.783C197.548 251.675 197.95 251.565 198.357 251.454L200.875 250.76L203.543 250.02L206.367 249.231L209.357 248.392C252.339 236.301 336.408 228.308 400.276 242.286Z" fill="#F9EFE8"/>
<path d="M182.304 69.8027L101.143 132.736C105.285 134.923 110.175 135.191 114.532 133.47L214.524 93.9808L182.304 69.8027Z" fill="#F6BB74"/>
<path d="M182.304 69.8027L116.017 121.203L186.491 72.9446L182.304 69.8027Z" fill="#FFF4E8"/>
<path d="M167.063 87.0377C174.853 90.6572 179.566 93.8307 181.204 96.5582C183.661 100.65 183.399 104.039 181.204 109.18C179.01 114.321 170.784 114.227 165.6 112.02C160.416 109.812 147.272 105.957 145.222 98.3047C143.173 90.6525 145.595 85.3566 150.463 83.0872C153.708 81.5742 159.242 82.891 167.063 87.0377Z" fill="#FDCE97"/>
<path d="M161.168 84.274L161.104 84.2485C156.359 82.3794 152.812 81.9922 150.463 83.0872C145.595 85.3566 143.173 90.6525 145.223 98.3047C146.227 102.054 149.895 104.892 153.985 107.071L154.488 107.335C154.656 107.422 154.825 107.507 154.994 107.592L155.502 107.843L156.012 108.087L156.523 108.326L157.033 108.558L157.542 108.784L158.048 109.004L158.552 109.219L159.3 109.53L160.035 109.829L160.755 110.116L161.914 110.568L163.825 111.306L164.585 111.604L164.941 111.747L165.442 111.953L165.6 112.02C165.706 112.065 165.813 112.109 165.921 112.152L166.249 112.279C166.526 112.383 166.809 112.481 167.098 112.572L167.448 112.679C167.506 112.696 167.565 112.713 167.624 112.73L167.981 112.827C168.041 112.843 168.101 112.859 168.162 112.874L168.525 112.962C168.829 113.032 169.138 113.095 169.448 113.152L169.823 113.215L170.199 113.272C174.724 113.908 179.592 112.957 181.204 109.18C182.163 106.934 182.753 105.023 182.908 103.241C165.576 112.029 154.25 98.4435 156.741 90.9169C157.694 88.0378 159.169 85.8235 161.168 84.274Z" fill="#FFDAAF"/>
<path d="M154.008 103.813C149.584 103.813 145.998 99.2689 145.998 93.6639C145.998 88.0589 149.584 83.5151 154.008 83.5151C158.432 83.5151 162.018 88.0589 162.018 93.6639C162.018 99.2689 158.432 103.813 154.008 103.813Z" fill="white"/>
<path d="M154.05 102.21C150.364 102.21 147.375 98.384 147.375 93.664C147.375 88.944 150.364 85.1177 154.05 85.1177C157.737 85.1177 160.725 88.944 160.725 93.664C160.725 98.384 157.737 102.21 154.05 102.21Z" fill="#DD9B4A"/>
<path fill-rule="evenodd" clip-rule="evenodd" d="M198.686 101.392L191.132 97.2137C189.725 96.4352 187.955 96.8727 187.073 98.2173C186.284 99.4191 186.619 101.033 187.821 101.822C187.887 101.865 187.955 101.905 188.024 101.942L195.309 105.826C196.716 106.576 198.46 106.197 199.427 104.929C200.227 103.881 200.026 102.383 198.979 101.583C198.886 101.512 198.788 101.448 198.686 101.392Z" fill="#FFF4E8"/>
<path fill-rule="evenodd" clip-rule="evenodd" d="M163.441 116.348L155.888 112.17C154.481 111.392 152.711 111.829 151.829 113.174C151.04 114.376 151.375 115.989 152.577 116.778C152.643 116.821 152.711 116.862 152.78 116.899L160.065 120.783C161.472 121.533 163.216 121.153 164.183 119.885C164.983 118.838 164.782 117.34 163.734 116.54C163.642 116.469 163.544 116.405 163.441 116.348Z" fill="#FFF4E8"/>
<path fill-rule="evenodd" clip-rule="evenodd" d="M136.741 125.429L129.188 121.251C127.78 120.472 126.011 120.91 125.129 122.254C124.34 123.456 124.675 125.07 125.877 125.859C125.942 125.902 126.01 125.942 126.08 125.979L133.364 129.863C134.772 130.613 136.515 130.234 137.483 128.966C138.283 127.918 138.082 126.42 137.034 125.62C136.941 125.549 136.843 125.486 136.741 125.429Z" fill="#FFF4E8"/>
<path d="M284.757 80.0221L302.007 22.811L311.008 42.6113V95.3078L284.757 80.0221Z" fill="#F6BB74"/>
<path d="M313.06 89.3573L353.065 75.5623C359.497 73.3442 366.398 72.849 373.081 74.1261L289.542 111.823C288.893 112.116 288.25 112.421 287.614 112.74L273.651 119.724L267.23 118.767L284.757 102.501L313.06 89.3573Z" fill="#F6BB74"/>
<path d="M360.597 73.7788C358.214 74.0979 355.856 74.638 353.556 75.3971L353.064 75.5631L313.06 89.358L284.757 102.501L268.355 117.723L283.329 108.208L303.516 97.6541L360.597 73.7788Z" fill="#FFF4E8"/>
<path d="M162.62 23.3794C227.52 51.6392 270.204 69.926 290.67 78.2398C321.43 90.735 329.705 96.0783 329.705 102.379C329.705 108.679 318.915 109.837 303.685 110.752C288.454 111.667 270.514 110.593 241.017 104.666C211.519 98.7397 191.1 89.0839 152.328 71.5109C113.556 53.9379 100.433 42.1353 106.109 29.672C111.784 17.2087 131.48 17.2969 139.057 17.2969C144.051 17.2969 151.657 19.2235 161.877 23.0766C162.127 23.171 162.375 23.2716 162.62 23.3784L162.62 23.3794Z" fill="#FFF4E8"/>
<path d="M139.058 17.2969C144.054 17.2969 151.667 19.226 161.897 23.0842L161.897 23.085C162.145 23.1787 162.391 23.2785 162.634 23.3843C173.035 27.9114 180.627 31.2129 185.411 33.29" stroke="#EAEAEA" stroke-width="1.078"/>
<path d="M262.142 70.8453L259.019 69.4868V73.6823L262.142 74.9554V70.8453Z" fill="#DD9B4A"/>
<path fill-rule="evenodd" clip-rule="evenodd" d="M137.751 17.4303L138.092 17.2974L137.064 17.3014L136.235 17.3095L135.359 17.3239L134.751 17.3379L134.126 17.356L133.483 17.3788L132.825 17.4068L132.153 17.4406L131.467 17.4806L130.769 17.5275C130.652 17.5359 130.534 17.5447 130.416 17.5537L129.701 17.6118C129.462 17.6326 129.22 17.6546 128.977 17.6782L128.245 17.7532C119.779 18.668 109.868 21.4164 106.109 29.6721C100.433 42.1354 113.556 53.938 152.328 71.511L165.541 77.5025L169.642 79.3551L172.629 80.6989L174.581 81.5733L177.452 82.8533L179.331 83.6859L181.182 84.5021L183.008 85.3021L184.81 86.0861L186.589 86.8544C186.884 86.9811 187.177 87.1072 187.47 87.2326L189.217 87.9776L190.944 88.7072C191.231 88.8276 191.516 88.9473 191.801 89.0664L193.501 89.7735C209.854 96.537 223.908 101.229 241.017 104.666L241.898 104.843L243.641 105.187C243.929 105.243 244.216 105.299 244.502 105.354L246.203 105.681L247.879 105.997L249.528 106.302L251.152 106.595C251.689 106.691 252.222 106.786 252.75 106.878L254.324 107.15C254.585 107.195 254.844 107.239 255.102 107.282L256.639 107.539C256.894 107.581 257.147 107.622 257.399 107.663L258.901 107.904L260.38 108.135C260.625 108.172 260.868 108.209 261.111 108.246L262.556 108.462C262.795 108.497 263.033 108.532 263.271 108.566L264.683 108.767C264.917 108.8 265.149 108.833 265.381 108.864L266.762 109.051L268.121 109.229C269.246 109.373 270.349 109.507 271.433 109.632L272.723 109.778C273.577 109.872 274.418 109.961 275.248 110.044L276.483 110.163L277.701 110.275L278.902 110.378C279.1 110.395 279.298 110.411 279.496 110.427L280.671 110.518C280.866 110.533 281.06 110.547 281.253 110.561L282.405 110.64C282.596 110.653 282.786 110.665 282.975 110.677L284.104 110.745C284.478 110.767 284.849 110.787 285.218 110.806L286.318 110.859L287.403 110.905L288.476 110.944C288.831 110.956 289.184 110.967 289.535 110.977L290.581 111.002C291.795 111.028 292.984 111.04 294.151 111.04L295.145 111.036C295.31 111.035 295.475 111.034 295.639 111.032L296.618 111.02C297.106 111.012 297.589 111.003 298.069 110.991L299.025 110.964L299.973 110.932L300.912 110.895L301.844 110.852C301.998 110.845 302.152 110.837 302.306 110.829L303.227 110.779L304.593 110.697L306.377 110.584L307.684 110.496L308.965 110.404L310.217 110.307L311.036 110.24L311.842 110.171L312.634 110.098L313.412 110.023L314.176 109.944L314.925 109.861C315.049 109.847 315.172 109.833 315.294 109.819L316.022 109.731L316.734 109.638C316.851 109.623 316.968 109.607 317.084 109.591L317.772 109.492C325.146 108.397 329.705 106.474 329.705 102.379C329.705 100.37 328.863 98.4577 326.719 96.3802L326.426 96.1021C325.773 95.4976 325.009 94.8782 324.124 94.2376L323.707 93.9405C323.352 93.6916 322.979 93.4394 322.587 93.1836L322.108 92.8748C321.863 92.7195 321.612 92.5629 321.354 92.4048C329.215 108.295 271.51 102.478 244.948 90.5635C244.053 90.162 243.152 89.7588 242.244 89.354L239.503 88.1354C238.584 87.7279 237.659 87.3192 236.729 86.9095L233.927 85.6777L231.101 84.4419C230.628 84.2357 230.154 84.0293 229.68 83.8229L226.824 82.584C226.347 82.3775 225.869 82.171 225.391 81.9645L222.515 80.7262L218.019 78.8025L213.933 77.067L210.532 75.6318L207.82 74.4929L205.118 73.3637L201.76 71.9679L197.108 70.0479L193.178 68.439L189.952 67.1277L186.149 65.5936L183.046 64.3512L180.008 63.1444L177.63 62.2065L174.157 60.8486L171.909 59.978L169.182 58.9312L167.07 58.1286L165.023 57.3585L163.533 56.8031L162.562 56.4437C161.074 55.8944 159.55 55.3439 158.006 54.7909L152.15 52.7035L150.282 52.0342L148.655 51.447L147.036 50.8563L145.963 50.4604L144.895 50.0627C144.718 49.9963 144.541 49.9298 144.364 49.8632L143.308 49.4627C143.133 49.3958 142.958 49.3288 142.783 49.2617L141.741 48.8582C141.568 48.7908 141.395 48.7233 141.223 48.6557L140.197 48.249L139.183 47.84L138.182 47.4286C125.595 42.203 116.493 36.3905 121.148 29.1755C124.136 24.5446 129.67 20.6295 137.751 17.4303Z" fill="#FADDBC"/>
<path d="M248.685 76.7486L204.754 55.7615L362.733 2.77339C370.341 0.221414 378.427 -0.583796 386.389 0.417562L388.598 0.695394L248.685 76.7486Z" fill="#F6BB74"/>
<path fill-rule="evenodd" clip-rule="evenodd" d="M342.197 25.918L258.307 55.3735L326.43 33.798L255.959 60.005L258.307 39.9218L214.524 60.4285L248.685 76.7485L342.197 25.918Z" fill="#F4A950"/>
<path fill-rule="evenodd" clip-rule="evenodd" d="M341.264 29.8167L333.71 25.6385C332.303 24.86 330.534 25.2975 329.651 26.6421C328.862 27.8439 329.197 29.4576 330.399 30.2464C330.465 30.2897 330.533 30.33 330.603 30.3671L337.887 34.2508C339.294 35.0011 341.038 34.6213 342.006 33.3537C342.806 32.3059 342.605 30.808 341.557 30.0081C341.464 29.9372 341.366 29.8732 341.264 29.8167Z" fill="#FFF4E8"/>
<path fill-rule="evenodd" clip-rule="evenodd" d="M314.564 43.1707L307.011 38.9925C305.603 38.214 303.834 38.6515 302.951 39.9961C302.163 41.1979 302.497 42.8116 303.699 43.6004C303.765 43.6437 303.833 43.684 303.903 43.7211L311.187 47.6048C312.594 48.3551 314.338 47.9753 315.306 46.7077C316.106 45.6599 315.905 44.162 314.857 43.3621C314.764 43.2912 314.666 43.2272 314.564 43.1707Z" fill="#FFF4E8"/>
<path fill-rule="evenodd" clip-rule="evenodd" d="M291.602 55.4558L284.048 51.2777C282.641 50.4992 280.872 50.9367 279.989 52.2813C279.2 53.4831 279.535 55.0968 280.737 55.8855C280.803 55.9288 280.871 55.9691 280.941 56.0063L288.225 59.89C289.632 60.6403 291.376 60.2605 292.344 58.9928C293.144 57.945 292.943 56.4471 291.895 55.6472C291.802 55.5763 291.704 55.5124 291.602 55.4558Z" fill="#FFF4E8"/>
<path d="M375.597 0.158691C371.424 0.481793 367.292 1.29548 363.286 2.59111L362.741 2.77077L204.754 55.7618L217.261 61.7365L375.597 0.158691Z" fill="#FFF4E8"/>
<path d="M259.551 40.066C267.34 43.6855 272.054 46.859 273.692 49.5866C276.149 53.6779 275.886 57.067 273.692 62.2081C271.498 67.3491 263.271 67.2556 258.087 65.0482C252.903 62.8407 239.76 58.9853 237.71 51.333C235.661 43.6808 238.083 38.3849 242.951 36.1155C246.196 34.6025 251.729 35.9193 259.551 40.066Z" fill="#FDCE97"/>
<path d="M253.655 37.3023L253.591 37.2768C248.846 35.4077 245.299 35.0206 242.951 36.1155C238.083 38.3849 235.66 43.6808 237.71 51.333C238.714 55.0826 242.382 57.9206 246.472 60.0998L246.975 60.3634C247.143 60.4501 247.312 60.5358 247.481 60.6204L247.989 60.8711L248.499 61.1156L249.01 61.3538L249.52 61.586L250.029 61.8122L250.536 62.0326L251.039 62.2472L251.787 62.5585L252.522 62.8574L253.243 63.1443L254.401 63.5967L256.312 64.3344L257.072 64.6326L257.428 64.7752L257.929 64.9815L258.087 65.0482C258.193 65.0932 258.3 65.1374 258.408 65.1807L258.736 65.3077C259.013 65.4113 259.296 65.509 259.585 65.6004L259.935 65.7072C259.994 65.7245 260.053 65.7415 260.112 65.7583L260.469 65.8557C260.529 65.8714 260.589 65.8869 260.649 65.902L261.012 65.9898C261.317 66.0602 261.625 66.1237 261.936 66.1799L262.31 66.2438L262.686 66.3005C267.211 66.9368 272.079 65.9852 273.692 62.2081C274.65 59.9625 275.24 58.0513 275.396 56.2697C258.063 65.0573 246.737 51.4718 249.228 43.9452C250.181 41.0662 251.657 38.8518 253.655 37.3023Z" fill="#FFDAAF"/>
<path d="M246.496 56.8415C242.072 56.8415 238.486 52.2977 238.486 46.6927C238.486 41.0877 242.072 36.5439 246.496 36.5439C250.919 36.5439 254.506 41.0877 254.506 46.6927C254.506 52.2977 250.919 56.8415 246.496 56.8415Z" fill="white"/>
<path d="M246.538 55.2386C242.852 55.2386 239.863 51.4123 239.863 46.6923C239.863 41.9723 242.852 38.146 246.538 38.146C250.225 38.146 253.213 41.9723 253.213 46.6923C253.213 51.4123 250.225 55.2386 246.538 55.2386Z" fill="#DD9B4A"/>
<path d="M112.588 23.8249L123.446 22.4585V18.5889C120.784 19.3979 118.845 20.0956 117.629 20.6821C116.413 21.2685 114.733 22.3161 112.588 23.8249Z" fill="#DD9B4A"/>
<path d="M126.149 18.4053V22.1401H130.552V18.5885L126.149 18.4053Z" fill="#DD9B4A"/>
<path d="M133.19 19.0073V21.8131L138.583 21.6196C137.403 20.7982 136.504 20.2378 135.886 19.9384C135.268 19.639 134.369 19.3286 133.19 19.0073Z" fill="#DD9B4A"/>
<path d="M156.41 24.9092L153.287 23.5508V27.7463L156.41 29.0194V24.9092Z" fill="#DD9B4A"/>
<path d="M161.75 27.046L158.627 25.6875V29.883L161.75 31.1561V27.046Z" fill="#DD9B4A"/>
<path d="M167.624 29.7169L164.501 28.3584V32.5539L167.624 33.827V29.7169Z" fill="#DD9B4A"/>
<path d="M172.964 31.8526L169.841 30.4941V34.6896L172.964 35.9628V31.8526Z" fill="#DD9B4A"/>
<path d="M178.838 34.5235L175.715 33.165V37.3605L178.838 38.6337V34.5235Z" fill="#DD9B4A"/>
<path d="M184.178 36.6602L181.055 35.3018V39.4972L184.178 40.7704V36.6602Z" fill="#DD9B4A"/>
<path d="M189.518 39.3306L186.395 37.9722V42.1676L189.518 43.4408V39.3306Z" fill="#DD9B4A"/>
<path d="M194.858 41.4678L191.735 40.1094V44.3049L194.858 45.578V41.4678Z" fill="#DD9B4A"/>
<path d="M200.732 44.1382L197.609 42.7798V46.9753L200.732 48.2484V44.1382Z" fill="#DD9B4A"/>
<path d="M206.606 46.2755L203.483 44.917V49.1125L206.606 50.3856V46.2755Z" fill="#DD9B4A"/>
<path d="M212.48 48.9454L209.357 47.5869V51.7824L212.48 53.0555V48.9454Z" fill="#DD9B4A"/>
<path d="M267.482 72.9825L264.359 71.624V75.8195L267.482 77.0926V72.9825Z" fill="#DD9B4A"/>
<path d="M272.822 75.6529L269.699 74.2944V78.4899L272.822 79.7631V75.6529Z" fill="#DD9B4A"/>
<path d="M278.162 77.7896L275.039 76.4312V80.6266L278.162 81.8998V77.7896Z" fill="#DD9B4A"/>
<path d="M283.503 79.9263L280.379 78.5679V82.7634L283.503 84.0365V79.9263Z" fill="#DD9B4A"/>
<path d="M288.843 82.0621L285.719 80.7036V84.8991L288.843 86.1722V82.0621Z" fill="#DD9B4A"/>
<path d="M214.524 49.9512V53.6557L217.276 52.8077V51.3338L214.524 49.9512Z" fill="#DD9B4A"/>
<path fill-rule="evenodd" clip-rule="evenodd" d="M191.963 259.271L193.199 303.735C194.961 304.799 196.936 304.799 199.127 303.735L205.788 261.293L191.963 259.271Z" fill="#21998C"/>
<path fill-rule="evenodd" clip-rule="evenodd" d="M191.963 259.271L199.989 260.445L196.224 302.374L199.34 302.374L199.127 303.735C196.997 304.769 195.071 304.798 193.346 303.821L193.199 303.735L191.963 259.271Z" fill="#148276"/>
<path fill-rule="evenodd" clip-rule="evenodd" d="M265.09 265.882L272.502 309.741C274.394 310.549 276.351 310.274 278.372 308.916L279.062 265.96L265.09 265.882Z" fill="#21998C"/>
<path fill-rule="evenodd" clip-rule="evenodd" d="M265.09 265.882L273.201 265.927L275.308 307.973L278.394 307.539L278.372 308.916C276.407 310.236 274.503 310.533 272.66 309.806L272.502 309.741L265.09 265.882Z" fill="#148276"/>
<path fill-rule="evenodd" clip-rule="evenodd" d="M303.261 242.555L314.664 280.832C316.436 281.346 318.146 280.887 319.795 279.457L315.699 241.102L303.261 242.555Z" fill="#21998C"/>
<path fill-rule="evenodd" clip-rule="evenodd" d="M303.261 242.555L310.482 241.711L316.966 278.95L319.664 278.227L319.795 279.457C318.192 280.848 316.531 281.32 314.812 280.873L314.664 280.832L303.261 242.555Z" fill="#148276"/>
<path fill-rule="evenodd" clip-rule="evenodd" d="M240.403 234.388L244.293 274.138C245.934 274.98 247.701 274.857 249.592 273.767L252.889 235.335L240.403 234.388Z" fill="#21998C"/>
<path fill-rule="evenodd" clip-rule="evenodd" d="M240.403 234.388L247.652 234.938L246.912 272.73L249.698 272.535L249.592 273.767C247.753 274.826 246.032 274.972 244.43 274.206L244.293 274.138L240.403 234.388Z" fill="#148276"/>
<path fill-rule="evenodd" clip-rule="evenodd" d="M222.07 203.619L239.953 161.705C257.54 151.049 277.675 146.932 300.358 149.353C334.382 152.986 337.038 162.597 337.038 177.856C337.038 193.115 337.33 231.241 324.773 244.422C319.298 250.169 311.1 254.738 304.079 258.973C294.997 264.451 287.137 268.937 281.917 270.203C272.662 272.447 212.45 267.959 200.097 265.539C187.744 263.12 179.714 262.62 171.925 241.259C164.136 219.899 158.956 190.488 171.925 189.04C180.572 188.074 197.287 192.934 222.07 203.619Z" fill="#33B9AB"/>
<path fill-rule="evenodd" clip-rule="evenodd" d="M337.038 177.495V181.314L337.032 183.516L337.026 184.678L337.01 186.491L336.985 188.383L336.962 189.684C336.958 189.903 336.954 190.124 336.949 190.346L336.918 191.69C336.907 192.143 336.895 192.6 336.881 193.061L336.837 194.457C336.829 194.691 336.821 194.926 336.813 195.163L336.757 196.591C336.748 196.83 336.737 197.071 336.727 197.312L336.659 198.767C335.826 215.603 333.177 235.599 324.773 244.421C321.421 247.94 317.048 251.017 312.55 253.846L311.649 254.409C311.498 254.502 311.348 254.595 311.197 254.688L310.294 255.241L309.392 255.789L308.043 256.6L304.944 258.452L302.255 260.069L300.822 260.923L299.413 261.756L298.03 262.564L297.349 262.958L296.674 263.346L295.676 263.914C295.566 263.976 295.457 264.038 295.347 264.099L294.695 264.464L294.05 264.822L293.412 265.171L292.783 265.512C292.679 265.568 292.575 265.624 292.472 265.679L291.855 266.007L291.246 266.325L290.646 266.634L290.055 266.934C289.957 266.983 289.86 267.032 289.763 267.08L289.185 267.365L288.616 267.639L288.056 267.903C287.779 268.032 287.505 268.157 287.235 268.278L286.7 268.515C284.931 269.283 283.328 269.861 281.917 270.203C278.678 270.988 269.196 270.949 257.709 270.462L255.721 270.375C254.384 270.313 253.023 270.246 251.646 270.174L249.569 270.063L247.471 269.944L245.358 269.819L243.234 269.688C242.524 269.643 241.814 269.597 241.103 269.55L238.972 269.408L236.843 269.26C236.489 269.235 236.135 269.21 235.782 269.185L233.668 269.03L231.569 268.872C231.22 268.846 230.873 268.819 230.527 268.792L228.459 268.629L226.419 268.462L224.411 268.294L222.439 268.123L220.509 267.951C219.873 267.894 219.245 267.836 218.625 267.778L216.791 267.604C215.888 267.517 215.006 267.43 214.147 267.343L212.461 267.169C212.186 267.14 211.913 267.111 211.644 267.082L210.061 266.909C205.938 266.45 202.61 266.006 200.482 265.612L196.864 264.916L196.172 264.78L195.489 264.643L194.816 264.503L194.152 264.36C185.021 262.347 178.39 258.988 171.925 241.259C168.594 232.124 165.74 221.516 164.579 212.252C166.872 219.059 169.554 224.444 172.626 228.408C178.193 235.591 184.159 241.541 190.525 246.261L190.98 246.596L262.059 253.227C266.816 253.67 271.427 251.445 274.04 247.446C276.813 243.203 278.8 239.771 280.001 237.15L280.373 236.327C280.987 234.955 281.562 233.592 282.102 232.248L282.422 231.444C282.527 231.177 282.631 230.911 282.733 230.645L283.037 229.852C283.087 229.721 283.137 229.589 283.186 229.458L283.479 228.675C283.527 228.545 283.574 228.415 283.622 228.286L283.903 227.513C283.949 227.385 283.995 227.257 284.041 227.13L284.312 226.369L284.705 225.245L284.96 224.507L285.207 223.78L285.685 222.357L286.469 219.982L287.389 217.178L287.677 216.313L287.872 215.733L288.161 214.86L288.433 214.027L289.009 212.223L289.658 210.165L289.925 209.333L290.12 208.738L290.312 208.167L290.439 207.798L290.631 207.261L290.76 206.914L290.891 206.574L291.023 206.242C291.045 206.187 291.068 206.132 291.09 206.078L291.226 205.755C291.249 205.702 291.272 205.649 291.296 205.596L291.437 205.282L291.582 204.973C291.607 204.922 291.632 204.871 291.657 204.82L291.809 204.517L291.967 204.218C292.047 204.07 292.129 203.922 292.214 203.776L292.387 203.484C292.417 203.435 292.447 203.387 292.477 203.338L292.661 203.049C292.786 202.856 292.917 202.664 293.053 202.472L293.262 202.184L293.481 201.895C294.003 201.22 294.606 200.536 295.319 199.812L295.632 199.499C295.792 199.342 295.957 199.182 296.128 199.02C297.436 197.777 299.309 196.887 301.565 196.079L302.113 195.887C302.299 195.823 302.486 195.76 302.676 195.697L303.252 195.509L303.842 195.321L304.444 195.133L307.621 194.164L308.287 193.958L308.96 193.746L309.642 193.528L310.332 193.302L311.028 193.068C316.274 191.277 322.058 188.711 327.324 183.803C333.378 178.16 335.46 170.818 334.602 163.462C336.46 167.063 336.941 171.27 337.024 176.072L337.033 176.779L337.038 177.495Z" fill="#86D5CD"/>
<path fill-rule="evenodd" clip-rule="evenodd" d="M300.358 149.353L300.836 149.405L301.78 149.511C301.936 149.529 302.091 149.547 302.246 149.565L303.165 149.675L304.068 149.789C304.217 149.808 304.366 149.827 304.514 149.847L305.393 149.965C305.538 149.985 305.682 150.005 305.826 150.026L306.681 150.149C306.822 150.17 306.963 150.191 307.103 150.212L307.935 150.34L308.751 150.471L309.552 150.605L310.338 150.742L311.109 150.883L311.865 151.026L312.606 151.173C312.851 151.223 313.093 151.273 313.333 151.323L314.045 151.476C314.162 151.502 314.279 151.528 314.396 151.554L315.086 151.712L315.763 151.873L316.426 152.037C316.535 152.065 316.644 152.093 316.752 152.121L317.394 152.289L318.023 152.461C318.749 152.664 319.447 152.873 320.118 153.088L320.688 153.274C321.344 153.493 321.975 153.719 322.58 153.95L323.093 154.151C325.289 155.025 327.143 155.987 328.707 157.037L329.063 157.281C329.589 157.649 330.082 158.028 330.542 158.416C331.343 165.55 328.618 172.03 322.368 177.856C317.102 182.764 311.318 185.33 306.072 187.121L305.376 187.355L304.686 187.581L304.004 187.799L303.331 188.011L302.336 188.317L299.793 189.092L298.886 189.374L298.296 189.562L297.72 189.75C297.53 189.813 297.342 189.876 297.157 189.94L296.609 190.132C294.353 190.94 292.48 191.83 291.172 193.073C291.058 193.181 290.947 193.288 290.838 193.394L290.518 193.709C289.736 194.491 289.084 195.225 288.525 195.948L288.306 196.237L288.097 196.525C287.961 196.717 287.83 196.909 287.705 197.102L287.521 197.391C287.491 197.44 287.461 197.488 287.431 197.537L287.258 197.829C287.173 197.975 287.091 198.123 287.011 198.271L286.853 198.57L286.701 198.873C286.676 198.924 286.651 198.975 286.626 199.026L286.481 199.335L286.34 199.649C286.316 199.702 286.293 199.755 286.27 199.808L286.134 200.131L286 200.46L285.869 200.796L285.74 201.14L285.611 201.491L285.483 201.851L285.356 202.22L285.164 202.791L284.903 203.589L283.733 207.283L283.477 208.08L283.205 208.913L282.916 209.786L282.627 210.648L282.146 212.112L280.913 215.93L280.582 216.943L280.24 217.978L279.886 219.032L279.643 219.745L279.393 220.465L279.138 221.193L278.876 221.928L278.608 222.669L278.332 223.416L278.049 224.168L277.758 224.926C277.709 225.053 277.659 225.18 277.61 225.307L277.307 226.072C277.154 226.455 276.997 226.84 276.837 227.227L276.513 228.001L276.18 228.779L275.837 229.56C274.52 232.527 272.352 236.776 269.334 242.307C267.642 245.407 264.281 247.218 260.762 246.924L192.954 241.259C172.517 227.264 163.453 211.456 165.76 193.835C167.018 191.098 169.014 189.365 171.925 189.04C177.113 188.46 185.205 189.978 196.203 193.593L197.312 193.961C197.685 194.087 198.061 194.214 198.441 194.344L199.589 194.74L200.757 195.151C200.953 195.22 201.15 195.29 201.348 195.361L202.544 195.793C202.745 195.866 202.947 195.939 203.15 196.013L204.375 196.466C204.787 196.619 205.202 196.774 205.62 196.932L206.885 197.412C207.309 197.575 207.737 197.74 208.168 197.907L209.471 198.415C209.69 198.501 209.91 198.587 210.13 198.674L211.462 199.204L212.814 199.747L214.184 200.304C214.415 200.398 214.645 200.493 214.877 200.588L216.277 201.166L217.696 201.758C217.934 201.858 218.173 201.959 218.413 202.06L219.861 202.673L221.329 203.3C221.575 203.405 221.822 203.512 222.07 203.619L239.953 161.705C257.54 151.049 277.675 146.932 300.358 149.353Z" fill="#21998C"/>
<path fill-rule="evenodd" clip-rule="evenodd" d="M214.047 166.032L225.369 146.376C227.177 143.236 229.68 140.554 232.687 138.533C235.703 136.505 239.091 135.093 242.654 134.376L253.228 132.25H260.021L273.508 133.28C277.643 133.597 281.646 134.879 285.194 137.025C288.694 139.142 291.396 142.355 292.882 146.166L306.225 180.394C307.695 184.167 307.514 188.384 305.725 192.017C303.957 195.605 300.599 198.147 296.666 198.873L294.638 199.247L284.725 174.664L289.472 204.688C262.424 209.646 245.917 209.167 239.953 203.25L233.921 170.475L223.584 187.034L214.047 166.032Z" fill="#F4A950"/>
<path fill-rule="evenodd" clip-rule="evenodd" d="M279.692 161.953L284.752 174.837L289.472 204.688L287.862 204.979C261.768 209.625 245.798 209.049 239.953 203.25L237.164 188.093L241.432 188.65C250.278 189.804 259.271 188.55 267.463 185.019L267.731 184.903C275.422 181.588 280.254 173.852 279.859 165.486L279.692 161.953Z" fill="#EFA348"/>
<path fill-rule="evenodd" clip-rule="evenodd" d="M241.381 109.238C236.818 106.021 235.562 102.212 237.613 97.8101C240.69 91.2077 253.279 92.1028 258.669 97.4425C262.384 96.8963 264.795 97.9269 265.902 100.534C267.009 103.142 266.383 108.284 264.023 115.96L258.543 119.662L241.381 109.238Z" fill="#222323"/>
<path fill-rule="evenodd" clip-rule="evenodd" d="M261.018 115.666C260.573 115.674 260.206 115.319 260.198 114.874L260.145 111.792C258.858 110.753 258.233 109.384 258.267 107.686C258.299 106.118 257.574 104.631 256.32 103.69L256.065 103.499C247.601 106.478 242.235 106.796 239.965 104.452L240.767 121.57C240.865 123.648 241.666 125.631 243.039 127.194C244.385 128.725 246.336 129.587 248.374 129.551L248.917 129.542L249.079 135.651C249.176 139.309 252.22 142.196 255.878 142.1C256.007 142.096 256.135 142.089 256.264 142.078C260.138 141.749 263.023 138.358 262.725 134.48L261.622 120.09C264.677 118.608 266.186 116.793 266.148 114.646C266.111 112.498 264.651 111.811 261.77 112.584L261.809 114.846C261.817 115.291 261.463 115.658 261.018 115.666Z" fill="#FFBCAD"/>
<path d="M242.032 116.979C243.841 116.947 245.282 115.455 245.251 113.647C245.219 111.838 243.727 110.398 241.918 110.429C240.109 110.461 238.668 111.953 238.7 113.761C238.731 115.57 240.223 117.01 242.032 116.979Z" stroke="#222323" stroke-width="1.43"/>
<path d="M245.919 113.824C246.278 115.076 245.755 116.152 244.351 117.054C242.244 118.407 243.575 119.785 246.426 119.074" stroke="#EB957D"/>
<path d="M250.018 116.839C251.827 116.808 253.268 115.316 253.236 113.507C253.205 111.699 251.712 110.258 249.903 110.29C248.094 110.321 246.654 111.813 246.685 113.621C246.717 115.43 248.209 116.871 250.018 116.839Z" stroke="#222323" stroke-width="1.43"/>
<path d="M245.224 113.647L246.609 113.623" stroke="#222323" stroke-width="1.43"/>
<path d="M253.331 113.505L260.602 110.935" stroke="#222323" stroke-width="1.43"/>
<path d="M239.114 109.356C240.728 108.453 242.739 108.417 245.147 109.251" stroke="#222323" stroke-width="3.146"/>
<path d="M247.672 109.241C249.685 108.485 251.637 108.695 253.527 109.872" stroke="#222323" stroke-width="3.146"/>
<path d="M242.218 114.913C242.619 114.906 242.936 114.413 242.925 113.811C242.915 113.21 242.581 112.728 242.18 112.735C241.779 112.742 241.463 113.235 241.473 113.837C241.484 114.438 241.817 114.92 242.218 114.913Z" fill="#222323"/>
<path d="M249.478 114.786C249.879 114.779 250.195 114.286 250.185 113.684C250.174 113.083 249.841 112.601 249.44 112.608C249.039 112.615 248.722 113.109 248.733 113.71C248.743 114.311 249.077 114.793 249.478 114.786Z" fill="#222323"/>
<path fill-rule="evenodd" clip-rule="evenodd" d="M243.531 121.52L249.664 121.136C249.221 122.882 248.292 123.834 246.877 123.993C245.462 124.152 244.347 123.328 243.531 121.52Z" fill="white"/>
<path opacity="0.4" fill-rule="evenodd" clip-rule="evenodd" d="M257.413 124.703L249.161 136.821C249.094 136.505 249.051 136.18 249.032 135.849L249.023 135.599L248.917 129.541C252.22 128.941 255.052 127.329 257.413 124.703Z" fill="#CC5D37"/>
<path d="M262.486 113.505C263.616 113.2 264.409 113.372 264.866 114.022C265.323 114.671 265.15 115.538 264.348 116.622" stroke="#EB957D"/>
<path d="M262.484 113.33L262.484 114.924" stroke="#EB957D"/>
<path fill-rule="evenodd" clip-rule="evenodd" d="M258.275 193.966C256.44 194.687 254.472 194.927 252.369 194.687C249.214 194.326 246.769 193.072 243.263 193.072C239.757 193.072 237.567 194.333 236.916 197.046C236.482 198.854 239.249 200.442 245.217 201.809L252.369 204.006L259.292 202.316L258.275 193.966Z" fill="#FFBCAD"/>
<path d="M279.692 161.953L285.938 177.856" stroke="#D18E3E"/>
<path fill-rule="evenodd" clip-rule="evenodd" d="M294.045 182.612L256.69 192.818C256.187 196.462 256.951 200.063 258.984 203.619L295.541 199.088L294.045 182.612Z" fill="#F4A950"/>
<path fill-rule="evenodd" clip-rule="evenodd" d="M226.356 190.285L216.03 152.985H159.552L169.969 190.285H226.356Z" fill="#A5ADC5"/>
<path fill-rule="evenodd" clip-rule="evenodd" d="M225.364 190.285L215.038 152.985H158.561L168.977 190.285H225.364Z" fill="#DCE5FF"/>
<path d="M192.98 176.224C194.713 175.823 195.719 173.769 195.227 171.636C194.734 169.502 192.929 168.097 191.196 168.497C189.462 168.897 188.456 170.951 188.949 173.085C189.441 175.219 191.246 176.624 192.98 176.224Z" fill="white"/>
<path fill-rule="evenodd" clip-rule="evenodd" d="M170.018 193.072L192.954 205.8H253.293V203.074L226.356 190.285H172.002L170.018 193.072Z" fill="#A5ADC5"/>
<path fill-rule="evenodd" clip-rule="evenodd" d="M225.364 191.678L226.356 193.114L253.285 205.799L192.954 205.799L170.018 193.072L170.256 192.737L178.766 191.678H225.364Z" fill="#B4BACE"/>
<path fill-rule="evenodd" clip-rule="evenodd" d="M170.018 190.285V193.072H226.356V190.285H170.018Z" fill="#A5ADC5"/>
<path d="M215.642 153.232H158.539L168.977 190.285H178.862" stroke="#A5ADC5"/>
<path d="M232.106 159.333L234.668 174.625" stroke="#D18E3E"/>
<path fill-rule="evenodd" clip-rule="evenodd" d="M184.895 223.023C225.237 244.692 254.229 250.9 271.872 241.647L209.977 210.085L184.895 223.023Z" fill="black"/>
<path fill-rule="evenodd" clip-rule="evenodd" d="M154.335 263.139L139.908 254.634L128.392 270.091L124.87 274.568L142.533 280.307L143.689 276.794L154.335 263.139Z" fill="#FFBCAD"/>
<path fill-rule="evenodd" clip-rule="evenodd" d="M128.719 269.533C118.781 275.829 111.494 279.118 106.856 279.4C102.218 279.681 99.5452 281.527 98.8371 284.937C104.184 288.718 109.771 290.912 115.599 291.519C124.341 292.43 129.437 290.161 131.59 289.967L131.67 292.395L140.674 292.919L143.806 276.603C140.704 278.785 137.759 278.323 134.971 275.218C132.182 272.113 130.098 270.218 128.719 269.533Z" fill="black"/>
<path fill-rule="evenodd" clip-rule="evenodd" d="M217.739 251.398L225.183 255.527L233.249 244.421L223.524 241.259L217.739 251.398Z" fill="#FFBCAD"/>
<path fill-rule="evenodd" clip-rule="evenodd" d="M225.183 255.527C225.447 252.987 226.217 250.738 227.493 248.779C228.769 246.82 230.688 245.367 233.249 244.422C237.895 246.844 243.075 248.694 248.792 249.975C257.366 251.895 262.321 253.876 262.321 258.951C262.321 264.027 252.751 268.122 245.69 266.066C238.63 264.01 234.953 260.435 232.263 258.951C230.469 257.962 228.109 256.821 225.183 255.527Z" fill="black"/>
<path fill-rule="evenodd" clip-rule="evenodd" d="M201.136 202.316H157.973C153.906 202.316 149.899 203.305 146.298 205.198C142.972 206.946 141.008 210.508 141.305 214.253L141.39 215.326C141.742 219.777 144.55 223.658 148.667 225.387L218.008 254.499C223.573 250.208 226.356 244.787 226.356 238.235L186.731 215.923L201.136 202.316Z" fill="black"/>
<path d="M168.742 233.815L218.008 254.499C223.573 250.209 226.356 244.787 226.356 238.236L186.731 215.923" stroke="#545454"/>
<path fill-rule="evenodd" clip-rule="evenodd" d="M247.43 206.952L198.934 192.428C194.028 190.959 188.841 190.686 183.808 191.632C178.913 192.553 174.604 195.425 171.871 199.588L131.024 261.814C134.161 268.964 140.459 273.034 149.917 274.024L191.275 220.151L242.972 240.16C250.361 243.019 258.348 243.98 266.204 242.953L266.697 242.889C273.997 241.935 280.541 237.901 284.674 231.808C288.861 225.634 290.652 218.144 289.71 210.744L288.939 204.695C278.312 206.662 270.339 207.79 265.02 208.08C259.702 208.369 253.838 207.993 247.43 206.952Z" fill="#24245D"/>
<path d="M243.263 205.8L275.322 214.371" stroke="black"/>
<path d="M256.54 193.072L288.574 184.046C291.024 183.795 293.346 184.119 295.541 185.016" stroke="#D18E3E"/>
<path opacity="0.1" d="M143.054 273.155L189.817 212.807C217.596 223.051 238.752 229.484 253.285 232.108C275.085 236.044 278.86 217.42 275.322 208.08" stroke="white"/>
<path fill-rule="evenodd" clip-rule="evenodd" d="M327.826 170.965C322.173 178.91 315.742 184.027 308.533 186.316C297.72 189.749 289.061 190.674 285.938 200.38C282.815 210.085 275.168 232.095 270.157 241.259C265.146 250.423 248.219 245.115 233.842 244.421L243.263 247.404L258.156 250.922L279.337 238.079L289.472 245.8L305.787 216.361L325.747 196.837L333.57 177.855L327.826 170.965Z" fill="#33B9AB"/>
<path fill-rule="evenodd" clip-rule="evenodd" d="M337.038 177.495V181.314L337.032 183.516L337.026 184.678L337.01 186.491L336.985 188.383L336.963 189.684C336.958 189.903 336.954 190.124 336.949 190.346L336.919 191.69C336.907 192.143 336.895 192.6 336.882 193.061L336.838 194.457C336.83 194.691 336.822 194.926 336.813 195.163L336.758 196.591C336.748 196.83 336.738 197.071 336.727 197.312L336.659 198.767C335.826 215.603 333.178 235.599 324.773 244.421C321.421 247.94 317.048 251.017 312.55 253.846L311.649 254.409C311.499 254.502 311.348 254.595 311.198 254.688L310.295 255.241L309.392 255.789L308.043 256.6L304.945 258.452L302.255 260.069L300.822 260.923L299.413 261.756L298.031 262.564L297.349 262.958L296.675 263.346L295.676 263.914C295.566 263.976 295.457 264.038 295.347 264.099L294.695 264.464L294.05 264.822L293.413 265.171L292.784 265.512C292.679 265.568 292.575 265.624 292.472 265.679L291.855 266.007L291.246 266.325L290.646 266.634L290.055 266.934C289.957 266.983 289.86 267.032 289.763 267.08L289.185 267.365L288.616 267.639L288.057 267.903C287.779 268.032 287.506 268.157 287.235 268.278L286.7 268.515C284.931 269.283 283.328 269.861 281.917 270.203C278.678 270.988 269.197 270.949 257.71 270.462L255.722 270.375C254.384 270.313 253.024 270.246 251.647 270.174L249.569 270.063L247.471 269.944L245.358 269.819L243.234 269.688C242.524 269.643 241.814 269.597 241.103 269.55L238.972 269.408L236.844 269.26C236.489 269.235 236.136 269.21 235.782 269.185L233.668 269.03L231.569 268.872C231.221 268.846 230.873 268.819 230.527 268.792L228.46 268.629L226.419 268.462L224.411 268.294L222.44 268.123L220.509 267.951C219.873 267.894 219.245 267.836 218.625 267.778L216.792 267.604C215.888 267.517 215.006 267.43 214.147 267.343L212.462 267.169C212.186 267.14 211.914 267.111 211.644 267.082L210.061 266.909C205.938 266.45 202.61 266.006 200.482 265.612L196.864 264.916L196.172 264.78L195.49 264.643L194.816 264.503L194.152 264.36C188.432 263.099 210.003 264.066 258.866 267.261C264.614 267.637 269.913 264.152 271.846 258.725C275.87 247.424 278.589 240.233 280.001 237.15L280.374 236.327C280.988 234.955 281.562 233.592 282.102 232.248L282.422 231.444C282.527 231.177 282.631 230.911 282.734 230.645L283.037 229.852C283.087 229.721 283.137 229.589 283.186 229.458L283.479 228.675C283.527 228.545 283.575 228.415 283.622 228.286L283.903 227.513C283.95 227.385 283.996 227.257 284.041 227.13L284.312 226.369L284.706 225.245L284.96 224.507L285.208 223.78L285.686 222.357L286.469 219.982L287.389 217.178L287.677 216.313L287.872 215.733L288.162 214.86L288.434 214.027L289.009 212.223L289.658 210.165L289.925 209.333L290.12 208.738L290.312 208.167L290.44 207.798L290.631 207.261L290.76 206.914L290.891 206.574L291.023 206.242C291.045 206.187 291.068 206.132 291.09 206.078L291.227 205.755C291.25 205.702 291.273 205.649 291.296 205.596L291.437 205.282L291.583 204.973C291.607 204.922 291.632 204.871 291.657 204.82L291.809 204.517L291.967 204.218C292.047 204.07 292.13 203.922 292.215 203.776L292.388 203.484C292.417 203.435 292.447 203.387 292.477 203.338L292.661 203.049C292.786 202.856 292.917 202.664 293.053 202.472L293.263 202.184L293.481 201.895C294.003 201.22 294.606 200.536 295.32 199.812L295.632 199.499C295.792 199.342 295.957 199.182 296.128 199.02C297.436 197.777 299.309 196.887 301.565 196.079L302.113 195.887C302.299 195.823 302.486 195.76 302.676 195.697L303.253 195.509L303.842 195.321L304.444 195.133L307.622 194.164L308.287 193.958L308.961 193.746L309.643 193.528L310.332 193.302L311.028 193.068C316.275 191.277 322.058 188.711 327.324 183.803C333.378 178.16 335.461 170.818 334.602 163.462C336.46 167.063 336.942 171.27 337.024 176.072L337.034 176.779L337.038 177.495Z" fill="#86D5CD"/>
<path fill-rule="evenodd" clip-rule="evenodd" d="M92.6697 265.721L90.2607 284.953C89.5222 290.848 84.51 295.272 78.5684 295.272H73.9426C67.9805 295.272 62.9577 290.818 62.2438 284.899L59.9669 266.022L92.6697 265.721Z" fill="#DCB17E"/>
<path d="M91.7329 274.908C82.1949 277.608 72.0268 277.608 61.2284 274.908" stroke="white" stroke-width="1.98132"/>
<path d="M76.1318 267.824C66.3709 267.824 58.4582 267.017 58.4582 266.022C58.4582 265.026 66.3709 264.219 76.1318 264.219C85.8927 264.219 93.8054 265.026 93.8054 266.022C93.8054 267.017 85.8927 267.824 76.1318 267.824Z" fill="#69471D" stroke="#24245D" stroke-width="1.98132"/>
<path fill-rule="evenodd" clip-rule="evenodd" d="M80.2859 155.558C77.8015 156.517 76.7792 158.273 77.2189 160.825C77.8785 164.654 80.2943 165.487 82.6046 165.487C84.1448 165.487 83.3719 162.177 80.2859 155.558Z" fill="#21998C"/>
<path fill-rule="evenodd" clip-rule="evenodd" d="M90.4077 175.937C96.512 176.286 104.223 172.981 105.029 166.614C105.835 160.248 102.589 152.706 95.2597 154.218C87.9303 155.73 84.3137 153.701 79.9312 155.723C81.3668 158.402 81.7294 161.485 81.019 164.975C79.9533 170.208 84.3034 175.589 90.4077 175.937Z" fill="#86D5CD"/>
<path fill-rule="evenodd" clip-rule="evenodd" d="M93.2467 209.24C91.0951 207.21 91.3223 201.235 97.9998 199.452C102.451 198.264 107.529 199.895 113.233 204.346C110.269 204.459 107.575 205.076 105.149 206.199C101.511 207.882 95.3983 211.27 93.2467 209.24Z" fill="#21998C"/>
<path fill-rule="evenodd" clip-rule="evenodd" d="M106.438 200.298C113.574 199.746 118.674 199.746 121.738 200.298C126.333 201.128 134.401 210.979 128.695 210.979C124.891 210.979 117.472 207.419 106.438 200.298Z" fill="#86D5CD"/>
<path fill-rule="evenodd" clip-rule="evenodd" d="M67.6896 185.337C75.8511 179.289 77.8928 174.187 73.8144 170.03C67.697 163.796 54.4894 154.56 40.1018 157.896C43.8621 161.603 46.1351 165.045 46.9209 168.224C48.0995 172.992 56.9808 175.706 61.0846 178.528C63.8205 180.409 66.0221 182.679 67.6896 185.337Z" fill="#86D5CD"/>
<path d="M40.1017 157.896C56.0518 160.603 65.2477 169.75 67.6895 185.337C70.1312 200.925 72.1756 228.396 73.8225 267.751" stroke="#24245D" stroke-width="1.35"/>
<path d="M89.0987 154.704C91.9329 155.25 93.08 157.881 92.5401 162.595C91.7301 169.667 73.3588 232.967 78.5239 267.751" stroke="#24245D" stroke-width="1.35"/>
<path fill-rule="evenodd" clip-rule="evenodd" d="M83.3742 197.111C86.582 187.406 91.0131 182.553 96.6677 182.553C105.149 182.553 114.928 183.28 120.733 187.662C126.539 192.045 142.549 197.111 136.459 197.111C130.37 197.111 118.296 193.715 112.209 193.715C108.151 193.715 98.5397 194.847 83.3742 197.111Z" fill="#86D5CD"/>
<path d="M113.233 183.813C99.6946 185.375 89.7418 189.808 83.3741 197.112C77.0064 204.416 73.8226 227.962 73.8226 267.751" stroke="#24245D" stroke-width="1.35"/>
<path fill-rule="evenodd" clip-rule="evenodd" d="M56.9619 199.077C53.7342 192.322 46.9364 188.944 36.5685 188.944C21.0166 188.944 9.25015 186.468 0.0382042 193.176L7.85694 192.65C14.5081 192.203 21.1889 192.564 27.7533 193.725C29.7941 194.086 31.8645 194.377 33.9646 194.598C41.4048 195.383 37.4427 196.871 30.2726 196.127C25.4925 195.631 29.9599 198.413 43.6748 204.473L56.9619 199.077Z" fill="#86D5CD"/>
<path fill-rule="evenodd" clip-rule="evenodd" d="M42.9901 195.958C41.1936 197.089 40.7033 200.91 40.8389 203.207L42.2207 203.827L43.6748 204.473L56.9619 199.077C56.296 197.683 55.478 196.433 54.5081 195.327C49.9537 195.617 46.2244 193.922 42.9901 195.958Z" fill="#21998C"/>
<path fill-rule="evenodd" clip-rule="evenodd" d="M0.0384903 193.176L7.80685 192.654C12.6718 192.327 17.5527 192.43 22.3926 192.96L9.47248 189.22C6.05265 189.877 2.92055 191.077 0.0384903 193.176Z" fill="#21998C"/>
<path d="M9.01348 189.2C15.2192 190.625 20.0043 191.877 23.3689 192.956" stroke="#24245D" stroke-width="1.35"/>
<path d="M33.3964 189.2C58.9339 205.725 72.4093 231.909 73.8225 267.751" stroke="#24245D" stroke-width="1.35"/>
<path fill-rule="evenodd" clip-rule="evenodd" d="M66.4821 211.227C69.5587 210.828 72.9458 209.171 71.2486 201.537C69.5514 193.903 62.7009 195.128 55.8591 196.12C49.0173 197.111 47.5723 194.084 43.837 197.111C40.1017 200.138 41.9925 215.034 49.4773 213.929C54.4671 213.192 58.1582 210.615 60.5505 206.198C62.4539 209.817 64.4311 211.493 66.4821 211.227Z" fill="#21998C"/>
<path fill-rule="evenodd" clip-rule="evenodd" d="M58.0967 195.798L56.6584 196.003L55.859 196.12C54.1174 196.372 52.7256 196.364 51.5566 196.262L51.0689 196.213L50.6062 196.155L49.9544 196.058L48.5916 195.838L48.2328 195.79C46.7594 195.61 45.5347 195.735 43.8368 197.111C40.1015 200.138 41.9923 215.034 49.4771 213.929C54.467 213.192 58.1581 210.615 60.5503 206.198L60.7425 205.821L60.9424 205.436L61.34 204.691C63.9813 199.838 66.4316 197.269 68.6907 196.982C66.5251 195.252 63.3762 195.197 59.9529 195.567L59.2153 195.652L58.471 195.747C58.3464 195.764 58.2216 195.781 58.0967 195.798Z" fill="#86D5CD"/>
<path d="M66.4395 197.67C64.2289 200.003 62.2658 202.846 60.5503 206.199" stroke="#24245D" stroke-width="1.35"/>
<path d="M107.191 201.127C95.9628 204.583 88.6126 212.56 85.1402 225.058C81.6677 237.557 79.4625 251.787 78.5244 267.751" stroke="#24245D" stroke-width="1.35"/>
<path d="M63.4951 201.127C66.5851 203.757 68.4446 208.766 69.0734 216.156C69.7023 223.546 71.2853 240.744 73.8225 267.751" stroke="#24245D" stroke-width="1.35"/>
<path fill-rule="evenodd" clip-rule="evenodd" d="M79.3526 224.475C74.0512 219.834 72.5625 216.095 74.8866 213.256C78.5241 208.813 96.697 211.844 97.4883 223.819C98.0158 231.802 94.9496 230.863 88.2895 221C86.255 221.401 84.6165 221.91 83.374 222.527C82.3885 223.016 81.4908 223.654 80.6809 224.44C80.3145 224.795 79.7373 224.81 79.3526 224.475Z" fill="#21998C"/>
<path fill-rule="evenodd" clip-rule="evenodd" d="M96.9568 221.04C93.801 211.395 78.2247 209.179 74.8869 213.256C72.5635 216.094 74.0506 219.832 79.3483 224.471C79.7019 224.781 80.22 224.794 80.5875 224.519L80.6837 224.437C81.493 223.653 82.3899 223.016 83.3743 222.527C84.6168 221.91 86.2553 221.401 88.2899 221L88.5068 221.32C91.2948 220.524 93.9358 220.39 96.4291 220.918L96.9568 221.04Z" fill="#86D5CD"/>
<path d="M96.4019 240.654C86.2644 244.288 80.3052 252.195 78.5242 264.374" stroke="#24245D" stroke-width="1.35"/>
<path d="M94.4563 220.762C91.5009 220.659 89.2526 220.773 87.7114 221.105" stroke="#24245D" stroke-width="1.35"/>
<path fill-rule="evenodd" clip-rule="evenodd" d="M91.0837 242.993C94.4666 238.356 99.5012 236.395 106.188 237.11C116.217 238.183 126.62 247.241 116.404 246.917C106.188 246.594 105.08 242.687 100.183 242.043C96.9173 241.615 93.8843 241.931 91.0837 242.993Z" fill="#86D5CD"/>
<path d="M73.8225 265.721C73.0514 260.256 71.0595 257.523 67.847 257.523" stroke="#24245D" stroke-width="1.35"/>
<path fill-rule="evenodd" clip-rule="evenodd" d="M68.6587 257.365C66.4339 255.665 63.9282 254.956 61.1417 255.237C56.962 255.659 54.3026 260.953 51.2754 261.323C54.4489 262.635 57.4571 263.051 60.3 262.57C62.2518 262.24 65.038 260.505 68.6587 257.365Z" fill="#21998C"/>
<path fill-rule="evenodd" clip-rule="evenodd" d="M375.453 147.441C376.11 147.441 376.648 147.952 376.69 148.598L376.692 148.68L376.692 159.012L381.698 159.013L398.178 246.723C397.652 247.783 397.114 248.832 396.564 249.87C396.353 249.706 396.194 249.474 396.124 249.2L396.106 249.12L379.642 161.49L376.692 161.49L376.693 277.775C375.876 278.675 375.05 279.563 374.214 280.439L374.214 161.49L371.893 161.49L349.163 289.437C349.048 290.084 348.451 290.524 347.807 290.452L347.726 290.44C347.08 290.325 346.64 289.728 346.712 289.084L346.723 289.003L369.816 159.013L374.214 159.012L374.214 148.68C374.214 147.996 374.769 147.441 375.453 147.441Z" fill="#F8CB96"/>
<path fill-rule="evenodd" clip-rule="evenodd" d="M361.647 205L364.1 205.354L349.163 289.437C349.048 290.083 348.451 290.523 347.807 290.452L347.726 290.44C347.08 290.325 346.64 289.728 346.712 289.084L346.723 289.003L361.647 205ZM374.214 233.886H376.693L376.693 277.775C375.876 278.675 375.05 279.563 374.214 280.439L374.214 233.886ZM396.539 237.999L398.178 246.722C397.652 247.782 397.114 248.831 396.564 249.869C396.353 249.705 396.194 249.474 396.124 249.199L396.106 249.12L394.116 238.529L396.539 237.999Z" fill="#DCB17E"/>
<path opacity="0.401971" fill-rule="evenodd" clip-rule="evenodd" d="M398.855 146.864L408.887 216.828C406.91 225.315 404.148 233.529 400.736 241.26L330.678 241.259L352.051 147.441L398.855 146.864Z" fill="url(#paint0_linear_2012_5767)"/>
<path fill-rule="evenodd" clip-rule="evenodd" d="M360.737 102.106H390.17C391.651 102.106 392.906 103.195 393.114 104.66L399.194 147.353C391.477 149.804 383.564 151.029 375.453 151.029C367.343 151.029 359.43 149.804 351.713 147.353L357.793 104.66C358.001 103.195 359.256 102.106 360.737 102.106Z" fill="#F4A950"/>
<path fill-rule="evenodd" clip-rule="evenodd" d="M390.17 102.106C391.651 102.106 392.905 103.195 393.114 104.66L398.855 144.98L398.614 145.057C391.081 147.386 383.361 148.551 375.453 148.551C367.461 148.551 359.661 147.361 352.051 144.982L357.792 104.66C358.001 103.195 359.256 102.106 360.736 102.106H390.17Z" fill="#F8CB96"/>
<path opacity="0.267322" fill-rule="evenodd" clip-rule="evenodd" d="M390.17 102.106C391.65 102.106 392.905 103.195 393.114 104.661L398.855 144.981L398.614 145.057C391.259 147.332 383.725 148.496 376.012 148.549C385.761 142.895 387.837 131.614 387.615 121.196L387.597 120.518L387.573 119.842L387.544 119.17C387.533 118.947 387.521 118.724 387.508 118.502C387.008 109.696 380.377 104.231 367.617 102.105L390.17 102.106Z" fill="#F4A950"/>
<path opacity="0.3" d="M364.001 102.106L358.267 148.68M387.508 102.106L393.242 148.68M369.386 102.106L367.172 150.147M381.545 102.106L383.759 150.147M375.453 102.106V151.029" stroke="white"/>
<defs>
<linearGradient id="paint0_linear_2012_5767" x1="4863.07" y1="146.864" x2="4863.07" y2="8918.87" gradientUnits="userSpaceOnUse">
<stop stop-color="#F6BB74"/>
<stop offset="1" stop-color="white" stop-opacity="0"/>
</linearGradient>
</defs>
</svg>
