<svg width="30" height="30" viewBox="0 0 30 30" fill="none" xmlns="http://www.w3.org/2000/svg">
<g clip-path="url(#clip0_2617_32872)">
<path d="M28.125 26.2501H1.87501C0.839435 26.2501 0 25.4106 0 24.3751C0 23.3396 0.839435 22.5001 1.87501 22.5001H28.1251C29.1606 22.5001 30.0001 23.3396 30.0001 24.3751C30 25.4106 29.1606 26.2501 28.125 26.2501ZM19.125 16.875H1.87501C0.839435 16.875 0 16.0356 0 15.0001C0 13.9646 0.839435 13.1251 1.87501 13.1251H19.1251C20.1606 13.1251 21.0001 13.9645 21.0001 15.0001C21.0001 16.0356 20.1606 16.875 19.125 16.875ZM28.125 7.50002H1.87501C0.839435 7.50002 0 6.66059 0 5.62501C0 4.58944 0.839435 3.75 1.87501 3.75H28.1251C29.1606 3.75 30.0001 4.58944 30.0001 5.62501C30.0001 6.66059 29.1606 7.50002 28.125 7.50002Z" fill="#393939"/>
</g>
<defs>
<clipPath id="clip0_2617_32872">
<rect width="30" height="30" fill="white"/>
</clipPath>
</defs>
</svg>
