<svg width="27" height="27" viewBox="0 0 27 27" fill="none" xmlns="http://www.w3.org/2000/svg">
<path d="M22.1335 22.1332L4.86512 4.86532L4.86143 4.8611C4.76794 4.76838 4.6571 4.69497 4.53524 4.64508C4.41338 4.59518 4.28289 4.56978 4.15122 4.57032C4.01954 4.57086 3.88926 4.59733 3.76781 4.64822C3.64637 4.6991 3.53613 4.77341 3.4434 4.8669C3.35067 4.96039 3.27727 5.07123 3.22738 5.19309C3.17748 5.31495 3.15208 5.44544 3.15262 5.57712C3.15371 5.84305 3.26039 6.09766 3.4492 6.28493L4.9611 7.79683C3.12758 9.05256 1.54938 10.6453 0.310453 12.4902C0.108138 12.7889 0 13.1414 0 13.5022C0 13.8629 0.108138 14.2154 0.310453 14.5141C3.47293 19.1948 8.48639 21.937 13.4998 21.9027C15.1238 21.9086 16.7369 21.6383 18.2702 21.1033L20.7176 23.5507C20.9062 23.7332 21.1588 23.8344 21.4212 23.8326C21.6836 23.8308 21.9348 23.7262 22.1209 23.5411C22.3069 23.3561 22.413 23.1055 22.4162 22.8431C22.4195 22.5807 22.3197 22.3275 22.1383 22.1379L22.1335 22.1332ZM13.4998 19.1811C12.55 19.1808 11.6154 18.9424 10.7814 18.4877C9.94743 18.0331 9.24069 17.3767 8.72579 16.5785C8.21089 15.7803 7.90424 14.8658 7.83386 13.9185C7.76348 12.9713 7.93162 12.0215 8.32291 11.156L9.90231 12.7354C9.77509 13.3349 9.79967 13.9566 9.97382 14.5442C10.148 15.1318 10.4662 15.6665 10.8995 16.0999C11.3328 16.5332 11.8676 16.8514 12.4552 17.0255C13.0427 17.1997 13.6645 17.2243 14.264 17.0971L15.8434 18.6765C15.1072 19.0102 14.3081 19.1823 13.4998 19.1811ZM26.6892 12.4875C23.5268 7.80421 18.5133 5.06202 13.4998 5.0963C11.8759 5.09042 10.2628 5.36076 8.7295 5.89575L11.1553 8.32153C12.2079 7.84517 13.3807 7.70093 14.5174 7.90802C15.6541 8.11512 16.7006 8.66371 17.5176 9.4807C18.3346 10.2977 18.8832 11.3443 19.0903 12.4809C19.2974 13.6176 19.1531 14.7904 18.6768 15.843L22.0381 19.2043C23.8719 17.9488 25.4503 16.3561 26.6892 14.511C26.8914 14.2123 26.9995 13.8599 26.9995 13.4993C26.9995 13.1386 26.8914 12.7862 26.6892 12.4875Z" fill="#464646"/>
<path d="M13.5 9.82227C13.2432 9.8223 12.9871 9.84916 12.7358 9.90242L17.0975 14.2636C17.2112 13.7277 17.2038 13.1733 17.0758 12.6406C16.9479 12.108 16.7025 11.6107 16.3577 11.1851C16.0129 10.7595 15.5774 10.4162 15.083 10.1804C14.5886 9.94463 14.0477 9.82227 13.5 9.82227Z" fill="#464646"/>
</svg>
