<svg width="27" height="27" viewBox="0 0 27 27" fill="none" xmlns="http://www.w3.org/2000/svg">
<path d="M13.5 17.6591C15.7956 17.6591 17.6567 15.7981 17.6567 13.5024C17.6567 11.2067 15.7956 9.3457 13.5 9.3457C11.2043 9.3457 9.34326 11.2067 9.34326 13.5024C9.34326 15.7981 11.2043 17.6591 13.5 17.6591Z" fill="#464646"/>
<path d="M26.5859 12.3511C23.3907 8.49005 18.5541 4.77344 13.5001 4.77344C8.44499 4.77344 3.60726 8.49264 0.414241 12.3511C-0.13808 13.0183 -0.13808 13.9868 0.414241 14.6539C1.217 15.624 2.89995 17.4966 5.14768 19.1328C10.8085 23.2537 16.1791 23.2628 21.8524 19.1328C24.1002 17.4966 25.7831 15.624 26.5859 14.6539C27.1366 13.9881 27.1394 13.0204 26.5859 12.3511ZM13.5001 7.68313C16.709 7.68313 19.3194 10.2935 19.3194 13.5025C19.3194 16.7115 16.709 19.3219 13.5001 19.3219C10.2911 19.3219 7.68067 16.7115 7.68067 13.5025C7.68067 10.2935 10.2911 7.68313 13.5001 7.68313Z" fill="#464646"/>
</svg>
