<svg width="25" height="25" viewBox="0 0 25 25" fill="none" xmlns="http://www.w3.org/2000/svg">
<path d="M16.708 7.8123C15.8838 3.98418 14.1259 1.5623 12.5002 1.5623C10.8744 1.5623 9.11656 3.98418 8.29235 7.8123H16.708ZM7.81266 12.4998C7.81246 13.545 7.88215 14.589 8.02125 15.6248H16.9791C17.1182 14.589 17.1879 13.545 17.1877 12.4998C17.1879 11.4547 17.1182 10.4107 16.9791 9.37481H8.02125C7.88215 10.4107 7.81246 11.4547 7.81266 12.4998ZM8.29235 17.1873C9.11656 21.0154 10.8744 23.4373 12.5002 23.4373C14.1259 23.4373 15.8838 21.0154 16.708 17.1873H8.29235ZM18.308 7.8123H23.2298C22.4903 6.12931 21.3667 4.64304 19.949 3.47272C18.5314 2.30241 16.8592 1.48061 15.0666 1.07324C16.5486 2.37715 17.7111 4.78809 18.308 7.8123ZM23.7916 9.37481H18.5572C18.6861 10.4115 18.7505 11.4552 18.7502 12.4998C18.7503 13.5445 18.6856 14.5881 18.5564 15.6248H23.7908C24.3605 13.5804 24.3613 11.4192 23.7916 9.37481ZM15.0666 23.9264C16.8595 23.5192 18.532 22.6975 19.9499 21.5272C21.3678 20.3569 22.4917 18.8705 23.2314 17.1873H18.3095C17.7111 20.2115 16.5486 22.6225 15.0666 23.9264ZM6.69234 17.1873H1.77047C2.51015 18.8705 3.63404 20.3569 5.05198 21.5272C6.46992 22.6975 8.14242 23.5192 9.93531 23.9264C8.45172 22.6225 7.28922 20.2115 6.69234 17.1873ZM9.93375 1.07324C8.14086 1.48039 6.46836 2.30208 5.05042 3.47241C3.63248 4.64275 2.50859 6.12913 1.76891 7.8123H6.69078C7.28922 4.78809 8.45172 2.37715 9.93375 1.07324ZM6.25016 12.4998C6.25006 11.4551 6.31476 10.4115 6.44391 9.37481H1.20953C0.639791 11.4192 0.639791 13.5804 1.20953 15.6248H6.44391C6.31476 14.5881 6.25006 13.5445 6.25016 12.4998Z" fill="#9A99A0"/>
</svg>
