<svg width="52" height="52" viewBox="0 0 52 52" fill="none" xmlns="http://www.w3.org/2000/svg">
<path d="M48.7012 15.0199L44.135 33.2881C43.96 33.9919 43.5542 34.6168 42.9825 35.063C42.4108 35.5092 41.7061 35.7511 40.9809 35.75H12.8212C12.0246 35.7502 11.2557 35.4576 10.6607 34.9279C10.0657 34.3982 9.68606 33.6683 9.594 32.877L6.30337 6.5H4.0625C3.41603 6.5 2.79605 6.24319 2.33893 5.78607C1.88181 5.32895 1.625 4.70897 1.625 4.0625C1.625 3.41603 1.88181 2.79605 2.33893 2.33893C2.79605 1.88181 3.41603 1.625 4.0625 1.625H8.42887C9.0179 1.62502 9.58699 1.83834 10.0309 2.22549C10.4748 2.61265 10.7635 3.14745 10.8436 3.731L12.1144 13H47.125C47.372 13 47.6158 13.0563 47.8377 13.1647C48.0597 13.273 48.2541 13.4305 48.406 13.6253C48.558 13.82 48.6636 14.0468 48.7147 14.2885C48.7659 14.5301 48.7613 14.7803 48.7012 15.0199ZM11.375 43.875C11.375 46.5628 13.5623 48.75 16.25 48.75C18.9377 48.75 21.125 46.5628 21.125 43.875C21.125 41.1872 18.9377 39 16.25 39C13.5623 39 11.375 41.1872 11.375 43.875ZM40.625 43.875C40.625 41.1872 38.4378 39 35.75 39C33.0623 39 30.875 41.1872 30.875 43.875C30.875 46.5628 33.0623 48.75 35.75 48.75C38.4378 48.75 40.625 46.5628 40.625 43.875Z" fill="#22A1E7"/>
</svg>
