<svg width="49" height="49" viewBox="0 0 49 49" fill="none" xmlns="http://www.w3.org/2000/svg">
<path d="M43.1667 23.3333H39.6667V14C39.6667 11.4217 37.5784 9.3333 35 9.3333H25.6667V5.8333C25.6667 2.6133 23.0533 0 19.8333 0C16.6133 0 14 2.6133 14 5.8333V9.3333H4.6667C2.08841 9.3333 0.0234063 11.4216 0.0234063 14L0.0117031 22.8667H3.5C6.9767 22.8667 9.8 25.69 9.8 29.1667C9.8 32.6434 6.9767 35.4667 3.5 35.4667H0.0117031L0 44.3333C0 46.9117 2.0883 49 4.6667 49H13.5334V45.5C13.5334 42.0233 16.3567 39.2 19.8334 39.2C23.3101 39.2 26.1334 42.0233 26.1334 45.5V49H35C37.5783 49 39.6667 46.9117 39.6667 44.3333V35H43.1667C46.3867 35 49 32.3867 49 29.1667C49 25.9467 46.3867 23.3333 43.1667 23.3333Z" fill="#22A1E7"/>
</svg>
