<svg width="24" height="24" viewBox="0 0 24 24" fill="none" xmlns="http://www.w3.org/2000/svg">
<path d="M12.0001 24C13.4388 24 14.6777 23.131 15.2213 21.8906H8.77888C9.32249 23.131 10.5614 24 12.0001 24ZM19.2657 11.6185V10.0781C19.2657 6.80522 17.0902 4.0312 14.1095 3.12516V2.10938C14.1095 0.946266 13.1632 0 12.0001 0C10.837 0 9.89071 0.946266 9.89071 2.10938V3.12516C6.90993 4.0312 4.73446 6.80517 4.73446 10.0781V11.6185C4.73446 14.4935 3.63862 17.2195 1.64882 19.2946C1.55341 19.3941 1.48934 19.5194 1.46457 19.6549C1.4398 19.7905 1.45543 19.9304 1.5095 20.0572C1.56358 20.1839 1.65372 20.292 1.76872 20.368C1.88372 20.4439 2.01851 20.4844 2.15633 20.4844H21.8438C21.9816 20.4844 22.1164 20.4439 22.2314 20.3679C22.3464 20.292 22.4365 20.1839 22.4906 20.0571C22.5447 19.9304 22.5603 19.7905 22.5355 19.6549C22.5108 19.5194 22.4467 19.3941 22.3513 19.2946C20.3616 17.2195 19.2657 14.4934 19.2657 11.6185ZM12.7032 2.84663C12.4718 2.82431 12.2373 2.8125 12.0001 2.8125C11.7629 2.8125 11.5284 2.82431 11.297 2.84663V2.10938C11.297 1.72167 11.6124 1.40625 12.0001 1.40625C12.3878 1.40625 12.7032 1.72167 12.7032 2.10938V2.84663ZM21.1407 10.0781C21.1407 10.4664 21.4555 10.7812 21.8438 10.7812C22.2321 10.7812 22.547 10.4664 22.547 10.0781C22.547 7.26094 21.4499 4.61236 19.4578 2.62031C19.1833 2.34577 18.7381 2.34572 18.4635 2.62031C18.1889 2.89491 18.1889 3.34008 18.4635 3.61467C20.1899 5.34113 21.1407 7.63655 21.1407 10.0781ZM2.15633 10.7812C2.54465 10.7812 2.85946 10.4664 2.85946 10.0781C2.85946 7.63659 3.81027 5.34117 5.53668 3.61472C5.81127 3.34012 5.81127 2.89495 5.53668 2.62036C5.26213 2.34577 4.81691 2.34577 4.54232 2.62036C2.55027 4.61241 1.45321 7.26094 1.45321 10.0781C1.45321 10.4664 1.76802 10.7812 2.15633 10.7812Z" fill="#9A99A0"/>
</svg>
