<svg width="191" height="199" viewBox="0 0 191 199" fill="none" xmlns="http://www.w3.org/2000/svg">
<g clip-path="url(#clip0_1017_5876)">
<path fill-rule="evenodd" clip-rule="evenodd" d="M95.3752 181.28C138.309 181.28 173.115 146.474 173.115 103.54C173.115 60.6059 138.309 25.8008 95.3752 25.8008C52.4409 25.8008 17.6357 60.6059 17.6357 103.54C17.6357 146.474 52.4409 181.28 95.3752 181.28Z" stroke="#22A1E7" stroke-width="0.523498" stroke-dasharray="3.14 3.14"/>
<path fill-rule="evenodd" clip-rule="evenodd" d="M95.3751 197.77C147.417 197.77 189.605 155.582 189.605 103.54C189.605 51.4986 147.417 9.31055 95.3751 9.31055C43.3335 9.31055 1.14551 51.4986 1.14551 103.54C1.14551 155.582 43.3335 197.77 95.3751 197.77Z" stroke="#22A1E7" stroke-width="0.523498" stroke-dasharray="3.14 3.14"/>
<path d="M158.441 133.56C158.444 122.589 150.097 113.418 139.175 112.391C128.252 111.364 118.342 118.818 116.3 129.597L50.9697 127.825L51.6869 139.049C51.6869 139.049 42.3713 160.543 91.3314 166.271V187.996H147.932V151.874C154.436 148.066 158.435 141.097 158.441 133.56Z" fill="url(#paint0_linear_1017_5876)"/>
<path d="M53.9306 139.52C53.9306 139.52 45.0102 160.103 91.8973 165.595V186.409H146.103V131.288L53.2344 128.77L53.9306 139.52Z" fill="#FFCBB4"/>
<path d="M81.0195 53.6218C78.0771 58.2648 71.9375 59.66 67.2776 56.7445L38.1738 37.5662C33.5308 34.6238 32.1357 28.4842 35.0511 23.8244C37.993 19.1878 44.1248 17.7933 48.7825 20.7017L77.8863 39.88C82.533 42.8189 83.933 48.9592 81.0195 53.6218Z" fill="url(#paint1_linear_1017_5876)"/>
<path d="M79.4086 52.5744C76.6736 56.8901 70.9668 58.187 66.6352 55.4772L39.573 37.6364C35.2573 34.9014 33.9604 29.1946 36.6702 24.8631C39.4052 20.5473 45.112 19.2504 49.4436 21.9603L76.5005 39.7906C80.8245 42.5243 82.1245 48.2393 79.4086 52.5744Z" fill="#FFCBB4"/>
<path d="M135.812 154.619C147.055 154.619 156.168 145.505 156.168 134.262C156.168 123.02 147.055 113.906 135.812 113.906C124.57 113.906 115.456 123.02 115.456 134.262C115.456 145.505 124.57 154.619 135.812 154.619Z" fill="#FFCBB4"/>
<path d="M132.148 0H54.1674C52.3965 0 50.9609 1.43556 50.9609 3.20642V149.121C50.9609 150.892 52.3965 152.327 54.1674 152.327H132.148C133.918 152.327 135.354 150.892 135.354 149.121V3.20642C135.354 1.43556 133.918 0 132.148 0Z" fill="url(#paint2_linear_1017_5876)"/>
<path d="M130.642 2.06055H55.6718C53.7 2.06055 52.1016 3.659 52.1016 5.6308V146.703C52.1016 148.675 53.7 150.273 55.6718 150.273H130.642C132.614 150.273 134.212 148.675 134.212 146.703V5.6308C134.212 3.659 132.614 2.06055 130.642 2.06055Z" fill="white"/>
<path d="M113.783 5.77539C113.292 9.02318 110.506 11.4274 107.221 11.437H78.863C75.5794 11.4261 72.7943 9.02221 72.3036 5.77539H57.2792C56.452 5.77539 55.6584 6.10283 55.0732 6.68754C54.488 7.27225 54.1592 8.06557 54.1592 8.89282V143.432C54.1592 144.259 54.4866 145.053 55.0713 145.638C55.656 146.223 56.4494 146.552 57.2766 146.552H129.032C129.86 146.552 130.653 146.224 131.238 145.64C131.824 145.055 132.153 144.262 132.153 143.434V8.89544C132.153 8.06819 131.825 7.27459 131.24 6.68939C130.656 6.10419 129.862 5.77539 129.035 5.77539H113.783Z" fill="#CFEEFF"/>
<path d="M101.896 7.54883H84.6446C84.3555 7.54883 84.1211 7.78321 84.1211 8.07233V8.16917C84.1211 8.45829 84.3555 8.69267 84.6446 8.69267H101.896C102.186 8.69267 102.42 8.45829 102.42 8.16917V8.07233C102.42 7.78321 102.186 7.54883 101.896 7.54883Z" fill="#DBDBDB"/>
<path d="M106.309 8.85981C106.78 8.85981 107.162 8.47802 107.162 8.00705C107.162 7.53609 106.78 7.1543 106.309 7.1543C105.838 7.1543 105.456 7.53609 105.456 8.00705C105.456 8.47802 105.838 8.85981 106.309 8.85981Z" fill="#DBDBDB"/>
<path d="M148.97 137.853C143.063 139.219 139.008 135.366 137.642 129.461L124.068 79.0562C122.717 73.1282 126.406 67.222 132.326 65.8353C138.254 64.4847 144.16 68.1738 145.547 74.0935L156.624 125.799C157.99 131.707 154.876 136.487 148.97 137.853Z" fill="url(#paint3_linear_1017_5876)"/>
<path d="M144.023 75.3274C142.871 70.3428 137.897 67.2356 132.912 68.3873C127.928 69.539 124.82 74.5135 125.972 79.4982L138.454 133.521C139.606 138.506 144.58 141.613 149.565 140.461C154.55 139.31 157.657 134.335 156.505 129.35L144.023 75.3274Z" fill="#FFCBB4"/>
<path d="M156.082 179.6H78.6045V197.66H156.082V179.6Z" fill="url(#paint4_linear_1017_5876)"/>
<path d="M153.988 181.691H80.6982V195.826H153.988V181.691Z" fill="#22A1E7"/>
<path d="M69.7241 107.695C66.8175 112.283 60.7513 113.662 56.1472 110.781L36.6286 98.1518C32.0408 95.2452 30.662 89.179 33.5425 84.5749C36.4491 79.9871 42.5153 78.6083 47.1195 81.4888L66.6381 94.1182C71.2258 97.0248 72.6047 103.091 69.7241 107.695Z" fill="url(#paint5_linear_1017_5876)"/>
<path d="M64.8243 134.426C61.8918 139.056 55.7704 140.448 51.1244 137.541L39.0342 128.725C34.4044 125.793 33.0126 119.671 35.9194 115.025C38.8519 110.396 44.9733 109.004 49.6193 111.911L61.7095 120.729C66.3378 123.661 67.7294 129.781 64.8243 134.426Z" fill="url(#paint6_linear_1017_5876)"/>
<g opacity="0.5">
<path d="M93.156 99.7084C106.158 99.7084 116.698 89.1684 116.698 76.1667C116.698 63.165 106.158 52.625 93.156 52.625C80.1542 52.625 69.6143 63.165 69.6143 76.1667C69.6143 89.1684 80.1542 99.7084 93.156 99.7084Z" fill="url(#paint7_linear_1017_5876)"/>
</g>
<path d="M93.1561 98.3239C105.393 98.3239 115.313 88.4038 115.313 76.1668C115.313 63.9298 105.393 54.0098 93.1561 54.0098C80.9191 54.0098 70.999 63.9298 70.999 76.1668C70.999 88.4038 80.9191 98.3239 93.1561 98.3239Z" fill="#39AF8B"/>
<path d="M83.5401 73.2082L91.848 80.8251L103.619 63.5156L107.775 66.9786L91.848 87.751L80.0771 74.5955L83.5401 73.2082Z" fill="white"/>
<path d="M63.8481 133.77C61.1131 138.086 55.4063 139.383 51.0747 136.673L39.7986 128.465C35.4829 125.73 34.186 120.023 36.8958 115.691C39.6308 111.375 45.3376 110.079 49.6691 112.788L60.9427 121.013C65.2498 123.746 66.5468 129.441 63.8481 133.77Z" fill="#FFCBB4"/>
<path d="M68.6501 107C65.9151 111.316 60.2083 112.612 55.8768 109.903L37.5125 98.0192C33.1968 95.2842 31.8999 89.5774 34.6097 85.2459C37.3446 80.9302 43.0515 79.6333 47.383 82.3431L65.7473 94.2265C70.063 96.9614 71.3599 102.668 68.6501 107Z" fill="#FFCBB4"/>
<path d="M74.7705 81.0864C71.8496 85.6943 65.756 87.0788 61.1308 84.1856L36.3955 68.0801C31.7876 65.1592 30.4031 59.0657 33.2964 54.4404C36.2173 49.8325 42.3109 48.448 46.9361 51.3413L71.6714 67.4467C76.2793 70.3676 77.6638 76.4612 74.7705 81.0864Z" fill="url(#paint8_linear_1017_5876)"/>
<path d="M73.4571 80.2498C70.7221 84.5655 65.0153 85.8624 60.6838 83.1526L37.5164 68.068C33.2007 65.3331 31.9038 59.6262 34.6136 55.2947C37.3485 50.979 43.0554 49.6821 47.3869 52.3919L70.5517 67.4765C74.8683 70.2106 76.1664 75.9176 73.4571 80.2498Z" fill="#FFCBB4"/>
</g>
<defs>
<linearGradient id="paint0_linear_1017_5876" x1="104.709" y1="188.009" x2="104.709" y2="112.301" gradientUnits="userSpaceOnUse">
<stop stop-color="#808080" stop-opacity="0.25"/>
<stop offset="0.54" stop-color="#808080" stop-opacity="0.12"/>
<stop offset="1" stop-color="#808080" stop-opacity="0.1"/>
</linearGradient>
<linearGradient id="paint1_linear_1017_5876" x1="58.0327" y1="58.2705" x2="58.0327" y2="19.1809" gradientUnits="userSpaceOnUse">
<stop stop-color="#808080" stop-opacity="0.25"/>
<stop offset="0.54" stop-color="#808080" stop-opacity="0.12"/>
<stop offset="1" stop-color="#808080" stop-opacity="0.1"/>
</linearGradient>
<linearGradient id="paint2_linear_1017_5876" x1="93.1575" y1="152.325" x2="93.1575" y2="-0.00261487" gradientUnits="userSpaceOnUse">
<stop stop-color="#808080" stop-opacity="0.25"/>
<stop offset="0.54" stop-color="#808080" stop-opacity="0.12"/>
<stop offset="1" stop-color="#808080" stop-opacity="0.1"/>
</linearGradient>
<linearGradient id="paint3_linear_1017_5876" x1="140.364" y1="138.125" x2="140.364" y2="65.5526" gradientUnits="userSpaceOnUse">
<stop stop-color="#808080" stop-opacity="0.25"/>
<stop offset="0.54" stop-color="#808080" stop-opacity="0.12"/>
<stop offset="1" stop-color="#808080" stop-opacity="0.1"/>
</linearGradient>
<linearGradient id="paint4_linear_1017_5876" x1="117.349" y1="197.655" x2="117.349" y2="179.594" gradientUnits="userSpaceOnUse">
<stop stop-color="#808080" stop-opacity="0.25"/>
<stop offset="0.54" stop-color="#808080" stop-opacity="0.12"/>
<stop offset="1" stop-color="#808080" stop-opacity="0.1"/>
</linearGradient>
<linearGradient id="paint5_linear_1017_5876" x1="51.6294" y1="112.286" x2="51.6294" y2="79.9864" gradientUnits="userSpaceOnUse">
<stop stop-color="#808080" stop-opacity="0.25"/>
<stop offset="0.54" stop-color="#808080" stop-opacity="0.12"/>
<stop offset="1" stop-color="#808080" stop-opacity="0.1"/>
</linearGradient>
<linearGradient id="paint6_linear_1017_5876" x1="50.3732" y1="139.059" x2="50.3732" y2="110.39" gradientUnits="userSpaceOnUse">
<stop stop-color="#808080" stop-opacity="0.25"/>
<stop offset="0.54" stop-color="#808080" stop-opacity="0.12"/>
<stop offset="1" stop-color="#808080" stop-opacity="0.1"/>
</linearGradient>
<linearGradient id="paint7_linear_1017_5876" x1="93.156" y1="99.7084" x2="93.156" y2="52.6224" gradientUnits="userSpaceOnUse">
<stop stop-color="#808080" stop-opacity="0.25"/>
<stop offset="0.54" stop-color="#808080" stop-opacity="0.12"/>
<stop offset="1" stop-color="#808080" stop-opacity="0.1"/>
</linearGradient>
<linearGradient id="paint8_linear_1017_5876" x1="54.0321" y1="85.7063" x2="54.0321" y2="49.8389" gradientUnits="userSpaceOnUse">
<stop stop-color="#808080" stop-opacity="0.25"/>
<stop offset="0.54" stop-color="#808080" stop-opacity="0.12"/>
<stop offset="1" stop-color="#808080" stop-opacity="0.1"/>
</linearGradient>
<clipPath id="clip0_1017_5876">
<rect width="190.165" height="198.692" fill="white" transform="translate(0.293945)"/>
</clipPath>
</defs>
</svg>
