<svg width="24" height="24" viewBox="0 0 24 24" fill="none" xmlns="http://www.w3.org/2000/svg">
<path d="M12.0004 11.4286C15.1563 11.4286 17.7147 8.8702 17.7147 5.71429C17.7147 2.55837 15.1563 0 12.0004 0C8.84451 0 6.28613 2.55837 6.28613 5.71429C6.28613 8.8702 8.84451 11.4286 12.0004 11.4286Z" fill="#9A99A0"/>
<path d="M13.2115 12.5713H10.7886C9.36735 12.5758 7.96087 12.8602 6.6495 13.4082C5.33813 13.9563 4.14755 14.7573 3.14574 15.7655C2.14392 16.7736 1.3505 17.9693 0.81076 19.2841C0.271023 20.5989 -0.00445512 22.0072 5.44834e-05 23.4284C5.44834e-05 23.58 0.0602585 23.7253 0.167422 23.8325C0.274586 23.9397 0.419931 23.9999 0.571483 23.9999H23.4286C23.5872 23.9854 23.7344 23.9113 23.8405 23.7925C23.9466 23.6737 24.0036 23.5191 24.0001 23.3599C23.994 20.5004 22.8554 17.7598 20.8335 15.7379C18.8115 13.7159 16.0709 12.5773 13.2115 12.5713Z" fill="#9A99A0"/>
</svg>
