<svg width="60" height="60" viewBox="0 0 60 60" fill="none" xmlns="http://www.w3.org/2000/svg">
<circle cx="30" cy="30" r="30" fill="#D9D9D9"/>
<path d="M30.7318 29.2679C28.7196 29.2679 26.997 28.5515 25.5641 27.1185C24.1312 25.6856 23.4147 23.9631 23.4147 21.9509C23.4147 19.9387 24.1312 18.2161 25.5641 16.7832C26.997 15.3503 28.7196 14.6338 30.7318 14.6338C32.744 14.6338 34.4666 15.3503 35.8995 16.7832C37.3324 18.2161 38.0489 19.9387 38.0489 21.9509C38.0489 23.9631 37.3324 25.6856 35.8995 27.1185C34.4666 28.5515 32.744 29.2679 30.7318 29.2679ZM19.7562 43.9021C18.7501 43.9021 17.8891 43.5442 17.1733 42.8283C16.4562 42.1112 16.0977 41.2496 16.0977 40.2435V38.7801C16.0977 37.7435 16.3647 36.7905 16.8989 35.921C17.4318 35.0527 18.1403 34.3899 19.0245 33.9326C20.9147 32.9874 22.8355 32.2783 24.7867 31.8051C26.7379 31.3332 28.7196 31.0972 30.7318 31.0972C32.744 31.0972 34.7257 31.3332 36.6769 31.8051C38.6281 32.2783 40.5489 32.9874 42.4391 33.9326C43.3233 34.3899 44.0318 35.0527 44.5647 35.921C45.0989 36.7905 45.3659 37.7435 45.3659 38.7801V40.2435C45.3659 41.2496 45.008 42.1112 44.2922 42.8283C43.5751 43.5442 42.7135 43.9021 41.7074 43.9021H19.7562Z" fill="#22A1E7"/>
</svg>
