<svg width="25" height="25" viewBox="0 0 25 25" fill="none" xmlns="http://www.w3.org/2000/svg">
<g clip-path="url(#clip0_7_11707)">
<path d="M12.5 13.2813C11.5729 13.2813 10.6666 13.0063 9.89577 12.4913C9.12491 11.9762 8.5241 11.2441 8.16932 10.3876C7.81453 9.53105 7.7217 8.58855 7.90257 7.67927C8.08344 6.76998 8.52988 5.93475 9.18544 5.27919C9.841 4.62363 10.6762 4.17719 11.5855 3.99632C12.4948 3.81545 13.4373 3.90828 14.2938 4.26307C15.1504 4.61785 15.8824 5.21866 16.3975 5.98952C16.9126 6.76037 17.1875 7.66665 17.1875 8.59375C17.1875 9.83695 16.6936 11.0292 15.8146 11.9083C14.9355 12.7874 13.7432 13.2813 12.5 13.2813ZM12.5 5.46875C11.8819 5.46875 11.2777 5.65203 10.7638 5.99541C10.2499 6.33879 9.8494 6.82685 9.61288 7.39787C9.37635 7.96889 9.31447 8.59722 9.43505 9.20341C9.55563 9.8096 9.85325 10.3664 10.2903 10.8035C10.7273 11.2405 11.2842 11.5381 11.8903 11.6587C12.4965 11.7793 13.1249 11.7174 13.6959 11.4809C14.2669 11.2444 14.755 10.8438 15.0983 10.3299C15.4417 9.81601 15.625 9.21182 15.625 8.59375C15.625 7.76495 15.2958 6.97009 14.7097 6.38404C14.1237 5.79799 13.3288 5.46875 12.5 5.46875Z" fill="#9A99A0"/>
<path d="M12.5 24.219C10.7675 24.2178 9.05687 23.8326 7.49117 23.0909C5.92548 22.3493 4.5437 21.2697 3.44531 19.9299L3.03906 19.4299L3.44531 18.9378C4.54462 17.5997 5.92681 16.5219 7.49246 15.782C9.0581 15.042 10.7683 14.6582 12.5 14.6582C14.2317 14.6582 15.9419 15.042 17.5075 15.782C19.0732 16.5219 20.4554 17.5997 21.5547 18.9378L21.9609 19.4299L21.5547 19.9299C20.4563 21.2697 19.0745 22.3493 17.5088 23.0909C15.9431 23.8326 14.2325 24.2178 12.5 24.219ZM5.08594 19.4378C6.03612 20.455 7.18526 21.266 8.46201 21.8205C9.73875 22.375 11.1159 22.6611 12.5078 22.6611C13.8998 22.6611 15.2769 22.375 16.5536 21.8205C17.8304 21.266 18.9795 20.455 19.9297 19.4378C18.9795 18.4206 17.8304 17.6095 16.5536 17.055C15.2769 16.5005 13.8998 16.2144 12.5078 16.2144C11.1159 16.2144 9.73875 16.5005 8.46201 17.055C7.18526 17.6095 6.03612 18.4206 5.08594 19.4378Z" fill="#9A99A0"/>
<path d="M12.5 24.2188C9.83809 24.2205 7.25488 23.316 5.17555 21.654C3.09621 19.992 1.64466 17.6716 1.0598 15.0748C0.474945 12.4779 0.79163 9.75928 1.95774 7.36638C3.12385 4.97347 5.06989 3.04886 7.47556 1.90933C9.88124 0.769801 12.6032 0.483248 15.1934 1.09683C17.7837 1.71042 20.0878 3.18758 21.7267 5.2852C23.3655 7.38282 24.2414 9.97589 24.2101 12.6376C24.1789 15.2994 23.2424 17.8711 21.5547 19.9297C20.4563 21.2695 19.0745 22.349 17.5088 23.0907C15.9431 23.8323 14.2325 24.2176 12.5 24.2188ZM12.5 2.34376C10.4913 2.34376 8.52769 2.93941 6.8575 4.0554C5.18731 5.17138 3.88556 6.75757 3.11686 8.61338C2.34816 10.4692 2.14703 12.5113 2.53891 14.4814C2.93079 16.4515 3.89808 18.2612 5.31846 19.6816C6.73883 21.1019 8.54851 22.0692 10.5186 22.4611C12.4887 22.853 14.5308 22.6519 16.3866 21.8832C18.2424 21.1145 19.8286 19.8127 20.9446 18.1425C22.0606 16.4723 22.6563 14.5087 22.6563 12.5C22.6563 9.8064 21.5862 7.22312 19.6816 5.31846C17.7769 3.41379 15.1936 2.34376 12.5 2.34376Z" fill="#9A99A0"/>
<path d="M4.04688 19.4373C4.04688 19.4373 11.9141 28.2264 19.9219 20.3123L20.9531 19.4373C20.9531 19.4373 14.2656 12.4998 7.47656 16.6639L4.04688 19.4373Z" fill="#9A99A0"/>
<path d="M12.5 12.5C14.6574 12.5 16.4062 10.7511 16.4062 8.59375C16.4062 6.43639 14.6574 4.6875 12.5 4.6875C10.3426 4.6875 8.59375 6.43639 8.59375 8.59375C8.59375 10.7511 10.3426 12.5 12.5 12.5Z" fill="#9A99A0"/>
</g>
<defs>
<clipPath id="clip0_7_11707">
<rect width="25" height="25" fill="white"/>
</clipPath>
</defs>
</svg>
