<svg width="24" height="24" viewBox="0 0 24 24" fill="none" xmlns="http://www.w3.org/2000/svg">
<path d="M17 5C17 4.40666 17.1759 3.82664 17.5056 3.33329C17.8352 2.83994 18.3038 2.45543 18.8519 2.22836C19.4001 2.0013 20.0033 1.94189 20.5853 2.05765C21.1672 2.1734 21.7018 2.45912 22.1213 2.87868C22.5409 3.29824 22.8266 3.83279 22.9424 4.41473C23.0581 4.99667 22.9987 5.59987 22.7716 6.14805C22.5446 6.69623 22.1601 7.16477 21.6667 7.49441C21.1734 7.82405 20.5933 8 20 8C19.2044 8 18.4413 7.68393 17.8787 7.12132C17.3161 6.55871 17 5.79565 17 5ZM2 6H14C14.2652 6 14.5196 5.89464 14.7071 5.70711C14.8946 5.51957 15 5.26522 15 5C15 4.73478 14.8946 4.48043 14.7071 4.29289C14.5196 4.10536 14.2652 4 14 4H2C1.73478 4 1.48043 4.10536 1.29289 4.29289C1.10536 4.48043 1 4.73478 1 5C1 5.26522 1.10536 5.51957 1.29289 5.70711C1.48043 5.89464 1.73478 6 2 6ZM8 9C7.38106 9.00174 6.7778 9.19488 6.27293 9.55294C5.76807 9.911 5.38631 10.4165 5.18 11H2C1.73478 11 1.48043 11.1054 1.29289 11.2929C1.10536 11.4804 1 11.7348 1 12C1 12.2652 1.10536 12.5196 1.29289 12.7071C1.48043 12.8946 1.73478 13 2 13H5.18C5.36345 13.5189 5.6861 13.9773 6.11264 14.3251C6.53918 14.6729 7.05317 14.8966 7.59836 14.9718C8.14355 15.0471 8.69893 14.9709 9.20371 14.7516C9.70849 14.5323 10.1432 14.1784 10.4603 13.7286C10.7775 13.2788 10.9647 12.7504 11.0017 12.2013C11.0386 11.6522 10.9238 11.1035 10.6697 10.6153C10.4157 10.1271 10.0323 9.71812 9.5614 9.43323C9.09052 9.14833 8.55035 8.99846 8 9ZM22 11H14C13.7348 11 13.4804 11.1054 13.2929 11.2929C13.1054 11.4804 13 11.7348 13 12C13 12.2652 13.1054 12.5196 13.2929 12.7071C13.4804 12.8946 13.7348 13 14 13H22C22.2652 13 22.5196 12.8946 22.7071 12.7071C22.8946 12.5196 23 12.2652 23 12C23 11.7348 22.8946 11.4804 22.7071 11.2929C22.5196 11.1054 22.2652 11 22 11ZM10 18H2C1.73478 18 1.48043 18.1054 1.29289 18.2929C1.10536 18.4804 1 18.7348 1 19C1 19.2652 1.10536 19.5196 1.29289 19.7071C1.48043 19.8946 1.73478 20 2 20H10C10.2652 20 10.5196 19.8946 10.7071 19.7071C10.8946 19.5196 11 19.2652 11 19C11 18.7348 10.8946 18.4804 10.7071 18.2929C10.5196 18.1054 10.2652 18 10 18ZM22 18H18.82C18.5841 17.3328 18.1199 16.7704 17.5095 16.4124C16.8991 16.0543 16.1818 15.9235 15.4843 16.0432C14.7868 16.1629 14.154 16.5253 13.6979 17.0663C13.2418 17.6074 12.9916 18.2923 12.9916 19C12.9916 19.7077 13.2418 20.3926 13.6979 20.9337C14.154 21.4747 14.7868 21.8371 15.4843 21.9568C16.1818 22.0765 16.8991 21.9457 17.5095 21.5876C18.1199 21.2296 18.5841 20.6672 18.82 20H22C22.2652 20 22.5196 19.8946 22.7071 19.7071C22.8946 19.5196 23 19.2652 23 19C23 18.7348 22.8946 18.4804 22.7071 18.2929C22.5196 18.1054 22.2652 18 22 18Z" fill="#9A99A0"/>
</svg>
