<svg width="56" height="56" viewBox="0 0 56 56" fill="none" xmlns="http://www.w3.org/2000/svg">
<g clip-path="url(#clip0_2617_33313)">
<path d="M51.065 8.74989C41.5093 8.74989 34.1889 6.01978 27.9983 0C21.8086 6.01978 14.4884 8.74989 4.93356 8.74989C4.93356 24.4251 1.68991 46.8812 27.9983 56C54.3085 46.8811 51.065 24.4251 51.065 8.74989Z" fill="#22A1E7"/>
<path d="M28 15.8594C21.3076 15.8594 15.8594 21.3076 15.8594 28C15.8594 34.6924 21.3076 40.1406 28 40.1406C34.6924 40.1406 40.1406 34.6924 40.1406 28C40.1406 21.3076 34.6924 15.8594 28 15.8594ZM28 37.6272C22.6922 37.6272 18.3728 33.3078 18.3728 28C18.3728 22.6922 22.6922 18.3728 28 18.3728C33.3078 18.3728 37.6272 22.6922 37.6272 28C37.6272 33.3078 33.3078 37.6272 28 37.6272Z" fill="white"/>
<path d="M30.0718 27.3176C29.4849 26.9915 28.8628 26.7507 28.2457 26.4948C27.8895 26.3494 27.5484 26.1738 27.2474 25.933C26.6554 25.4564 26.7658 24.6888 27.4631 24.3828C27.6588 24.2975 27.8644 24.2674 28.0751 24.2574C28.8829 24.2122 29.6454 24.3627 30.3779 24.7139C30.7391 24.8895 30.8595 24.8343 30.9849 24.458C31.1153 24.0567 31.2257 23.6503 31.3411 23.249C31.4213 22.9781 31.321 22.7975 31.0652 22.6871C30.5986 22.4814 30.117 22.3309 29.6103 22.2557C28.9531 22.1503 28.9531 22.1503 28.9481 21.4881C28.9431 20.5499 28.9431 20.5499 28.0099 20.555C27.8745 20.555 27.739 20.5499 27.6036 20.555C27.1671 20.57 27.0919 20.6453 27.0818 21.0817C27.0768 21.2774 27.0818 21.4781 27.0818 21.6737C27.0768 22.2607 27.0768 22.2506 26.5149 22.4513C25.1604 22.943 24.3226 23.866 24.2323 25.346C24.152 26.6554 24.8343 27.5383 25.9079 28.1805C26.5701 28.5768 27.3026 28.8126 28.0049 29.1236C28.2808 29.244 28.5417 29.3845 28.7675 29.5751C29.4447 30.132 29.3193 31.0601 28.5166 31.4113C28.0852 31.5969 27.6337 31.6471 27.1721 31.5869C26.4547 31.4966 25.7674 31.311 25.1253 30.9748C24.749 30.7792 24.6386 30.8293 24.5082 31.2407C24.3978 31.5969 24.2975 31.9531 24.2022 32.3093C24.0718 32.7909 24.1169 32.9063 24.5784 33.127C25.1604 33.408 25.7875 33.5535 26.4246 33.6588C26.9213 33.7391 26.9414 33.7591 26.9464 34.2759C26.9464 34.5117 26.9514 34.7475 26.9514 34.9782C26.9564 35.2742 27.0969 35.4448 27.4029 35.4498C27.7491 35.4548 28.0952 35.4548 28.4414 35.4498C28.7223 35.4448 28.8678 35.2893 28.8728 35.0033C28.8728 34.6822 28.8879 34.3612 28.8778 34.0401C28.8628 33.714 29.0033 33.5484 29.3193 33.4632C30.0417 33.2675 30.6588 32.8762 31.1354 32.2993C32.4398 30.6939 31.9381 28.3511 30.0718 27.3176Z" fill="white"/>
</g>
<defs>
<clipPath id="clip0_2617_33313">
<rect width="56" height="56" fill="white"/>
</clipPath>
</defs>
</svg>
