<svg width="23" height="23" viewBox="0 0 23 23" fill="none" xmlns="http://www.w3.org/2000/svg">
<g clip-path="url(#clip0_7_11702)">
<path d="M22.3262 5.42539H21.6063V4.09014C21.6063 3.718 21.3046 3.41631 20.9325 3.41631C20.5603 3.41631 20.2586 3.718 20.2586 4.09014V5.42544H19.6286C19.2565 5.42544 18.9548 5.72713 18.9548 6.09927V9.48076H23V6.09927C23 5.72709 22.6983 5.42539 22.3262 5.42539ZM18.9548 10.8284H23V18.2753H18.9548V10.8284ZM20.4231 22.7094C20.6908 23.0965 21.264 23.0965 21.5316 22.7094C22.1643 21.7943 22.78 21.0454 22.9587 19.623H18.9961C19.1764 21.058 19.8242 21.8432 20.4231 22.7094ZM16.8457 0H0.673828C0.301695 0 0 0.301695 0 0.673828V22.3262C0 22.6983 0.301695 23 0.673828 23H12.1312V18.2383C12.1312 17.8661 12.4328 17.5645 12.805 17.5645H17.5195V0.673828C17.5195 0.301695 17.2178 0 16.8457 0ZM8.08818 4.11893V3.41631C8.08818 3.04418 8.38988 2.74248 8.76201 2.74248C9.13414 2.74248 9.43584 3.04418 9.43584 3.41631V4.08564H10.1097C10.4818 4.08564 10.7835 4.38734 10.7835 4.75947C10.7835 5.13161 10.4818 5.4333 10.1097 5.4333H8.42173C8.23535 5.4333 8.08369 5.58491 8.08369 5.77129C8.08369 5.95767 8.2353 6.10933 8.42173 6.10933H9.0978C10.0273 6.10933 10.7835 6.86554 10.7835 7.79502C10.7835 8.60878 10.2039 9.28966 9.43584 9.44662V10.1545C9.43584 10.5267 9.13414 10.8284 8.76201 10.8284C8.38988 10.8284 8.08818 10.5267 8.08818 10.1545V9.48072H7.41436C7.04222 9.48072 6.74053 9.17902 6.74053 8.80689C6.74053 8.43476 7.04222 8.13306 7.41436 8.13306H9.0978C9.28418 8.13306 9.43584 7.98145 9.43584 7.79507C9.43584 7.60869 9.28418 7.45703 9.0978 7.45703H8.42173C7.49225 7.45703 6.73603 6.70082 6.73603 5.77134C6.73603 4.95601 7.31791 4.27418 8.08818 4.11893ZM8.76201 18.9121H3.37139C2.99925 18.9121 2.69756 18.6104 2.69756 18.2383C2.69756 17.8661 2.99925 17.5645 3.37139 17.5645H8.76201C9.13414 17.5645 9.43584 17.8661 9.43584 18.2383C9.43584 18.6104 9.13414 18.9121 8.76201 18.9121ZM14.1526 16.2168H3.37139C2.99925 16.2168 2.69756 15.9151 2.69756 15.543C2.69756 15.1708 2.99925 14.8691 3.37139 14.8691H14.1526C14.5248 14.8691 14.8265 15.1708 14.8265 15.543C14.8265 15.9151 14.5248 16.2168 14.1526 16.2168ZM14.1526 13.5215H3.37139C2.99925 13.5215 2.69756 13.2198 2.69756 12.8477C2.69756 12.4755 2.99925 12.1738 3.37139 12.1738H14.1526C14.5248 12.1738 14.8265 12.4755 14.8265 12.8477C14.8265 13.2198 14.5248 13.5215 14.1526 13.5215Z" fill="#9A99A0"/>
<path d="M13.479 22.603L17.1273 18.9121H13.479V22.603Z" fill="#9A99A0"/>
</g>
<defs>
<clipPath id="clip0_7_11702">
<rect width="23" height="23" fill="white"/>
</clipPath>
</defs>
</svg>
