<svg width="24" height="24" viewBox="0 0 24 24" fill="none" xmlns="http://www.w3.org/2000/svg">
<g clip-path="url(#clip0_7_13983)">
<path d="M12 10.9999C11.4487 10.9999 11 11.4487 11 11.9999C11 12.3652 11.2067 12.6716 11.5 12.8461V13.4999C11.5 13.5656 11.5129 13.6306 11.538 13.6913C11.5631 13.752 11.5999 13.8071 11.6464 13.8536C11.6928 13.9 11.748 13.9368 11.8086 13.9619C11.8693 13.9871 11.9344 14 12 13.9999C12.0657 14 12.1307 13.9871 12.1914 13.9619C12.2521 13.9368 12.3073 13.9 12.3537 13.8536C12.4001 13.8071 12.437 13.752 12.4621 13.6913C12.4872 13.6306 12.5001 13.5656 12.5 13.4999V12.8461C12.7934 12.6716 13.0001 12.3651 13.0001 11.9999C13 11.4487 12.5512 10.9999 12 10.9999ZM12 7C11.1728 7 10.5 7.67284 10.5 8.49999V9H13.5V8.49999C13.5 7.67284 12.8271 7 12 7Z" fill="#9A99A0"/>
<path d="M20.6663 3.02855L12.1664 0.0285837C12.0587 -0.00952789 11.9411 -0.00952789 11.8334 0.0285837L3.33351 3.02855C3.23601 3.0631 3.1516 3.127 3.09188 3.21146C3.03216 3.29593 3.00006 3.39681 3 3.50025V9.50019C3 17.2648 4.15138 20.1027 11.7748 23.9464C11.8456 23.982 11.9228 24.0001 11.9999 24.0001C12.0781 24 12.1552 23.9816 12.225 23.9464C19.8484 20.1027 20.9998 17.2648 20.9998 9.50019V3.50025C20.9998 3.28833 20.866 3.09938 20.6663 3.02855ZM16.4999 15.0001C16.4999 15.5514 16.0511 16.0001 15.4999 16.0001H8.49993C7.94869 16.0001 7.49996 15.5514 7.49996 15.0001V10.0002C7.49996 9.44896 7.94869 9.00023 8.49993 9.00023V8.50022C8.49993 6.57054 10.0702 5.00024 11.9999 5.00024C13.9296 5.00024 15.4999 6.57054 15.4999 8.50022V9.00023C16.0511 9.00023 16.4999 9.44896 16.4999 10.0002V15.0001Z" fill="#9A99A0"/>
</g>
<defs>
<clipPath id="clip0_7_13983">
<rect width="24" height="24" fill="white"/>
</clipPath>
</defs>
</svg>
