<svg width="24" height="24" viewBox="0 0 24 24" fill="none" xmlns="http://www.w3.org/2000/svg">
<g clip-path="url(#clip0_7_11718)">
<path d="M23.924 10.6175C23.873 10.4955 23.8 10.3845 23.707 10.2915L20.708 7.2925C20.317 6.9025 19.685 6.9025 19.294 7.2925C18.903 7.68348 18.903 8.31648 19.294 8.70648L20.587 9.99948H15.001C14.448 9.99948 14.001 10.4475 14.001 10.9995C14.001 11.5515 14.448 11.9995 15.001 11.9995H20.587L19.294 13.2925C18.903 13.6834 18.903 14.3164 19.294 14.7064C19.489 14.9024 19.7449 14.9995 20.001 14.9995C20.257 14.9995 20.513 14.9025 20.708 14.7064L23.707 11.7074C23.8 11.6154 23.873 11.5044 23.924 11.3814C24.025 11.1368 24.025 10.8621 23.924 10.6175Z" fill="#9A99A0"/>
<path d="M17.0009 14C16.448 14 16.001 14.448 16.001 15V20H12.001V3.99998C12.001 3.55898 11.711 3.16898 11.288 3.042L7.81495 2.00002H16.001V7.00003C16.001 7.55203 16.448 8.00002 17.0009 8.00002C17.5539 8.00002 18.0009 7.55203 18.0009 7.00003V1.00003C18.0009 0.447984 17.5539 0 17.0009 0H1.00096C0.964961 0 0.932945 0.015 0.897977 0.0189844C0.850961 0.024 0.807977 0.0319688 0.762977 0.0429844C0.660749 0.0689195 0.563231 0.110758 0.473992 0.166969C0.452008 0.180984 0.425008 0.181969 0.404008 0.197953C0.395945 0.204 0.392945 0.215016 0.38493 0.221016C0.275945 0.306984 0.184961 0.411984 0.118961 0.537C0.104945 0.564 0.101945 0.593016 0.0909766 0.621C0.0589609 0.696984 0.0239922 0.771 0.0119922 0.855C0.00697656 0.885 0.0159766 0.912984 0.0149922 0.942C0.0140078 0.962016 0.000976562 0.980016 0.000976562 0.999984V21C0.000976562 21.477 0.337961 21.887 0.804977 21.98L10.805 23.98C10.87 23.994 10.936 24 11.0009 24C11.2322 24 11.4562 23.9198 11.6349 23.773C11.7493 23.6792 11.8414 23.5612 11.9046 23.4276C11.9679 23.2939 12.0008 23.1479 12.0009 23V22H17.0009C17.5539 22 18.0009 21.552 18.0009 21V15C18.0009 14.448 17.5539 14 17.0009 14Z" fill="#9A99A0"/>
</g>
<defs>
<clipPath id="clip0_7_11718">
<rect width="24" height="24" fill="white"/>
</clipPath>
</defs>
</svg>
