<svg width="17" height="17" viewBox="0 0 17 17" fill="none" xmlns="http://www.w3.org/2000/svg">
<path d="M16.0842 10.8329C15.9513 10.7001 15.7712 10.6255 15.5834 10.6255C15.3956 10.6255 15.2154 10.7001 15.0826 10.8329L12.75 13.1654V2.12533C12.75 1.93746 12.6754 1.7573 12.5426 1.62446C12.4097 1.49162 12.2296 1.41699 12.0417 1.41699C11.8538 1.41699 11.6737 1.49162 11.5408 1.62446C11.408 1.7573 11.3334 1.93746 11.3334 2.12533V13.1654L9.00084 10.8329C8.86724 10.7038 8.68832 10.6324 8.50259 10.6341C8.31687 10.6357 8.13921 10.7102 8.00788 10.8415C7.87655 10.9728 7.80206 11.1505 7.80044 11.3362C7.79883 11.5219 7.87022 11.7009 7.99925 11.8345L11.5409 15.3761C11.6067 15.4421 11.6849 15.4944 11.7709 15.5301C11.857 15.5658 11.9492 15.5842 12.0424 15.5842C12.1356 15.5842 12.2278 15.5658 12.3139 15.5301C12.4 15.4944 12.4781 15.4421 12.5439 15.3761L16.0856 11.8345C16.2182 11.7014 16.2925 11.5212 16.2923 11.3334C16.292 11.1455 16.2171 10.9655 16.0842 10.8329ZM9.00084 5.1662L5.45917 1.62453C5.3932 1.55843 5.31469 1.50617 5.22825 1.47083C5.05497 1.3992 4.86037 1.3992 4.68709 1.47083C4.60065 1.50617 4.52214 1.55843 4.45617 1.62453L0.914503 5.1662C0.781685 5.29921 0.707143 5.47953 0.707276 5.66749C0.707408 5.85546 0.782205 6.03567 0.915211 6.16849C1.04822 6.30131 1.22854 6.37585 1.4165 6.37572C1.60447 6.37559 1.78468 6.30079 1.9175 6.16778L4.25004 3.83524V14.8753C4.25004 15.0632 4.32467 15.2434 4.45751 15.3762C4.59035 15.509 4.77052 15.5837 4.95838 15.5837C5.14624 15.5837 5.32641 15.509 5.45924 15.3762C5.59208 15.2434 5.66671 15.0632 5.66671 14.8753V3.83524L7.99925 6.16778C8.13285 6.29681 8.31177 6.36821 8.49749 6.36659C8.68322 6.36498 8.86088 6.29049 8.99221 6.15916C9.12354 6.02782 9.19803 5.85017 9.19965 5.66444C9.20126 5.47872 9.12986 5.29979 9.00084 5.1662Z" fill="#464646"/>
</svg>
