<svg width="140" height="128" viewBox="0 0 140 128" fill="none" xmlns="http://www.w3.org/2000/svg">
<g opacity="0.2">
<path d="M88.286 12.9112L12.6548 33.1765L40.6772 142.529L120.76 119.792L117.201 106.509L111.942 93.0646L110.761 82.4743L92.8236 15.531C92.2941 13.5546 90.2624 12.3816 88.286 12.9112Z" fill="#CDE2FF"/>
<path d="M112.68 118.122L111.684 114.553L12.654 33.1768C10.6775 33.7064 9.50454 35.7381 10.0341 37.7145L37.9708 141.976C38.5004 143.952 40.5321 145.125 42.5085 144.596L118.14 124.33C120.116 123.801 121.289 121.769 120.759 119.793L110.061 122.659C112.037 122.13 113.21 120.098 112.68 118.122ZM110.76 82.4747L98.09 63.8189L87.1329 62.2587L117.2 106.509L110.76 82.4747Z" fill="#9EC8FC"/>
<path d="M79.2098 7.6719L3.57866 27.9372L31.601 137.29L111.684 114.553L104.534 87.868L94.6605 63.241L95.1108 52.7003L83.7475 10.2917C83.2179 8.3153 81.1862 7.14231 79.2098 7.6719Z" fill="#EDF6FF"/>
<path d="M95.1103 52.6996L85.331 45.5069C84.0955 44.5891 82.3949 45.7444 82.7933 47.2312L86.3786 60.6117C86.5359 61.1989 86.7906 61.7553 87.1322 62.2581L104.533 87.8673L95.1103 52.6996Z" fill="#CDE2FF"/>
<path d="M94.972 109.441L40.8134 123.953C40.3388 124.08 39.8332 124.014 39.4077 123.768C38.9822 123.522 38.6717 123.118 38.5446 122.643C38.4174 122.168 38.484 121.663 38.7296 121.237C38.9753 120.812 39.3799 120.501 39.8545 120.374L94.013 105.862C94.4876 105.735 94.9933 105.802 95.4188 106.047C95.8443 106.293 96.1547 106.698 96.2819 107.172C96.409 107.647 96.3425 108.153 96.0968 108.578C95.8512 109.004 95.4465 109.314 94.972 109.441ZM92.0952 98.7049L37.9366 113.217C37.4621 113.344 36.9564 113.277 36.5309 113.032C36.1054 112.786 35.795 112.381 35.6678 111.907C35.5406 111.432 35.6072 110.926 35.8529 110.501C36.0985 110.076 36.5031 109.765 36.9777 109.638L91.1363 95.1261C91.6108 94.999 92.1165 95.0655 92.542 95.3112C92.9675 95.5569 93.278 95.9615 93.4051 96.4361C93.5323 96.9106 93.4657 97.4163 93.2201 97.8418C92.9744 98.2673 92.5698 98.5777 92.0952 98.7049ZM89.2184 87.9686L35.0599 102.48C34.5853 102.608 34.0796 102.541 33.6541 102.295C33.2287 102.05 32.9182 101.645 32.791 101.17C32.6639 100.696 32.7304 100.19 32.9761 99.7647C33.2217 99.3392 33.6264 99.0288 34.1009 98.9016L88.2595 84.3899C88.7341 84.2627 89.2397 84.3293 89.6652 84.5749C90.0907 84.8206 90.4012 85.2252 90.5283 85.6998C90.6555 86.1744 90.5889 86.68 90.3433 87.1055C90.0976 87.531 89.693 87.8415 89.2184 87.9686ZM81.57 78.5109L32.1831 91.7441C31.7085 91.8712 31.2029 91.8047 30.7774 91.559C30.3519 91.3134 30.0414 90.9087 29.9142 90.4342C29.7871 89.9596 29.8536 89.4539 30.0993 89.0285C30.345 88.603 30.7496 88.2925 31.2242 88.1653L80.611 74.9322C81.0856 74.805 81.5913 74.8716 82.0168 75.1172C82.4422 75.3629 82.7527 75.7675 82.8799 76.2421C83.007 76.7166 82.9405 77.2223 82.6948 77.6478C82.4492 78.0733 82.0445 78.3837 81.57 78.5109ZM83.4649 66.4961L29.3063 81.0078C28.8317 81.135 28.3261 81.0684 27.9006 80.8227C27.4751 80.5771 27.1646 80.1725 27.0375 79.6979C26.9103 79.2233 26.9769 78.7177 27.2225 78.2922C27.4682 77.8667 27.8728 77.5562 28.3474 77.4291L82.5059 62.9173C82.9805 62.7901 83.4862 62.8567 83.9117 63.1024C84.3371 63.348 84.6476 63.7527 84.7748 64.2272C84.9019 64.7018 84.8354 65.2074 84.5897 65.6329C84.3441 66.0584 83.9394 66.3689 83.4649 66.4961ZM80.5881 55.7598L26.4295 70.2715C25.955 70.3987 25.4493 70.3321 25.0238 70.0865C24.5983 69.8408 24.2878 69.4362 24.1607 68.9616C24.0335 68.487 24.1001 67.9814 24.3458 67.5559C24.5914 67.1304 24.996 66.8199 25.4706 66.6928L79.6292 52.181C80.1037 52.0539 80.6094 52.1204 81.0349 52.3661C81.4604 52.6118 81.7708 53.0164 81.898 53.4909C82.0252 53.9655 81.9586 54.4712 81.7129 54.8967C81.4673 55.3222 81.0627 55.6326 80.5881 55.7598ZM23.5528 59.5353C23.0784 59.6632 22.5726 59.5975 22.1467 59.3525C21.7208 59.1076 21.4097 58.7035 21.2817 58.2291C21.1538 57.7548 21.2195 57.249 21.4645 56.8231C21.7094 56.3972 22.1135 56.0861 22.5879 55.9581L58.1049 46.3135C59.0991 46.0425 60.11 46.6285 60.3781 47.6158C60.6462 48.6032 60.0631 49.6209 59.0758 49.889L23.5587 59.5337L23.5528 59.5353ZM63.4867 29.6565L28.1882 39.1147C27.7136 39.2419 27.2079 39.1753 26.7824 38.9296C26.357 38.684 26.0465 38.2794 25.9193 37.8048C25.7922 37.3302 25.8587 36.8246 26.1044 36.3991C26.35 35.9736 26.7547 35.6631 27.2292 35.5359L62.5277 26.0777C63.0023 25.9506 63.5079 26.0171 63.9334 26.2628C64.3589 26.5085 64.6694 26.9131 64.7966 27.3876C64.9237 27.8622 64.8572 28.3679 64.6115 28.7934C64.3658 29.2189 63.9612 29.5293 63.4867 29.6565Z" fill="#7E8B96"/>
<path d="M31.5155 132.198L3.57876 27.9366C1.60233 28.4662 0.429343 30.4978 0.958926 32.4743L28.8956 136.735C29.4252 138.712 31.4569 139.885 33.4333 139.355L109.064 119.09C111.041 118.56 112.214 116.529 111.684 114.552L36.0531 134.818C34.0767 135.347 32.045 134.174 31.5155 132.198Z" fill="#CDE2FF"/>
<path d="M87.9527 40.9694L87.9509 45.7346L90.5349 50.6063L94.5475 45.8688L87.9527 40.9694Z" fill="#7E8B96"/>
<path d="M85.4134 42.6931L87.5397 50.6287L90.5334 50.6057L87.9512 40.9688C86.7154 40.051 85.015 41.2063 85.4134 42.6931Z" fill="#5F6C75"/>
<path d="M94.547 45.869L90.0741 48.8887L89.6272 55.1648C89.8875 56.0657 93.5803 57.2255 93.5803 57.2255L100.325 50.5377C99.9835 50.035 99.5599 49.5932 99.072 49.2308L94.547 45.869Z" fill="#E0BBA4"/>
<path d="M92.6009 55.7854C92.1741 55.1574 91.5388 54.2877 91.2785 53.3868L90.0732 48.8887L87.5399 50.6295L88.9989 56.0745C89.1562 56.6616 89.4109 57.2181 89.7525 57.7208L93.5793 57.2256L92.6009 55.7854Z" fill="#D8AB8C"/>
<path d="M92.6012 55.7847L125.804 107.574C126.502 108.601 128.329 108.11 130.685 106.51C134.177 104.137 134.886 101.402 134.886 101.402L100.324 50.537L92.6012 55.7847Z" fill="#FFD064"/>
<path d="M126.655 105.835L92.6012 55.7843L89.753 57.7196L124.315 108.585C125.452 110.258 128.74 110.007 131.66 108.024C134.579 106.04 136.024 103.075 134.886 101.402C134.886 101.402 134.041 102.687 131.686 104.288C129.33 105.888 127.354 106.863 126.655 105.835Z" fill="#EBB044"/>
</g>
</svg>
