<svg width="41" height="41" viewBox="0 0 41 41" fill="none" xmlns="http://www.w3.org/2000/svg">
<circle cx="20.5" cy="20.5" r="20.5" fill="#D9D9D9"/>
<g clip-path="url(#clip0_1319_8573)">
<path d="M20.4999 7.51758C13.324 7.51758 7.5166 13.3244 7.5166 20.5009C7.5166 27.6768 13.3234 33.4842 20.4999 33.4842C27.6759 33.4842 33.4833 27.6774 33.4833 20.5009C33.4833 13.325 27.6764 7.51758 20.4999 7.51758ZM15.4763 10.193C15.0844 11.2601 14.7542 12.3488 14.4874 13.4538C13.7063 13.2163 12.9401 12.9325 12.1928 12.6037C13.144 11.6044 14.2523 10.7908 15.4763 10.193ZM11.1853 13.8186C12.1509 14.2662 13.1475 14.6434 14.1675 14.9471C13.8731 16.519 13.7047 18.1188 13.6647 19.7402H9.06355C9.20367 17.5877 9.93718 15.5505 11.1853 13.8186ZM11.1853 27.1833C9.93718 25.4513 9.20367 23.4141 9.06355 21.2617H13.6647C13.7047 22.883 13.8731 24.4828 14.1675 26.0547C13.1475 26.3585 12.1509 26.7356 11.1853 27.1833ZM12.1928 28.3982C12.9401 28.0694 13.7063 27.7855 14.4874 27.5481C14.7542 28.6531 15.0844 29.7418 15.4763 30.8089C14.2529 30.2114 13.1445 29.3979 12.1928 28.3982ZM19.7392 31.9373C18.9402 31.8853 18.157 31.7519 17.3994 31.5404C16.8005 30.1222 16.3188 28.6573 15.9592 27.1604C17.1925 26.8847 18.4544 26.7235 19.7392 26.6779V31.9373ZM19.7392 25.1555C18.3471 25.2015 16.98 25.3739 15.6438 25.6715C15.3784 24.2246 15.2254 22.7528 15.1867 21.2617H19.7392V25.1555ZM19.7392 19.7402H15.1867C15.2254 18.249 15.3784 16.7772 15.6438 15.3303C16.98 15.6279 18.3471 15.8003 19.7392 15.8463V19.7402ZM19.7392 14.3239C18.4544 14.2783 17.1925 14.1171 15.9592 13.8414C16.3188 12.3445 16.8005 10.8796 17.3994 9.46138C18.157 9.24989 18.9402 9.11651 19.7392 9.06452V14.3239ZM29.8146 13.8186C31.0627 15.5505 31.7962 17.5877 31.9363 19.7402H27.3352C27.2952 18.1188 27.1268 16.519 26.8324 14.9471C27.8523 14.6434 28.849 14.2662 29.8146 13.8186ZM28.807 12.6036C28.0598 12.9325 27.2936 13.2163 26.5125 13.4538C26.2457 12.3487 25.9155 11.26 25.5236 10.193C26.7469 10.7904 27.8554 11.6039 28.807 12.6036ZM21.2607 9.06452C22.0597 9.11651 22.8429 9.24989 23.6005 9.46138C24.1993 10.8796 24.681 12.3445 25.0407 13.8414C23.8074 14.1171 22.5455 14.2783 21.2607 14.3239V9.06452ZM21.2607 15.8463C22.6527 15.8003 24.0199 15.6279 25.3561 15.3303C25.6215 16.7772 25.7745 18.249 25.8132 19.7402H21.2607V15.8463ZM23.6004 31.5404C22.8429 31.7519 22.0597 31.8853 21.2607 31.9373V26.6779C22.5455 26.7235 23.8074 26.8847 25.0407 27.1604C24.681 28.6573 24.1993 30.1222 23.6004 31.5404ZM21.2607 25.1555V21.2617H25.8132C25.7745 22.7528 25.6215 24.2246 25.3561 25.6715C24.0199 25.3739 22.6527 25.2015 21.2607 25.1555ZM25.5236 30.8088C25.9155 29.7418 26.2457 28.653 26.5125 27.548C27.2936 27.7855 28.0598 28.0694 28.807 28.3981C27.8559 29.3974 26.7476 30.211 25.5236 30.8088ZM29.8146 27.1833C28.849 26.7356 27.8523 26.3585 26.8324 26.0547C27.1268 24.4828 27.2952 22.883 27.3352 21.2617H31.9363C31.7962 23.4141 31.0627 25.4513 29.8146 27.1833Z" fill="#22A1E7"/>
</g>
<defs>
<clipPath id="clip0_1319_8573">
<rect width="25.9667" height="25.9667" fill="white" transform="translate(7.5166 7.51758)"/>
</clipPath>
</defs>
</svg>
